<?xml version="1.0" encoding="UTF-8"?>
<svg id="_圖層_1" data-name="圖層 1" xmlns="http://www.w3.org/2000/svg" viewBox="0 0 32.28 6.96">
  <g>
    <path d="M3.48,0C1.56,0,0,1.56,0,3.48s1.56,3.48,3.48,3.48,3.48-1.56,3.48-3.48S5.4,0,3.48,0Z" style="fill: #ffc533; fill-rule: evenodd;"/>
    <g>
      <path d="M5.29,3.99v-.34c0-.16-.13-.29-.29-.29s-.29.13-.29.29v.34c0,.21-.17.39-.39.39h-1.66l.18-.18c.11-.11.11-.3,0-.41-.11-.11-.3-.11-.41,0l-.67.67c-.06.05-.09.13-.09.21,0,.07.03.15.08.21l.68.68c.11.11.3.11.41,0,.11-.11.11-.3,0-.41l-.18-.18h1.66c.53,0,.97-.43.97-.97Z" style="fill: #fff; fill-rule: evenodd;"/>
      <path d="M1.67,2.97v.34c0,.16.13.29.29.29s.29-.13.29-.29v-.34c0-.21.17-.39.39-.39h1.66l-.18.18c-.11.11-.11.3,0,.41.11.11.3.11.41,0l.67-.67s0-.01.01-.02c.1-.11.1-.29-.01-.4l-.68-.68c-.11-.11-.3-.11-.41,0-.11.11-.11.3,0,.41l.18.18h-1.66c-.53,0-.97.43-.97.97Z" style="fill: #fff; fill-rule: evenodd;"/>
    </g>
  </g>
  <text transform="translate(9.22 5.38)" style="fill: #ffc533; font-family: MFinanceHK-Bold, &apos;MFinance HK&apos;; font-size: 5.76px; font-weight: 700;"><tspan x="0" y="0">錯題重練</tspan></text>
</svg>