<?xml version="1.0" encoding="UTF-8"?>
<svg id="_圖層_1" data-name="圖層 1" xmlns="http://www.w3.org/2000/svg" xmlns:xlink="http://www.w3.org/1999/xlink" viewBox="0 0 793.68 818.21">
  <defs>
    <linearGradient id="_未命名漸層_104" data-name="未命名漸層 104" x1="231.71" y1="92.86" x2="586.63" y2="794.06" gradientTransform="translate(-12.3 11.8) rotate(-1.75)" gradientUnits="userSpaceOnUse">
      <stop offset="0" stop-color="#649905"/>
      <stop offset=".7" stop-color="#3f6116"/>
    </linearGradient>
    <linearGradient id="_未命名漸層_88" data-name="未命名漸層 88" x1="115.56" y1="115.45" x2="671.16" y2="671.05" gradientTransform="translate(-12.3 11.8) rotate(-1.75)" gradientUnits="userSpaceOnUse">
      <stop offset="0" stop-color="#4a7f01"/>
      <stop offset="1" stop-color="#335305"/>
    </linearGradient>
    <linearGradient id="_未命名漸層_83" data-name="未命名漸層 83" x1="148.85" y1="148.74" x2="630.37" y2="630.26" gradientTransform="translate(-12.3 11.8) rotate(-1.75)" gradientUnits="userSpaceOnUse">
      <stop offset="0" stop-color="#679d04"/>
      <stop offset="1" stop-color="#476e12"/>
    </linearGradient>
    <linearGradient id="_未命名漸層_97" data-name="未命名漸層 97" x1="181.25" y1="-66.35" x2="222.42" y2="-25.19" gradientTransform="translate(10.57 149.29) rotate(2.69)" gradientUnits="userSpaceOnUse">
      <stop offset="0" stop-color="#e7eee0"/>
      <stop offset="1" stop-color="#fbfcfa"/>
    </linearGradient>
  </defs>
  <circle cx="400.81" cy="425.34" r="392.87" style="fill: url(#_未命名漸層_104);"/>
  <circle cx="392.87" cy="392.87" r="392.87" style="fill: url(#_未命名漸層_88);"/>
  <circle cx="392.87" cy="392.87" r="340.49" style="fill: url(#_未命名漸層_83);"/>
  <path d="M247,122.35l-35.17,24.47c-11.83,8.23-28.09,5.31-36.32-6.52h0c-8.23-11.83.33-29.49,6.52-36.32,6.65-8.81,25.25-21.91,35.17-24.47,7.96-2.57,28.09-5.31,36.32,6.52h0c8.23,11.83,5.31,28.09-6.52,36.32Z" style="fill: url(#_未命名漸層_97);"/>
  <g>
    <path d="M572.25,233.45l-2.36-.67c-12.72-3.63-26.4.07-35.55,9.63l-173.61,181.27c-12.74,13.3-33.5,14.72-47.93,3.27l-72.53-57.54c-9.42-7.48-21.98-9.7-33.39-5.91h0c-24.84,8.24-32.65,39.54-14.58,58.48l84.87,88.95-.06.06,15.28,15.9,37.54,39.06c13.13,13.66,35.32,12.52,46.98-2.42l213.67-273.83c15.56-19.94,6-49.29-18.33-56.24Z" style="fill: #455f22;"/>
    <path d="M591.82,257.23l-2.47-.71c-13.33-3.81-27.66.08-37.25,10.09l-181.9,189.92c-13.34,13.93-35.1,15.42-50.21,3.43l-75.99-60.29c-9.87-7.83-23.03-10.16-34.99-6.19h0c-26.03,8.63-34.21,41.43-15.28,61.27l88.92,93.2-.06.06,16.01,16.66,39.33,40.93c13.76,14.32,37.01,13.12,49.22-2.54l223.87-286.9c16.3-20.89,6.28-51.65-19.2-58.92Z" style="fill: #98c71c;"/>
    <path d="M586.68,240.61l-2.47-.71c-13.33-3.81-27.66.08-37.25,10.09l-181.9,189.92c-13.34,13.93-35.1,15.42-50.21,3.43l-75.99-60.29c-9.87-7.83-23.03-10.16-34.99-6.19h0c-26.03,8.63-34.21,41.43-15.28,61.27l88.92,93.2-.06.06,16.01,16.66,39.33,40.93c13.76,14.32,37.01,13.12,49.22-2.54l223.87-286.9c16.3-20.89,6.28-51.65-19.2-58.92Z" style="fill: #fefefe;"/>
  </g>
</svg>