<?xml version="1.0" encoding="UTF-8"?>
<svg id="_圖層_1" data-name="圖層 1" xmlns="http://www.w3.org/2000/svg" xmlns:xlink="http://www.w3.org/1999/xlink" viewBox="0 0 1849.96 926.67">
  <defs>
    <linearGradient id="_未命名漸層_426" data-name="未命名漸層 426" x1="-6067.43" y1="-276.69" x2="-5048.4" y2="627.31" gradientTransform="translate(2555.3 375.33) scale(.42)" gradientUnits="userSpaceOnUse">
      <stop offset=".22" stop-color="#6b8fa5"/>
      <stop offset=".91" stop-color="#d5e3e8"/>
    </linearGradient>
    <linearGradient id="_未命名漸層_397" data-name="未命名漸層 397" x1="-6531.78" y1="-776.04" x2="-6084.3" y2="987.38" gradientTransform="translate(2555.3 375.33) scale(.42)" gradientUnits="userSpaceOnUse">
      <stop offset="0" stop-color="#e1ebee"/>
      <stop offset="1" stop-color="#98b5c3"/>
    </linearGradient>
    <linearGradient id="_未命名漸層_397-2" data-name="未命名漸層 397" x1="-5933.93" y1="-927.75" x2="-5486.45" y2="835.67" xlink:href="#_未命名漸層_397"/>
    <linearGradient id="_未命名漸層_422" data-name="未命名漸層 422" x1="-4017.69" y1="1036.42" x2="-3797.42" y2="1385.18" gradientTransform="translate(2555.3 375.33) scale(.42)" gradientUnits="userSpaceOnUse">
      <stop offset="0" stop-color="#bdd4dd"/>
      <stop offset="1" stop-color="#7697ab"/>
    </linearGradient>
    <linearGradient id="_未命名漸層_427" data-name="未命名漸層 427" x1="-2925.78" y1="-491.71" x2="-1774" y2="1296.51" gradientTransform="translate(2555.3 375.33) scale(.42)" gradientUnits="userSpaceOnUse">
      <stop offset="0" stop-color="#b1c7d1"/>
      <stop offset=".62" stop-color="#85a1b2"/>
      <stop offset="1" stop-color="#5f7b8f"/>
    </linearGradient>
    <linearGradient id="_未命名漸層_427-2" data-name="未命名漸層 427" x1="-2102.75" y1="-1021.82" x2="-950.96" y2="766.4" xlink:href="#_未命名漸層_427"/>
    <linearGradient id="_未命名漸層_427-3" data-name="未命名漸層 427" x1="1673.02" y1="668.29" x2="1842.44" y2="931.32" gradientTransform="matrix(1,0,0,1,0,0)" xlink:href="#_未命名漸層_427"/>
  </defs>
  <polygon points="138.47 138.56 .04 138.55 0 0 138.47 0 138.47 138.56" style="fill: #dce7eb;"/>
  <polygon points="1849.96 96.25 1711.29 96.24 1711.25 .02 1849.96 .02 1849.96 96.25" style="fill: #a7beca;"/>
  <g>
    <polygon points="636.74 926.4 661.01 886.37 630.6 888.41 515.55 888.45 515.55 926.4 636.74 926.4" style="fill: #426279;"/>
    <path d="M1640.77,926.4c-5.27-13.09-16.94-25.62-42.02-27.52l-12.31-2.84,22.71,30.36h31.63Z" style="fill: #426279;"/>
    <path d="M147.87,926.4c-41.57-34.27-83.96-70.07-119.7-108.04l-3.79,3.79c8.72,14.54-8.13,34.52-24.34,34.92v37.47c12.04,10.64,24.14,21.25,36.25,31.86h111.58Z" style="fill: #7d9eb1;"/>
    <path d="M562.43,909.3c-3.69,1.65-12.91,9.1-21.68,17.1h7.15c5.74-5.31,11.24-10.73,14.53-17.1Z" style="fill: #547186;"/>
    <path d="M626.85,896.04c3.31-1.86,4.97-5.23,5.68-5.68v-1.89c-31.39-.9-63.87-.34-96.77.67,28.08,1.01,52.41,2.15,69.3,3.12,6.48.37,15.38,2.05,21.79,3.79Z" style="fill: #547186;"/>
    <path d="M223.92,926.4h7.32c11.97-13.88,25.25-29.09,39.01-33.34-12.33,1.47-23.26,2.98-23.26,2.98-46.69-42.77-144.93-123.15-144.93-123.15,48.07,43.24,97.15,85.37,145.88,127.88-6.89,9.74-15.26,17.87-24.02,25.62Z" style="fill: #547186;"/>
    <path d="M302.88,890.36c73.86,6.1,154.55,1.17,232.88-1.23-88.87-3.2-215.29-5.17-262.24,3.12-1.09.19-2.18.48-3.27.81,13.16-1.57,27.9-3.1,32.63-2.71Z" style="fill: #547186;"/>
    <path d="M486.65,11.29c-95.32,0-190.84,1.06-286.08,0h-1.89c-1.03,6.72-11.25,17.66-16.1,22.73C155.19,62.68,53.44,146.12.04,199.34v5.39c.24-.1.47-.18.66-.2,4.27-.49,13.76,14.04,21.79,11.37,44.87-46.2,105.06-100.14,154.41-142.09,5.94-5.05,44.36-37.47,47.36-37.89,1.48-.21.75,3.81.95,3.79,11.13-1.22,22.57-.67,34.1-1.89,2.17-.23,11.9-1.31,18.95-1.89,14.88-1.23,35.86-4.37,55.89-3.79,3.46.1,9.35-1.9,8.53,3.79,12.45-.21,25.77-1.87,37.89-1.89,12.32-6.91,74.03,2.02,80.52-1.89,2.06-1.25-.79-7.1,3.79-9.47,3.86-2.01,22.38-3.43,21.79-11.37Z" style="fill: #547186;"/>
    <path d="M.04,239.44c8.02-8.85,16.72-17.65,22.45-23.54-8.03,2.67-17.51-11.86-21.79-11.37-.2.02-.42.1-.66.2v34.71Z" style="fill: #698a9d;"/>
    <path d="M167.83,926.4h17.66C121.36,869.3,53.52,814.85.04,747.67v21.32c3.83,4.42,7.12,8.17,9.19,10.54,46.5,53.2,104.98,99.22,158.61,146.87Z" style="fill: #698a9d;"/>
    <path d="M153.8,926.4h14.04c-53.63-47.66-112.11-93.68-158.61-146.87-2.07-2.36-5.36-6.11-9.19-10.54v13.94c2.88,3.59,5.93,7.19,9.19,10.8,42.28,47.02,96.27,88.69,144.57,132.66Z" style="fill: #dae7eb;"/>
    <path d="M147.87,926.4h5.93c-48.31-43.97-102.3-85.65-144.57-132.66,5.23,7.69,12.65,17.94,18.95,24.63,35.74,37.96,78.13,73.76,119.7,108.04Z" style="fill: #698a9d;"/>
    <path d="M1849.94,214.59c-58.85-67.81-141.89-126.65-201.94-192.89-.85-7.21-1.38-14.44-1.71-21.69h-4.53c-.13,3.76-.25,7.52-.38,11.27h-337.23l-.09-11.27h-3.75c-.52,5.01-1.41,9.47-2.79,13.17,4.76.18,3.58,1.88,3.79,1.89,27.07,1.44,42.67-5.4,66.31,7.58,3.49,1.92,13.73,3.82,15.16,8.53,4.02,13.25-17.84,23.5-28.42,8.53l-3.79,1.89c4.13,2.13,8.06,11.55,18,11.37,12.42-.22,14.81-12.39,18-15.16.22-.19,1.33-3.27,2.84-3.79h162.93c7.66,9.6,22.3,22.08,33.15,30.31,8.25,6.26,17.46,11.69,26.52,18.95,1.68-12.47,21.42-21.39,32.21-24.63-2.81-2.33-17.7-18.44-18.95-18.95-13.47-5.47-36.59.93-51.15-2.84,8.6-2.66,38.78-4.42,46.42-2.84,1.61.33,4.41,5.51,4.74,5.68,23.36,12.27,50.31,42.2,70.1,60.63,11.06,0,12.73-12.76,23.68-7.58,6.48,3.07,92.71,86.73,104.2,98.52,6.18,6.35,18.23,17.81,26.69,27.81v-4.49Z" style="fill: #547186;"/>
    <path d="M185.49,926.4h38.43c8.76-7.75,17.13-15.89,24.02-25.62-48.73-42.51-97.81-84.65-145.88-127.88-28.15-25.32-73.58-49.73-77.68-89.04-6.6-8.24-4.11-29.72-3.79-40.73.1-3.46-1.9-9.35,3.79-8.53-2.11-91.43-1.31-184.17,0-275.66.02-1.34-.03-2.15,0-3.79.48-26.28-4.55-64.34,7.58-87.15,12.61-23.72,209.54-197.68,239.66-216.93,34.94-22.33,33.26-14.52,71.05-15.16.83-5.69-5.07-3.69-8.53-3.79-20.03-.58-41.01,2.56-55.89,3.79l-18.95,1.89c-11.53,1.22-22.97.68-34.1,1.89C145.55,103.17,70.31,172.81.04,246.64v501.04c53.48,67.18,121.32,121.62,185.45,178.73Z" style="fill: url(#_未命名漸層_426);"/>
    <path d="M470.68,926.4l9.34-30.36-6.55,30.36h67.28c8.77-7.99,17.99-15.45,21.68-17.1,27.1-12.13,42.78-1.08,64.41-13.26-6.41-1.74-15.31-3.42-21.79-3.79-70.36-4.06-269.76-10.9-331.55,0-14.92,2.63-29.36,19.17-42.27,34.15h239.44Z" style="fill: #dae7eb;"/>
    <polygon points="473.47 926.4 480.02 896.04 470.68 926.4 473.47 926.4" style="fill: #7d9eb1;"/>
    <path d="M224.26,35.92c-3.01.43-41.42,32.84-47.36,37.89-49.35,41.95-109.53,95.89-154.41,142.09-5.72,5.89-14.43,14.69-22.45,23.54v7.2C70.31,172.81,145.55,103.17,225.2,39.71c-.19.02.54-4-.95-3.79Z" style="fill: #426279;"/>
    <path d="M278.25,35.92l-18.95,1.89c2.17-.23,11.9-1.31,18.95-1.89Z" style="fill: #2f5068;"/>
    <path d="M1367.61,22.65c-11.5-.58-20.97,6.14-13.26,17.05l-3.79,1.89c-23.68-12.23-64.52,1.3-88.43-8.55,7.23-5.27,25.2-12.6,30.31-20.43,27.07,1.44,51.53-2.94,75.17,10.03Z" style="fill: #547186;"/>
    <path d="M1843.15,747.32l-186.79,179.08h16.62c56.82-51.35,118.75-101.89,169.23-157.29,2.59-2.84,5.18-5.68,7.75-8.53v-23.8c-2.49,3.64-4.94,7.2-6.8,10.55Z" style="fill: #698a9d;"/>
    <path d="M1849.94,219.08c-8.46-10-20.51-21.47-26.69-27.81-11.49-11.79-97.72-95.45-104.2-98.52-10.95-5.19-12.62,7.59-23.68,7.58,36.34,33.84,114.48,104.33,140.2,142.09,4.48,6.58,11.49,15.18,14.38,23.11v-46.45Z" style="fill: #7d9eb1;"/>
    <path d="M1644.22,58.65c26.74,22.22,50.55,48.12,75.78,71.99,7.59,4.47-21.78,24.79-23.68,24.63-2.51-.21-33.16-27.69-38.84-32.21-15.83-12.61-29.86-27.29-45.47-39.79,1.68-12.47,21.42-21.39,32.21-24.63Z" style="fill: #7d9eb1;"/>
    <path d="M1695.37,100.33c36.34,33.84,114.48,104.33,140.2,142.09-38.23-37.56-76.63-74.94-115.57-111.78-25.23-23.87-49.04-49.77-75.78-71.99-2.81-2.33-17.7-18.44-18.95-18.95,23.36,12.27,50.31,42.2,70.1,60.63Z" style="fill: #426279;"/>
    <path d="M1585.49,64.33l-38.84-26.52h-160.09c.22-.19,1.33-3.27,2.84-3.79h162.93c7.66,9.6,22.3,22.08,33.15,30.31Z" style="fill: #2f5068;"/>
    <path d="M1625.27,39.71c-13.47-5.47-36.59.93-51.15-2.84,8.6-2.66,38.78-4.42,46.42-2.84,1.61.33,4.41,5.51,4.74,5.68Z" style="fill: #2f5068;"/>
    <g>
      <path d="M1220.88.02l-.09,11.27h-590.15c.17,3.83-.98,21.37.95,22.73h587.31c4.98-1.93,5.94-16.63,6.63-22.73.41-3.69.71-7.45.91-11.27h-5.55Z" style="fill: #698a9d;"/>
      <path d="M1226.43.02c-.2,3.82-.5,7.59-.91,11.27h1.89c23.31,1.76,46.68,1.01,70.1,1.89,1.38-3.7,2.27-8.16,2.79-13.17h-73.87Z" style="fill: #dae7eb;"/>
      <path d="M626.85,11.29c-.17,3.83.98,21.37-.95,22.73-15.35.86-31.15-1.17-46.42,0-1.24.1-2.55-.09-3.79,0-.63.04-1.27-.04-1.89,0-7.78-.44-23.88-14.69-17.05-22.73h70.1Z" style="fill: #698a9d;"/>
      <path d="M1297.52,13.18c-10.06,26.87-48.67,20.64-71.05,20.84l.95-22.73c23.31,1.76,46.68,1.01,70.1,1.89Z" style="fill: #698a9d;"/>
      <g>
        <path d="M200.57.02v11.27c95.24,1.06,190.75,0,286.08,0h62.52c-.58-3.51-1-7.29-1.31-11.27H200.57Z" style="fill: #dae7eb;"/>
        <path d="M552.87.02l.09,11.27h73.89c.17-3.75.27-7.51.32-11.27h-74.3Z" style="fill: #dae7eb;"/>
        <path d="M630.29.02c.08,3.76.18,7.52.35,11.27h590.15l.09-11.27h-590.59Z" style="fill: #dae7eb;"/>
        <path d="M547.86.02c.3,3.98.73,7.76,1.31,11.27h3.79l-.09-11.27h-5.01Z" style="fill: #4c9bae;"/>
      </g>
      <path d="M1304.05.02l.09,11.27h337.23c.13-3.75.26-7.51.38-11.27h-337.71Z" style="fill: #bdd2db;"/>
    </g>
    <path d="M1237.84,897.94c1.95.82-.05,4.9,1.89,5.68,10.67,4.28,20.85,1.44,31.26,13.26,7.67-5.75,7.2-2.55,13.26-1.89.25.03.44-3.6,4.74-1.89,1.55.62,7.5,6.6,13.84,13.31h52.05c-4.72-9.86-9.11-19.89-10.95-30.36,3.78,10.39,9.9,20.72,15.91,30.36h252.01c-8.18-10.37-16.27-20.82-25.43-30.36-120.06-9.32-241.49-.68-361.86-1.89-2.48,7,10.67,2.7,13.26,3.79Z" style="fill: #bdd2db;"/>
    <path d="M1320.63,926.4c-.45-12.11-.81-23.43-2.03-30.36,3.78,10.39,9.9,20.72,15.91,30.36h252.01c-8.18-10.37-16.27-20.82-25.43-30.36-120.06-9.32-261.51-1.04-381.88-2.25-.88,2.48,5.2,16.09,13.5,32.61h127.9Z" style="fill: #bdd2db;"/>
    <path d="M1200.17,913.87c1.95.82-.05,4.9,1.89,5.68,8.03,3.22,15.78,2.41,23.56,6.85h84.68c-1.75-4.73-3.18-9.53-4.04-14.43,1.76,4.84,4.04,9.67,6.57,14.43h248.64c-4.08-4.95-8.27-9.8-12.71-14.43-120.06-9.32-241.49-.68-361.86-1.89-2.48,7,10.67,2.7,13.26,3.79Z" style="fill: #bdd2db;"/>
    <g>
      <path d="M1302.83,926.4c-6.35-6.71-12.29-12.69-13.84-13.31-4.3-1.71-4.48,1.92-4.74,1.89,3.61,3.51,7.93,7.36,12.34,11.41h6.24Z" style="fill: #426279;"/>
      <path d="M1359.85,926.4c-6.01-9.64-12.14-19.97-15.91-30.36,1.84,10.47,6.23,20.5,10.95,30.36h4.96Z" style="fill: #426279;"/>
    </g>
    <path d="M24.38,634.59c.36,15.63-1.57,34.23,0,49.26-6.6-8.24-4.11-29.72-3.79-40.73.1-3.46-1.9-9.35,3.79-8.53Z" style="fill: #7d9eb1;"/>
    <path d="M1624.58,926.4c-9.71-9.96-21.5-22.87-20.15-27.52,28.59-21,53.64-46.21,80.52-69.15,31.8-27.15,129.16-96.07,137.35-134.51l1.89-404.49c-10.75-23.71-27.86-43.58-46.42-61.57-1.89-1.84-4.97-6.65-4.74,0,12.65,13.1,44.5,46.61,47.36,63.47l-1.89,401.64c-3.37,17.89-15.51,25.32-26.52,36.94-56.85,59.97-131.2,112.58-193.24,167.67-1.33,4.35,9.74,16.53,20.32,27.52h5.51Z" style="fill: #fbfbfc;"/>
    <path d="M1841.25,741.64l-193.69,184.77h8.79l186.79-179.08c1.86-3.35,4.3-6.91,6.8-10.55v-9.77c-2.61,4.75-5.56,9.48-8.69,14.63Z" style="fill: #fbfbfc;"/>
    <path d="M1849.94,703.95v-438.42c-2.89-7.92-9.89-16.52-14.38-23.11-37.93-37.27-76.03-74.35-114.65-110.91,3.54,5.76-22.8,23.91-24.6,23.76-2.51-.21-33.16-27.69-38.84-32.21,35.51,38.06,79.55,68.78,115.57,106.09-.24-6.65,2.84-1.84,4.74,0,18.55,17.99,35.67,37.86,46.42,61.57l-1.89,404.49,27.64,8.73Z" style="fill: #bdd2db;"/>
    <path d="M662.84,68.12l-3.79-3.79c2.99,2.42,3.58,3.62,3.79,3.79Z" style="fill: #2f5068;"/>
    <g>
      <path d="M549.17,11.29c1.8,10.85,8.23,14.14,14.21,22.73-12.18-2.73-52.07,3.64-60.63,0-.53-.23-4.3-6.69-6.63-9.47-1.21-3.14-1.05-5.29-4.74-7.58-3.18,3.95,3.47,6.06,4.74,7.58.22.58,2.03,11.71,1.89,12.31-5.13,23.87-23.14,15.23-36,6.63-.53-.35-7.13-9.16-8.53-9.47-3.48-.78-30.13,1.81-36.94,1.89-11.7,1.96-25.14-1.91-36-1.89,12.33-6.91,74.03,2.02,80.52-1.89,2.06-1.25-.79-7.1,3.79-9.47,3.86-2.01,22.38-3.43,21.79-11.37h62.52Z" style="fill: #547186;"/>
      <path d="M552.96,11.29h3.79c-6.83,8.04,9.27,22.29,17.05,22.73-.19.01.61,3.7-.95,3.79-11.78.67-67.06-2.21-71.99,0-1.22.55-7.39,17.48-18.95,18.95-5.77.73-23.35-4.48-19.89-13.26,12.85,8.6,30.86,17.24,36-6.63.13-.61-1.67-11.73-1.89-12.31,2.33,2.78,6.1,9.25,6.63,9.47,8.56,3.64,48.44-2.73,60.63,0-5.98-8.6-12.41-11.89-14.21-22.73h3.79Z" style="fill: #2f5068;"/>
      <path d="M496.12,24.55c-1.27-1.51-7.92-3.63-4.74-7.58,3.69,2.29,3.53,4.44,4.74,7.58Z" style="fill: #2f5068;"/>
      <g>
        <path d="M476.23,22.65c19.93-2.26,17.92,29.92-1.89,26.52-14.68-2.51-12.63-24.88,1.89-26.52Z" style="fill: #153f5e;"/>
        <path d="M471.49,35.92l9.47-3.79c14.34,5-11.8,16.35-9.47,3.79Z" style="fill: #426279;"/>
        <path d="M480.97,32.13l-9.47,3.79c.76-4.08,6.67-4.77,9.47-3.79Z" style="fill: #72a0ab;"/>
      </g>
    </g>
    <g>
      <path d="M24.38,822.15c-1.25-2.09-21.3-16.66-23.68-17.05-.23-.04-.44-.06-.66-.09v52.06c16.21-.4,33.07-20.38,24.34-34.92Z" style="fill: #698a9d;"/>
      <path d="M.04,809.31v4.13c3.24.03,6.85.69,11.08,2.08-3.19-2.77-7.01-5.07-11.08-6.21Z" style="fill: #dae7eb;"/>
      <path d="M15.86,841.1L.04,848.06v4.08c7.79-1.24,17.65-5.95,15.82-11.04Z" style="fill: #bdd2db;"/>
      <g>
        <path d="M.04,816.2v27.07c1.88.37,3.99.33,6.34-.27,14.75-3.78,6.94-26.28-6.34-26.8Z" style="fill: #bdd2db;"/>
        <path d="M.7,822.15c-.24.11-.45.24-.66.38v10.28c1.11.75,2.59,1.08,4.45.71,7.3-1.47,5.27-15.62-3.79-11.37Z" style="fill: #2f5068;"/>
      </g>
    </g>
    <g>
      <path d="M.04,782.93v22.08c.22.03.44.05.66.09,2.39.39,22.43,14.96,23.68,17.05l3.79-3.79c-6.29-6.69-13.72-16.94-18.95-24.63-3.25-3.62-6.3-7.22-9.19-10.8Z" style="fill: url(#_未命名漸層_397);"/>
      <path d="M93.77.02C62.41,31.39,31.03,63.22.04,92.49v106.85C53.44,146.12,155.19,62.68,182.58,34.02c4.85-5.08,15.07-16.02,16.1-22.73.55-3.54.82-7.32.91-11.27h-105.82Z" style="fill: url(#_未命名漸層_397-2);"/>
      <path d="M199.59.02c-.09,3.95-.37,7.73-.91,11.27h1.89V.02h-.98Z" style="fill: #a2c2c9;"/>
      <path d="M76.48,100.33c4-.92,1.45,3.99.95,4.74-7.19,10.68-35.23,29.23-44.52,40.73l43.57-45.47Z" style="fill: #72a0ab;"/>
      <g>
        <path d="M.04,122.9v53.28c.22-.02.44-.04.66-.07,29.49-4.02,25.22-47.55-.66-53.21Z" style="fill: #2e849b;"/>
        <path d="M6.38,132.54c11.63,8.62,12.87,22.28,0,30.31-2.41,1.51-4.5,2.48-6.34,3.02v4.52c16.28-2.94,29.82-25.44,6.34-37.85Z" style="fill: #dae7eb;"/>
        <g>
          <path d="M.04,132.93v28.12c.22-.03.44-.06.66-.1,15.32-2.66,10.96-24.82-.66-28.02Z" style="fill: #dae7eb;"/>
          <path d="M.04,146.21v5.81c1.61-1.1,2.94-3.35,3.5-7.16-1.36.53-2.5.98-3.5,1.36Z" style="fill: #297899;"/>
        </g>
      </g>
    </g>
    <g>
      <path d="M1367.61,22.65c3.49,1.92,13.73,3.82,15.16,8.53,4.02,13.25-17.84,23.5-28.42,8.53-7.71-10.91,1.76-17.63,13.26-17.05Z" style="fill: #2f5068;"/>
      <path d="M1364.77,26.44c2.4-.55,14.07,2.88,12.31,6.63-12.22-5.52-13.38,7.03-16.1,6.63-5.01-3.59-.26-12.33,3.79-13.26Z" style="fill: #7d9eb1;"/>
    </g>
    <path d="M1822.31,695.22c-8.2,38.44-105.56,107.36-137.35,134.51-26.88,22.95-51.93,48.15-80.52,69.15-1.35,4.64,10.44,17.55,20.15,27.52h22.98l193.69-184.77c3.13-5.15,6.08-9.88,8.69-14.63v-23.06l-27.64-8.73Z" style="fill: #dae7eb;"/>
    <g>
      <path d="M1173.25,926.4c-.78-1.12-1.56-2.25-2.33-3.38.72,1.15,1.37,2.28,1.93,3.38h.39Z" style="fill: #547186;"/>
      <path d="M1168.02,918.75c.97,1.42,1.94,2.85,2.91,4.27-.86-1.38-1.84-2.81-2.91-4.27Z" style="fill: #547186;"/>
      <path d="M1168.02,918.75c-4.26-6.25-8.59-12.49-13.69-18.49-12.82-15.08-31.38-29.56-41.68-45.9l-20.84-27.7c4.4,26.51,56.61,65.38,76.21,92.1Z" style="fill: #547186;"/>
      <path d="M1012.23,863.86c15.1,2.09,16.43,7.01,24.63,15.83,3.16-6.83,6.8-4.97,13.26-1.58,4.19,2.19,35.41,32.33,50.57,48.3h30.22c-15.3-27.27-61.88-53.16-82.68-70.46-49.75-16.47-167.99,2.53-226.4-4.75-2.31,1.89-5.35,1.79-8.53,3.17h207.45c7.42,4.87-3.9,7.24-8.53,9.5Z" style="fill: #698a9d;"/>
      <path d="M1086.47,926.4c-1.71-1.32-2.82-.66-3.46,0h3.46Z" style="fill: #2f5068;"/>
      <g>
        <path d="M1081.42,926.4h1.58c.64-.66,1.75-1.32,3.46,0h10.78c-10.09-10.6-26.19-19.31-39.55-33.26-2.28-2.38-11.75-11.66-7.58-15.04-6.47-3.38-10.11-5.25-13.26,1.58,6.05,6.51,10.58,17.97,15.16,22.95,7.37,8.01,20.61,16.28,29.41,23.76Z" style="fill: #547186;"/>
        <path d="M768.01,926.4c3.08-17.45,43.85-58.16,63.29-60.96,16.7-2.41,164.75-3.82,180.93-1.58,4.62-2.26,15.95-4.63,8.53-9.5h-207.45c-2.42,1.05-1.78,1.53-1.89,1.58-16.77,8.32-78.54,54.33-88.23,70.46h44.83Z" style="fill: #547186;"/>
        <path d="M1097.25,926.4h3.44c-15.15-15.97-46.37-46.1-50.57-48.3-4.17,3.37,5.3,12.65,7.58,15.04,13.36,13.95,29.46,22.66,39.55,33.26Z" style="fill: #2f5068;"/>
      </g>
      <path d="M676,926.4c7.83-10.52,20.24-23.93,27.42-32.47l24.88-25.93c-24.93,25.46-41.14,15.05-67.29,18.37-.75.1-23.04,34.28-28.66,40.03h43.65Z" style="fill: #bdd2db;"/>
      <path d="M757.28,833.13c1.06-1.86,2.06-3.74,2.98-5.68-.8,1.19-1.8,3.22-2.98,5.68Z" style="fill: #547186;"/>
      <path d="M682.13,926.4c12.04-21.27,52.55-58.04,64.86-74.42,4.01-5.34,7.59-13.23,10.28-18.86-13.25,23.19-37.09,40.86-53.86,60.8-7.18,8.54-19.59,21.95-27.42,32.47h6.13Z" style="fill: #547186;"/>
      <path d="M1218.36,926.4c-3.06-5.1-22.36-22.97-22.36-22.97.43.35.21,5.34,5.68,5.54-2,4.21-34.07-15.38-37.89-18.2-7.41.55-8,5.1-9.47,9.5,7.19,8.45,12.84,17.37,18.93,26.14h45.11Z" style="fill: #7d9eb1;"/>
      <g>
        <path d="M720.85,926.4c1.87-3.82,3.84-7.82,5.31-9.52,19.84-22.98,57.07-45.11,85.25-60.94.12-.06-.52-.53,1.89-1.58,3.18-1.38,6.22-1.28,8.53-3.17,58.41,7.28,176.64-11.72,226.4,4.75,16.36,5.41,62.4,40.68,73.89,53.03,3.14,3.38,7.59,11.02,11.31,17.43h39.43c-13.5-26.44-76.21-70.58-81.06-99.74l20.84,27.7c-.12-.19,3.81-.62,1.89-3.96-2.55-4.43-11.99-8.96-10.42-15.04,16.62,19.76,38.15,35.51,59.68,51.44.53.39-.45,3.62,0,3.96,3.82,2.83,35.89,22.41,37.89,18.2-5.47-.2-5.25-5.19-5.68-5.54-.3-.25-99.96-85.43-111.78-93.39-6.58-4.43-17.27-9.98-25.58-11.08-32.06-4.25-231.6-4.63-263.34,0-6.71.98-11.53,5.71-16.1,7.91-8.99,7.95-13.15,11.94-18.95,20.58-2.63,3.91-7.5,16.87-13.26,24.53-12.31,16.37-52.82,53.15-64.86,74.42h38.71Z" style="fill: url(#_未命名漸層_422);"/>
        <g>
          <path d="M1130.91,926.4h2.51c-3.72-6.41-8.17-14.06-11.31-17.43-11.49-12.35-57.53-47.61-73.89-53.03,20.8,17.29,67.38,43.19,82.68,70.46Z" style="fill: #2f5068;"/>
          <path d="M805.31,859.39c2.07-1.18,4.11-2.33,6.1-3.45-1.63.81-3.7,1.98-6.1,3.45Z" style="fill: #547186;"/>
          <path d="M723.18,926.4c8.74-14.56,59.91-53.45,82.13-67.01-27.26,15.51-60.72,36.14-79.16,57.49-1.46,1.69-3.43,5.7-5.31,9.52h2.34Z" style="fill: #547186;"/>
          <path d="M1163.79,890.77c-7.41.55-8,5.1-9.47,9.5-12.82-15.08-31.38-29.56-41.68-45.9-.12-.19,3.81-.62,1.89-3.96-2.55-4.43-11.99-8.96-10.42-15.04,16.62,19.76,38.15,35.51,59.68,51.44.53.39-.45,3.62,0,3.96Z" style="fill: #a2c2c9;"/>
          <path d="M819.93,816.37c13.01-2.34,207.38-2.36,219.77,0,16.3,3.1,19.94,23.3,6.63,30.87,4.02-11.13,11.89-20.84-4.74-27.7h-225.45c-11.24,6.46-9.43,13.81-11.37,23.74-8.43-9.13,3.65-24.84,15.16-26.91Z" style="fill: #698a9d;"/>
          <path d="M778.25,832.2c6.48-1.13,13.52,11.25,3.79,12.66-8.97,1.3-10.87-11.42-3.79-12.66Z" style="fill: #297899;"/>
          <path d="M1075.7,833.78c5.79-1.07,13.15,8.19,5.68,11.08-8.67,3.36-14.57-9.44-5.68-11.08Z" style="fill: #426279;"/>
        </g>
      </g>
      <path d="M810.04,926.4c5.83-8.46,8.97-16.74,1.36-18.22-6.1,6.64-14.07,12.57-20.78,18.22h19.42Z" style="fill: #153f5e;"/>
      <g>
        <path d="M790.63,926.4c6.71-5.66,14.68-11.59,20.78-18.22,7.97-8.67,11.47-22.9,23.68-30.07,51.69,1.17,103.7-1.57,155.35,0,1.91.06,3.08,4.65,3.79,4.75,1.14.16,6.86-7.59,20.84-4.75,11.3,2.3,28.77,32.2,36.94,40.36,3.57,3.57,7.01,6.05,10.13,7.93h19.28c-8.8-7.48-22.04-15.75-29.41-23.76-4.58-4.98-9.1-16.44-15.16-22.95-8.2-8.82-9.53-13.74-24.63-15.83-16.18-2.24-164.23-.82-180.93,1.58-19.44,2.8-60.21,43.51-63.29,60.96h22.62Z" style="fill: #dae7eb;"/>
        <path d="M880.56,870.19c32.43-3.56,79.42.74,112.73,2.37l-122.2.79c-.32-1.23,8.97-3.11,9.47-3.17Z" style="fill: #7d9eb1;"/>
        <path d="M779.42,926.4c19.22-12.78,37.04-32.29,46.2-51.46l-46.66,51.46h.47Z" style="fill: #7d9eb1;"/>
      </g>
      <path d="M810.04,926.4h252.1c-3.12-1.89-6.56-4.37-10.13-7.93-8.17-8.17-25.64-38.06-36.94-40.36-13.98-2.85-19.7,4.91-20.84,4.75-.71-.1-1.87-4.69-3.79-4.75-51.65-1.57-103.67,1.17-155.35,0-12.21,7.17-15.71,21.4-23.68,30.07,7.6,1.48,4.46,9.77-1.36,18.22Z" style="fill: #153f5e;"/>
    </g>
    <g>
      <path d="M1738,877.1c-18.02,16.9-36.8,33.21-55.72,49.3h117.23c16.85-15.02,33.65-30.09,50.43-45.19v-116c-36.53,41.25-94.25,95.29-111.95,111.88Z" style="fill: url(#_未命名漸層_427);"/>
      <path d="M1849.94,214.59v-111.58c-36.65-34.26-73.5-68.33-109.75-103h-93.9c.33,7.25.86,14.48,1.71,21.69,60.04,66.24,143.09,125.07,201.94,192.89Z" style="fill: url(#_未命名漸層_427-2);"/>
      <g>
        <path d="M1849.94,95.34c-34.8-31.77-69.97-63.31-104.54-95.32h-5.21c36.25,34.67,73.1,68.74,109.75,103v-7.68Z" style="fill: #7d9eb1;"/>
        <path d="M1842.2,769.11c-50.48,55.4-112.4,105.94-169.23,157.29h9.31c18.92-16.09,37.7-32.41,55.72-49.3,17.69-16.59,75.42-70.63,111.95-111.88v-4.64c-2.56,2.85-5.15,5.69-7.75,8.53Z" style="fill: #dae7eb;"/>
        <path d="M1849.94,816.16v-10.77c-4.74-3.04-10.55-4.69-17.22-4.08-3.54,6.56,8.47,2.31,8.53,4.74.02.75-12.38,3.52-14.21,4.74-24.55,16.35-10.87,41.54,14.21,41.68-46.48-29.51-7.28-46.24,8.69-36.31Z" style="fill: #426279;"/>
        <path d="M1849.94,843.44c-1.8,2.79-4.04,5.8-6.8,9.02,2.52-.3,4.77-.85,6.8-1.6v-7.42Z" style="fill: #426279;"/>
        <path d="M1781.23,926.4h2.21c22.43-19.31,44.57-38.95,66.5-58.84v-4.86c-23,21.13-45.86,42.41-68.71,63.7Z" style="fill: #7d9eb1;"/>
        <path d="M1760.73,96.54l40.73,38.84c-1.85,5.77-41.21-32.68-40.73-38.84Z" style="fill: #4c7b8e;"/>
        <g>
          <path d="M1849.94,124.4c-1.84.02-3.79.2-5.85.56-20.53,3.6-15.45,36.3-23.68,25.58-5.44,20.85,13.14,30.05,29.53,26.99v-53.13Z" style="fill: #698a9d;"/>
          <path d="M1838.41,142.01c4.37-1,12.82,19.14,11.37,20.84-6.55,7.65-25.49-13.28-11.37-20.84Z" style="fill: #bdd2db;"/>
          <path d="M1849.94,168.96c-4.75,3.96-10.3,6.45-16.27,4.31,5.25,3.04,10.96,2.93,16.27.89v-5.2Z" style="fill: #a2c2c9;"/>
          <path d="M1849.94,131.44c-2.44-1.12-5.09-1.5-7.75-.79-.97.26-3.55,3.25-2.84,4.74,4.33-.67,7.88.45,10.59,2.61v-6.55Z" style="fill: #bdd2db;"/>
        </g>
        <g>
          <path d="M1849.94,816.16c-15.97-9.94-55.17,6.8-8.69,36.31.62,0,1.29.07,1.89,0,2.75-3.22,5-6.23,6.8-9.02v-27.28Z" style="fill: #7d9eb1;"/>
          <path d="M1849.94,826.5v-3.7c-10.53-16.32-35.2,3.31-19.11,20.19,9.9,10.39,13.08-.23,16.1-3.79-20.68,8.54-16.84-28,3.01-12.71Z" style="fill: #426279;"/>
          <path d="M1849.94,834.25c-1.21,1.75-2.2,4-3.01,4.95.66-.27,1.67.69,3.01.24v-5.2Z" style="fill: #426279;"/>
        </g>
      </g>
    </g>
    <polygon points="598.18 .02 597.64 11.21 667.33 11.29 665.85 .02 598.18 .02" style="fill: #dae7eb;"/>
    <rect x="612.44" y="11.37" width="44.85" height="22.63" style="fill: #dae7eb;"/>
    <rect x="1205.46" y="11.29" width="22.03" height="22.73" style="fill: #698a9d;"/>
  </g>
  <polyline points="3.52 78.88 101.03 1.17 92.92 1.15" style="fill: #a7beca;"/>
  <polyline points=".04 894.54 .04 926.67 36.29 926.4" style="fill: #7d9eb1;"/>
  <polyline points="1849.94 881.21 1849.94 926.44 1799.48 926.4" style="fill: url(#_未命名漸層_427-3);"/>
</svg>