<?xml version="1.0" encoding="UTF-8"?>
<svg id="_圖層_1" data-name="圖層 1" xmlns="http://www.w3.org/2000/svg" viewBox="0 0 363.8 419.41">
  <path d="M326.58,323.54c7.18-35.09-29.78-58.9-37.12-92.33-42.06-57.92-91.68-108.19-155.37-141.73C90.6,63.74,92.53,14.29,51.3,2.15,14.44-11.43-25.15,43.43,20.57,50.19c3.8,5.76-2.81,9.78,2.07,18.15,7.03,26.49-9.67,56.45,2.54,82.25,13.82,46.03,66.23,63.06,96.01,92.69,21.46,24.57-1.2,55.88-14.81,77.21-24.97,15.15-28.42,54.47,2.02,63.85,3.48,10.46,3.58,33.16,17.66,34.6,46.52-1.27,70.09,11.94,41.43-45.27,11.55-8.63,32.87-22.31,30.37-38.53,12.73-9.37-3.82-30.01,5.05-32.22,7.85-8.56,18.46-8.16,27.24-3.74,4.54.2,12.41-2.87,15.03,1.9,6.82,19.91,16.03,11.27,26.54,25.03,10.98,13.36,26.97,28.2,41.91,46.43,10.31,14.38,26.56,44.4,45.02,23.28,19.59-18.95-22.54-53.49-32.08-72.29ZM187.21,292.6c1.7,4.98-8.26-2.21-12.26-.72.91-5.9,11.78-5.27,12.26.72Z" style="fill: #fff;"/>
  <g>
    <path d="M117.86,319.52c-.22.39-.82.67-1,1l-1.51.98c-.93-1.34,1.48-1.87,2.51-1.98Z" style="fill: #8b8b8d;"/>
    <g>
      <path d="M122.86,315.52c-.45,2.77-1.45,3.77-3,3-.29.66-.63.64-1,0,1.41-2.04,3.23-3.84,4-5,0,.67,0,1.33,0,2Z" style="fill: #8b8b8d;"/>
      <path d="M117.86,323.52l-.5-.97c-.45.39-1.02.63-1.5.97.67-.81.61-2.29,1-3-.44-.3-.11-.64,1-1,.1-.17.66-.52,1-1h1c2.58,1.33.86,5.31-2,5Z" style="fill: #9b8566;"/>
    </g>
    <g>
      <path d="M20.86,16.52c2.06-.9,2.65-4.21,4.68-4.82,3.9-1.18,18.45-.91,22.77-.13,2.92.53,5.92,3.31,7.32,3.87,1.13.45,4.6-.06,5.23,1.08,1.86,1.07,7.97,5.54,4,8-5.35-.26-6.82-5.36-10-7-.97.77-2.54.75-4.7-.06l-7.29.25c.97,2,.29,3.72-2,3.82-2.47,2.28-6.07,1.15-7.57-2.28-1.94.59-4.41.01-7.43-1.72-1.27,2.77-4.07,1.48-5-1Z" style="fill: #998d78;"/>
      <path d="M32.86,87.52c3.65,3.9.17,6.98-.08,10.51-.28,4.02,2.09,9.04,1.08,13.49,3.39.72,4.6-1.33,6.99-3,1.42,3.05.07,6.47.45,9.04.33,2.26,2.03,5.7,2.56,7.96,3.57-.9,2.58,13.75-.35,9.33l-.65.67c-5.7,3.4-6.02-7.33-6.06-11.76-.08-.26-2.18,2.34-2.26,4.39-.19,4.64-.32,19.2,5.56,9.93l2.76.43c.28-.87.62-.86,1,0,2.7.25,2.51,1.07,0,2,1.28,1.64.52,2.93-2.27,3.85-1.32,3.95-2.2,7.76-2.61,11.43l-2.12.72c-2.87-5.9-2.54-6.45-4.03-12.3-.21-.81-1.77-.65-1.95-1.39-1.05-4.38,1.07-12.5,0-16.67-.27-1.04-1.84-.22-2.03-1.15-.48-2.33,1.72-.99,2.03-2.14,1.4-5.22-.67-18.25-.03-24.86.3-3.05,1.46-6.92,2.01-10.49Z" style="fill: #a39172;"/>
      <path d="M17.86,28.52c-.76,2.46-.92,1.13-2,2.99,2.06.59,4.71-1.26,6.35-1.03.62.09.6,1.58.94,1.72,1.22.52,2.59.07,3.43.58.8.48,1.16,3.6,4.26,2.76.33,1.93-2.79.37-2.99,1.99-.19,1.53,2.37,3.86-1,5-.82-.96-3.31-1.53-3.74-2.26-.69-1.18.14-3.03-1.24-4.25-1.14-1-5.42-1.63-7.02-2.49-6.39,2.67-.76-11.2,3-5Z" style="fill: #483c2f;"/>
      <path d="M17.86,28.52c-3.78.04-7.21,2.74-3,5l-3.99,5c-1.07-5.32-1.86-9.78-.01-15,.25.38.8.67,1,1q.36,2.4,0,0c.38-1.02.07-2.22,1.5-2.98,1.27,1.7,4.1,3.37,5.06,5.06.84,1.47-.48,1.65-.56,1.92Z" style="fill: #706253;"/>
      <path d="M138.86,251.52c.85.28.83.62,0,1,.8,3.33,2.28,6.2,4.45,8.62l-.45,1.38c1.26,3.55,1.59,6.55,1,9-.37-.15-2.35-.08-3,0,1.87,8.28-1.65,7.06-1.99,8.69-.81,3.91,1.16,3.44-2.37,6.94-.5.49-1.51.24-1.64.37-1.7-4.1,1.7-5.99,1.94-6.74.55-1.75,1.11-7.89,2.22-9.13.39-.43,1.29-.06,1.85-.13-1.54-6.8-2.29-14.67-4-21l2,1Z" style="fill: #a69984;"/>
      <path d="M30.86,63.52c-.26-1.49.17-3.41,0-5,4.09,2.08,1.95,9.76,6.98,5,.2,3.37-.16,9.37-4.99,7-.45-2.78-1.65-4.99-2-7Z" style="fill: #877a5d;"/>
      <path d="M11.86,24.52c.15.25.95.26.95,1.38l-1.94,7.61c-.24-3.38-.19-5.85.99-9Z" style="fill: #96897a;"/>
    </g>
    <g>
      <path d="M305.86,320.52c2.34,1.06,5.98,3.32,5,0,5.53,7.69,11.91,15.06,17,23,1.05,1.91,2.38,3.58,4,5,.16.23-.16.78,0,1-.49.08-.96.54-1,1-2.44-.3-4.12-.29-6.85.24l-3.15-4.24c-2.25-.11-5.52-5.34-3-7-3.37-2.32-6.84-5.57-8-10-2.69.78-6.27-7.11-4-9Z" style="fill: #493a2f;"/>
      <path d="M331.86,348.52c-2.88-.9-2.97-3.39-4-5,1.49,1.53,2.79,3.24,4,5Z" style="fill: #6d5948;"/>
    </g>
    <path d="M198.86,290.52c-.4.87-.03,2.27-1.5,2.98-1.31-.85-1.31-1.63-1.5-2.98l1.99,1c-.88-2.46.71-4.5,1.01-6v5Z" style="fill: #796f64;"/>
    <path d="M330.86,350.52c-.28,3.01-.17,6.02-1,9-2.45-3.19-6.1-5.99-8-10-1.42-.07-2.49-2.18-1-3,4.76,6.04,6.52-2.15,10,4Z" style="fill: #6d5948;"/>
    <path d="M226.86,173.52c2.98-1.2,4.98.47,6,5,1.63,1.65,3.2,4.03,5,6,1.37.08,2.75,1.61,3,3,1.38,1.57,2.63,3.38,4,5,3.02.33,4.27,3.15,5,6,1.63,2,3.4,4,5,6,2.67,1.8,3.67,3.47,3,5l1.55,1.32c-1.63,1.59-.81,3.81,2.45,6.68,2.76,1.31,4.96,3.67,6.62,7.09l8.78,11.58c1.52-.08,2.72.36,3.6,1.33,4.26,8.55,4.85,11.03,7,20l.07,1.34c1.19,13.07-5.94,11.45-14.07,4.66-.87-.28-.86-.62,0-1-3.12-1.79-4.21-4.56-.25-5.55l.25-1.45c-1.78.3-3.88-.98-3-3-5.92,2.98-16.03-.02-15-8-.33.49-.66.48-1,0-2.5.69-5.48-1.31-4-4-5.29-.71-14.38-2.68-16-8-2.23,1.54-6.99-.14-7-3-4.14-1.08-8.24-2.6-12.29-4.57l-.71-2.43c-1.51,1.36-2.08.75-1-1-4.99-4.39-10.32-8.35-16.01-11.88-.36-3.36,2.7-6.33,4.01-2.12h1c.59.69,1.26,1.02,2,1-1.14-1.41-.58-1.94,1-1,.28-.87.62-.86,1,0,1.77,2.06,2.43,2.4,2,1-2.67-2.1.2-3.3,2-1,.36.45.7.45,1,0-.87-.28-.86-.62,0-1-.48-.97.18-.97,2,0,.26-.87.6-.85,1,0,.13-6.14,4.27-10.11,6-3,4.47,1.72,7.8,4.38,10,8,5.57-.58,10.22.85,13.95,4.31,1.56-1.1,3.17-1.45,4.92-.74-5.25-2.05-8.54-4.91-9.87-8.57-2.07,1.99-4.12.72-3-2-2.31,1.51-2.94.56-2-2-4.44.04-19.02-15.21-11.75-17.9.47-.17,3.85,1.46,4.75,1.9.28-.87.62-.86,1,0,.93.21.93-.46,0-2-4.66-1.09-11.49-5.88-14-10-.38-2.37,1.49-2.62,5.62-.74,2.74-1.05,4.86-1.13,6.38-.26Z" style="fill: #322922;"/>
    <path d="M64.86,24.52c.9.18.87.52,0,1l1.33,4.08c1.84-1.71,6.13,3.33,3.67,4.92-.04,3.19-1.12,7.18-2.69,10.07,1.46,4.19,1.86,8.43-3.71,6.96l-.6.97c-4.07,4.79-11.49,4.73-12.6-2.52-2.44.04-6.37-.16-7.76-3.6l-.64,1.12c-.02,1.7-1,2.58-2,1-5.28.25-9.79-4.57-2-6-1.86-3.41-3.07-5.91,2-7,.25-.88.58-.85,1,0,2.37,1.5,4.04,3.16,5,5,2.29-.45,2.96-.78,2-1-3.53.23-2.39-1.82-1-4,.49-1.9,1.39-1.9,2,0,1.58-1.18,3.24-2.18,5-3,.19-.88.52-.84,1,0,2.98-3.25,5.32-3.59,7-1q1.41,2.32,0,0c-2.67-.31-4.34-2.98-5-8-2.68,1.19-4-.83-2-3-2.19-1.82-2.19-2.82,0-3l1.4-.7c2.95,2.34,5.81,4.9,8.6,7.7Z" style="fill: #a28c68;"/>
    <path d="M202.86,152.52c7.83,2.49,16.58,9.52,20,17,3.34,3.34,2.78,3.93-1.88,4.27-3.16.23-14.11-1.84-14.12-6.27-2.75,1.3-2.78.65-2-2-2.8.83-7.94-2.66-7-6-1.09-1.53-.22-2.66,2.62-3.38.16-2.06.96-3.27,2.38-3.62Z" style="fill: #48362a;"/>
    <path d="M150.86,113.52c1.05,2.49,6.74,4.16,10,5,2.54-3.78,5.2,2.99,2.21,3.22s-.51-1.3.1-.66c.19.2,0,.77-.31,1.44.22.63.22.96,0,1l1,2,.63-.77c2.6,1.76,5.39,3.02,8.37,3.77,4.47-.6,9.04,2.59,10,7,4.26,2.09,4.11,4.69-1,2-5.08.08-14.44-3.61-17-8l-2.15.97c-7.22-5.34-13.98-10.92-20.28-16.73l.43-2.24c1.79-2.95,7.71-1.38,8,2Z" style="fill: #745f50;"/>
    <path d="M206.86,167.52c3.18,2.2,11.67,5.09,15.48,5.03,2.9-.04,1.32-1.79.52-3.03,3-1,4.96,1.01,4,4-2.17-.44-4.81,1.69-6.51,1.61-2.2-.1-2.93-2.92-5.49-.61,1.77,1.76,1.51,2.09-1,2,.35,1.27.15,2.48-.61,3.62,3.44,4.79-.34,6.01-3.72,2.03.06,1.66-1.1,1.98-2.67,1.35-1.78.37-5.57-5.94-5-8l-.9-2.67c1.77-2.03,3.73-3.81,5.9-5.33Z" style="fill: #8f7456;"/>
    <path d="M64.86,25.52c5.46-.51,10.34,5.12,9.87,10.58,5.23,4.26,7.45,10.07,9.44,16.34l-1.3,2.08c1.09,3.53.75,5.87-1,7-1.56,2.65-4.93,1.55-6-1-2.58-.62-1.1-4.02,1.13-4.39-.02-2.2-.56-8.2-.9-3.82l-2.24,1.21c-.38,2.61-1.07,2.45-2,0-3.14-1.44-3.19-5.81-.16-13.1-1.78-2.31-2.39-4.28-1.84-5.9-.45-.6-.57-1.76-1.29-2.68-2.38-3.08-2.48.21-3.71-6.32Z" style="fill: #9b8f7c;"/>
    <path d="M84.86,58.52l2.41.52c3.13,6.34,7.91,11.63,14.33,15.88l-.74,2.59c-3.47.36-8.75-2.06-11-5-.8.83-1.8,1.17-3,1-3.45,1.65-15.12-3.98-7.74-7.18-.07-1.81.84-3.42,2.74-4.82.31-1.59,1.55-2.46,3-3Z" style="fill: #9d8f7a;"/>
    <path d="M123.86,97.52c1.9-2.93,9.86,4.03,9,7,.92.7,3.71,3.95,2.22,3.9-2.23-.07-10.68-1.69-10.22-4.9-2.5.77-3.5.43-3-1l-.38-1.23c-3.42.57-11.78-5.27-5.62-6.77,2.64-.1,5.92.79,8,3Z" style="fill: #615042;"/>
    <path d="M192.86,143.52c4.34-.38,9.68,4.72,10,9-.5,3.85-2.1,4.69-5,7-1.88.91-3.77.23-5.67-2.02-2.43.03-7.43-1.61-7.33-4.98-1.11-2.58.18-3.04,2-1l2.03-1.09c12.81,6.07,8.43,2.13.62-4.17l.36-2.73c.56-.98,1.56-.98,3,0Z" style="fill: #89735f;"/>
    <path d="M100.86,77.52c2.96-2,8.81,2.66,8,6,1.85,3.6-.81,1.72-3,0-.33.71-.67.71-1,0-3.82-.52-4.8-1.44-6-5-1.15,2.42-4.97,1.85-5-1-2.22.85-8.13-5.75-4-5,3.18,1.34,8.16,3.42,11,5Z" style="fill: #594631;"/>
    <path d="M103.86,83.52c6.31,4.81,6.97,4.81,2,0,.77.07,1.65.7,2.52.7l.48-.7c3.75-.94,8.53,3.13,8,7l-.79.84c-2.07-1.37-4.14-1.99-6.21-1.84-.78.4-1.78.4-3,0-1.69,5.25-7.44,1.78-8-2-.87-.28-.86-.62,0-1,2.31-4.4,3.98-5.4,5-3Z" style="fill: #8a7663;"/>
    <path d="M124.86,103.52c3.32.94,6.35,2.99,9.49,4.01l-1.49-3.01c2.51-2.18,11.38,3.71,10,7-.28.83-.67,1.9-1.16,3.22l-7.14-3.88-.7,1.66c-.85,1.93-4.44,1.14-6,0-8.85.61-14.75-8.69-3-9Z" style="fill: #7b654f;"/>
    <path d="M109.86,89.52h1l1,1c2.6-1.2,6.42,2.08,8.5,4.08.1.09-2.08-1.41.5-1.08,2.83-1.47,5.14,1.7,3,4-2.28-.82-4.96-1.38-8-3-2.48,2.08-8.88-2.02-9-5,.37.04.91-.39,3,0Z" style="fill: #9b8b7d;"/>
    <path d="M192.86,143.52c-1,0-2,0-3,0-.19.89-.53.85-1,0-3.25-.66-7.43-1.75-7-6,1.53-.12,3.36.65,2.99-.99l-1.99-1.01c4.88.05,8.74,3.25,10,8Z" style="fill: #94897c;"/>
    <path d="M150.86,113.52c3.35-2.23,9.82.96,10,5-2.42,1.64-7.42-1.61-9.69-2.81-1.07-.56-4.4-2.37-.31-2.19Z" style="fill: #392f25;"/>
    <path d="M116.86,90.52c2.34-2.04,5.24.12,4,3l-.5,2c-2.28-2.58-5.73-3.27-8.5-5l-1-1c-.26-.1-.66.06-1,0,1.8-2.02,4.9-.13,7,1Z" style="fill: #605345;"/>
    <path d="M172.86,128.52c-.62,1.68-7.75-2.14-9-3l-1-2c-.14-.2-.72-.19-.98-.49l.98-.51c3.63-1.15,9.57,2.12,10,6Z" style="fill: #574332;"/>
    <path d="M84.86,58.52v3c-.99-.04-2.02.09-3,0-.05-2.03.66-4.21.25-6.3l.75-.7c2.9-.46,4.19,1.96,2,4Z" style="fill: #7a6b57;"/>
    <path d="M41.86,47.52c1.34-.29,2.42,1.13,3.23,4.26,4.07-5.38,8.92.41,5.74,4.68,4.05.13,6.4,1.15,7.03,3.06,1.23,1.42,2.57,2.76,4,4l.93-.97c-2.08-5.19,2.15-5.2,6.14-3.75-1.31-1.88-1.67-3.64-1.07-5.29.14-3,3.26-2.94,4,0,.64.09,1.59-.17,2,0,3.14-3.39,5.33,2.41,1.47,3.79-.81,1.73-3.14,6.85-1.47,7.21,3.65.02,5.38,10.24,1,10-4.26,2.04-8.93.8-13.7-1.41-2.57.23-4.33-.3-5.3-1.59l-2.04-.73c-.06-6.17-3.6-3.41.16.85l.88,2.89c1.21-.4.5,1.53.52,1.42,1.14-6.33,7.82-.65,3.33,4.47,6.96,8.02-.62,17.8-8.3,7.59-1.21,1.06-2.39,1.23-3.55.52l-2.25-.23c-.08-2.3-1.54-3.63-4.4-3.99-1.55,2.21-4.25,1.75-6.35.22.45-4.54-.31-9.67-1-14,3.4-1.86,3.55-3.35.46-4.47-.8-3.57-1.62-4.42-2.46-2.53l-.8-.66c-1.48-2.53.73-6.04.8-7.34l1.23-1.92c.96-5.73,3.55-7.43,7.77-5.08.09-.24,1.56-.64,2-1Z" style="fill: #a59678;"/>
    <path d="M33.86,84.52l2.99-2,.5,2c4.6-5.73,4.25-1.29,5.15-1.05.67.18,3.06-.76,4.36.06-2.03,2.48-.18,3.88,0,4.99,2.67.41,2.54,1.2,0,2l.07,2.24c-5.32.09-7.36,2.81-6.1,8.15-6.54,6.29-1.23,2.91,1.77-1.49,1.83-5.77,3.58-7.07,5.25-3.91,1.77-6.88,7.67,1.76,8,5l-.75,2.13c-3.55-.49-1.57,8.29,2.21,4l3.13.4c-1.8-1.16-2.22-1.96-.59-3.53,1.54-6.09,7.94-1.46,4,4,2.53,1.41,1.73,3.3-1,4-.28.87-.62.86-1,0-1.64,3.89-3.72,7.41-6.27,10.57l-6.73-.57c-1.37-.21-2.37-.21-3,0,2.35,1.32.39,5.14-2,4-4.32-1.29-4.74-8.62-4.38-12.62-2.51.9-4.77.78-6.8-.34-.74-8.43-.68-16.78.18-25.04.21-1.38.98-2.84,1-3Z" style="fill: #b4a387;"/>
    <path d="M146.86,266.52c1.5.3,1.84,1.97,1,5,2.66-.61,1.81,9.48,1.31,9.7-6.36-.51-8.45,7.96-4.97,13.29l-1.34,2.01c.89.25.86.58,0,1-3.57,5.8-5.87,12.08-6.89,18.82l-1.62,1.44c2.99,7.7-4.14,9.34-9.49,7.74-.7-.22-1.24-.44-1.24-.67-.02-9.66,3.46-17.86,7.24-26.33.71-4.44.38-7.27,4-11,2.62-4.72,4.25-9.78,4.89-15.17l1.11-.83c.66-2.92,1.76-2.51,3,0l1.1-.36c.95,3.93-2.14-4.68-.1-5.64.36-1.67,1.02-1.33,2,1Z" style="fill: #b39d78;"/>
    <path d="M20.86,16.52c2.41-.14,3.7.9,5,1,5.25,1.28,8.3,2.17,2.55,6.36l1.99,1.32c3.75-3.65,6.7-4.87,10.46-1.67,3.63-.71,9.15,8.08,4.06,9.52l-.06,1.48c4.48,5.79-.65,5.15-4,1-.32-.05-.67.04-1,0-1.28,1.27-2.33,2.21-4.18,1.98-1.63,3.82-6.39,3.64-7.82.02-1.96-2.81,2.79-1.57,2.5-1.45-2.13.9-4.35.85-4.8-1.69-1.78.37-3.37-.28-4.53-1.75-5.36,1.53-9.23-1.11-3.17-4.12-1.43-2.1-3.43-3.44-6-4-.85,1.03-1.18.69-1-1,1.65-4.64,5.01-6.71,10-7Z" style="fill: #604e3a;"/>
    <path d="M89.86,192.52c.88.29.87.63,0,1,5.33,3.04,9.01,7.01,11.05,11.91,3.03,1.65,4.63,3.74,4.82,6.28,4.16-.02,7.57.62,11.13,2.81,3.28-.84,5.12.61,5,4,4.51,7.92,4.51,10.92,0,9-2.67-1.9-7.71-3.2-10.53-4.97-8.28-5.19-18.29-12.31-26.47-18.03.28-3.17,2.7-3.27,7.26-.28-2.89-5.44-6.51-9.47-10.85-12.09l-.41-2.63c-3.77,1.78-7.22-4.67-4-7l2.17-.83,10.83,10.83Z" style="fill: #857156;"/>
    <path d="M45.86,143.52c.97,3.86-.14,7.33-3.01,10.17,2,.95,4.07,1.56,6.21,1.85,2.15,3.73,4.41,5.05,6.8,3.98,2.4-1.7,5.73,2.76,4,5,.75.76-1.13,4.96-2.1,6.53l-2.6,1.73c2.37,2.63,2.94,4.88,1.71,6.74-4.71.6-4.83-4.03-7-6.5-6.01-6.86-8.67-7.58-13-16.5.13-1.87,2.73-13.33,3.23-13.83.73-.73,3.13-.6,3.77-2.17,2.53-1.41,4.08.99,2,3Z" style="fill: #927c5c;"/>
    <path d="M59.86,164.52c2.43-1.8,8.26,4.3,7,7l1,1c.24-.84.57-.81,1,0,2.67.54,7.87,6.54,6,9-2.57,3.65-5.13,4.13-7.67,1.43-2.48,4.15-5.92,3.34-10.33-2.43-.14-.26.14-.74,0-1l-5.99-10,4.37.94c3.19-1.01.13-5.45.62-5.94.47-.46,3.45,1.91,3.99,0Z" style="fill: #867051;"/>
    <path d="M132.86,226.52l2.26,2.69c3.98,1.9,7.14,6.05,5.74,10.31.17,1.51-.7,2.3-2.62,2.36,1.89,2.27,3.35,5.86,3.62,8.64-.55,2.43-1.19,2.63-3,1-.25,1.52-.91,1.18-2-1-1.27-4.7-6.02-7.02-7.47-11.03-.68-1.9-.32-5.53-.66-5.9-.28-.31-1.97.2-2.62-.26-.31-.22-1.84-4.08-4.26-5.81h2.5c-1.56-1.92-4.71-6.6-2.5-9,4.63-.08,9.7,3.54,11,8Z" style="fill: #9b805f;"/>
    <path d="M56.86,180.52c4.92,2.26,7.44,7.13,9.01-1l5.5,3.99.49-3.99c.23-.28,2.29,1.58,2.99,2,.59-.56,1.26-.23,2,1,.96,3.52.81,4.43,4,7,4.16,3.11-3.69,8.38-7,7-6.32-4.75-13.31-8.87-17-16Z" style="fill: #a29075;"/>
    <path d="M80.86,189.52c1.7,1.37,4.79,2.15,6.43,4.07,2.13,2.49,3.94,8.88,7.56,9.95-2.8,6.53-5.89-1.42-9.99.98-3.7-2.59-7.39-5.29-11-8,2-2.9,6.77-2.57,7-7Z" style="fill: #998468;"/>
    <path d="M130.86,298.52c-.44,2.79-.48,6.13-1.01,9.01l-1.98-1.01-3.01,19.01c.97,1.76-1.03,3.43-6,5,.87.28.86.62,0,1,.44,2.57-.15,2.83-2,1-2.05,1.79-2.71,1.46-2-1-2.35-2.07.4-6.85,3-7l2.56-1.04c.3-2.86,1.12-5.51,2.44-7.96-.62-.38-.62-1.04,0-2,1.55-2.33,1.94-4.02,3-6,1.65-3.08,2.91-6.91,5-9Z" style="fill: #9b8566;"/>
    <path d="M39.86,35.52l-1.99,3.49c2.04,2.86,6.18-.4,4.99,4.51-2.16.15-2.71-.98-5-.99l-3.31.81c.85,4.59-2.37,7.56-5.69,3.19-.45-1-1.46-3.37-2-4-.97-2.43-.63-4.1,1-5l5.99,1-1.99-2.99c2.55.22,5.53-.34,8,0Z" style="fill: #796244;"/>
    <path d="M37.86,42.52c-7.16,3.03-.12,2.39,2,6-.25.65.18,2.11,0,3l-3.49-2.98c-2.79,2.43.18,7.72-5.5,6.98.24-4.37-.35-5.33-2-9,5.47,1.32,4.23-2.97,5.15-3.86.49-.48,2.84-.14,3.85-.14Z" style="fill: #907b53;"/>
    <path d="M261.86,217.52c-2.43-1.43-.05.15-1.5,1l-20.5-22.5c.96-1.6,2.23.3,3.01.99,3.78,3.32,6.67,8.21,11.08,11.92.63.53,4.77,4.49,3.9.6.91-1.62,2.87-.57,3,1,.08.31-.08.69,0,1,.76,2.96,2.92,4.29,2.99,7-.17.2-1.56-.74-1.99-1Z" style="fill: #5e5145;"/>
    <path d="M117.86,323.52c.87.34.87.67,0,1-1.12,2.49-1.64,4.58-3,7,.23,1.78-2.41,7.35-5,6l-1.79-.3c-1.39,2.67-7,8.2-6.21,2.3-.41-.54-.08-1.21,1-2,.1-.29-.08-.69,0-1,.12-.61.31-1,1-1,3.54-1.32,2-1.95,4-4s4.02-4,6-6c.74-.74.81-1.17,2-2,1.73-2.76,2.61-3.58,2,0Z" style="fill: #5c4635;"/>
    <path d="M228.86,280.52c2.36-.79,4.8.76,5,3-.32.06-.69-.07-1,0-1.81,5.21-3.81,6.54-6,4-2.44-2.1-2.15-3.05-3-4-2.7-4.15,1.09-6.85,5-3Z" style="fill: #6d6255;"/>
    <path d="M142.86,297.52c.91.3,1.64.82,2.15,1.63.42.67-1.28,13.14-3.15,14.37-.13,1.85.05,2.98,0,4-.24,4.77-1.22,5.33-5,8-3.78.86-6.74,2.57-8.89,5.11-2.84,1.2-5.88,1.17-9.11-.11v-4c4.5,1.92,4.5-.34,6-1,1.78-.78,3.44-2.02,3.67-2.05,1.31-.14,2.84,1.62,3.86.1,2.41-3.85-3.55-9.01,2.37-8.1-.83-5.94,1.79-9.98,4.62-14.93.92-1.6.97-3.13,3.48-3.02Z" style="fill: #a2875e;"/>
    <path d="M116.86,332.52c-.27,6.04-3.82,12.66-7.69,17.98-.16.21-.68.16-1.31.02-.11.14-1.6-.6-2,.69-1.27,4.07,1.17,10.33-5,10.31-.08-.31.07-.68,0-1-.31-1.32-.75-2.79-1-4,.07-4.06,1.4-7.06,4-9,1.59-3.09,4.11-6.93,6-10,.74-1.21,3.74-3.75,5-6l2,1Z" style="fill: #7c5b3a;"/>
    <path d="M147.86,292.52c1.45-3.88,3.44-1.09,4.13,2.24,6.63,4.01.34,8.26-5.1,9.37,2.58-.1,4.23.7,4.96,2.39-1.94,1.59-2.42,2.69-5,4-1.28.65-4.22-.18-5,3,.34-4.71,1.69-10.54,1-16-.04-.33.04-.67,0-1l-.55-2.04c2.23.11,4.08-.54,5.55-1.96Z" style="fill: #6f5437;"/>
    <path d="M118.86,331.52c7.66-3.34,7.07,5.07,1,5,.35,1.28,1.02,2.28,2,3,.28-.87.62-.86,1,0-2.24,2.18-4.24,4.43-7,6-1.53-.89-3.87,4.04-4.53,6.13l-1.47-.13c-.68-.31-1.32-.7-2-1,.36-.46,5.17-9.24,5.54-10.05.99-2.12-1.01-4.75,3.46-7.95.41-.3,1.58-.92,2-1Z" style="fill: #5a3e25;"/>
    <path d="M136.86,325.52c-2.57,1.81-6.11,2.56-6.86,3.13-.26.2-.41,3.47-2.14,5.87-1.1,1.53-3.53,3.56-5,5h-1c-1.11-.35-1.77-1.35-2-3,.14-.27,3.6-4.49,3-4.99-1.27.13-2.82-.23-4,0v-1c6.36.18,11.88-3.9,18-5Z" style="fill: #7b5634;"/>
    <path d="M124.86,407.52c-1.04-.28-.85-1.18-1-2l1,2Z" style="fill: #7c7c7f;"/>
    <path d="M172.86,339.52l3-3c-.18.11-2.39,2.4-3,3Z" style="fill: #969597;"/>
    <path d="M170.86,341.52c-1.57-.63-.18-1.58,1-2-.19.17-.93,1.67-1,2Z" style="fill: #969597;"/>
    <path d="M151.86,306.52c.12-6.83,6.06-6.62,6,1,1.26,1.06,3.6,1.64,4,2,.9.8,5.81,5.62,6,6,1.02.02,2.02.36,3,1,.04,1.17-.39,2.81.22,3.77.75,1.18,7.36,3.85,6.77,7.23-2.03-.54-4.01-4.4-5.5-4.99-2.73-1.08-.03,4.21-3.48,2.99,1.76-5.3-6.38-1.8-7.85-4.19-.48-.77.19-2.5-.43-3.53-.16-.26-3.91-3.84-4.35-4.15-2.75-1.95-5.88-3.39-9.37-3.14-.47-2.14,1.2-3.47,5-4Z" style="fill: #5d422c;"/>
    <path d="M109.86,351.52l4.97-8.54,2.03-.46c-.55.93-.64,2.02-1,2.99-1.15,3.09-2.45,3.19-3.38,5-.72,1.4,2.12,3.16-2.62,1Z" style="fill: #785e48;"/>
    <path d="M167.86,315.52l2.99-.99c.03.66-.02,1.33,0,1.99-3.73,5.59-2.38.26-3-1Z" style="fill: #826d5d;"/>
    <path d="M150.86,313.52v1.99s-2.99,0-2.99,0c-.49-.39,1.75-2.64,2.99-1.99Z" style="fill: #554332;"/>
    <path d="M127.86,353.52c1.3-1.76.28-6.05,5.47-5.05.57.1,1.14,4.64,3.53,5.63.91.38,3.84-3.05,3.97-.08.04.78-3.03,2.57-1.16,7.09.75,1.82,2.29,1.78,2.99,3.07,1.12,2.09.69,4.69,1.46,6.58,2.91,7.17,8.68,9.69,4.74,19.77-3.56.41-8.04,4.3-11.09.56-1.87-2.29.72-4.67-5.91-3.56-.83-3.19,3.07-2.08,3.54-2.9,1.36-2.39-1.4-7.01-.55-10.11-1.08.15-2.41-.24-3.37-.01-1.13.27.01,2.45-1.62,2.02-.56-3.17,2.16-4.51,3.97-6.5-5.95-4.37-.67-4.7-.21-7.11.07-.37-.53-7.11-.77-7.39-.63-.73-5.87,1.79-5-1.99Z" style="fill: #6d5846;"/>
    <path d="M127.86,353.52c8.69-1.54,9.73,7.75,5.36,13.31,2.09,1.76,2.88,3.31,1.04,5.59,2.32,2.38,3.49,5.81,3.52,10.29-.48,7.49,2.32,9.83,9.31,6.14l1.78,1.67c-.24.62-1.28,1.76-1.01,1.99,5.72-.36,2.64,3.35,3.04,3.9.14.2,3.12.9,4.49,2.09,3.75,3.25,4.16,5.69.48,9.01l6,1.01h-24c-2.62-3.22-8.01-8.21,0-8.5-1.32-3.09-6.7-3.24-6.96-3.55-.43-.5.62-4.02.28-5.76-.5-2.6-2.65-4.27-3.16-6.68-.37-1.73.95-4.63.81-5.9-.05-.45-4.52-2.34-3.01-7.92.23-.85,4.39-1.65,2.62-5.25-1.21-2.45-5.37-1.88-4.62-6.9.44-2.95,3.05-3.24,4.03-4.56Z" style="fill: #674d3b;"/>
    <path d="M150.32,357.52c-.18-.87-.08-2.44.55-3-3.95-.02-1.45-.73,0-2-1.53-.12-3.36.65-2.99-.99.88.16,1.38-.73,1.99-1.01-7.69-1.49-3.93-10.31-8.27-14.73-3.71-3.78-8.02-.97-11.65,1.31-7.46,4.69-10.98,9.42-13,18.01-.63,2.68,1.34.1,2.41,1.3,1.24,1.39,1.28,4.18,2.08,6.02.61,1.4,3.14,2.23,2.4,4.52-.53,1.65-3.91-.04-2.92,5.97.83,5.03,5.6,20.21,7.4,25.63,1.15,3.46,5.99,5.62,3.54,9.96h6c.88-1.71.15-3.76-2.19-6.17,6.7-1.85,2.55-6.81-2.74-7.46l.19-4.57c-2.9-3.99-3.71-6.9-2.41-12.22-1.72-1.43-5.3-6.31-1.69-7.83,3.18-4.36.53-7.63-3.25-10.44,0,0,.69-2.1,2.08-6.3,1.39-.33,2.78-1.41,4.18-3.23.85,2.63,2.28,5.74,5.46,5.66-1.14,3.73.16,7.21,3.45,9.21l1.3,6.29c4.65,5.83,6.38,11.53,5.2,17.09l1.41,1.98c-2.88,1.34-3.18,3.15.26,3.97l.57,3.07c6.37,2.3,8.03,5.75,4.97,10.37l7.21.59h9c-10.85-15.11-13.57-34.06-20.55-51Z" style="fill: #524537;"/>
    <path d="M170.17,301.86c-3.42.77-10.22,3.69-8.31,7.66-1.61,2.46,4.02,8.22,6,6,.54.82,1.54,1.15,3,1-1.05,3.57-2.2,4.88-3.47,3.93l-4.24-.19c-1.27-6.36-9.99-13.68-16.29-9.73-2.4-3.74-4.5-.51-5,3-2.62,1.26-3.03,3.68,0,4l.79,2.15c8.15-1.66,13.48.62,15.98,6.83,4.49,2.94,4.6,4.47.33,4.62-1.38,4.63-2.97,4.53-4.77-.32l-3.71.65c-5.92-7.59-18.06-5.51-22.62,3.07-2.97-.86-5.83,2.06-5,5-3.77.72-6.11,2.72-7,6-2.01,1.68-4.01,3.68-6,6,.39-2.68-.07-2.91-2-1-3.54-5.45-4.61,4.36-4.82,7.88l-2.18,3.12c-3.13,1.05-1.64,4.58-.4,6.83,2.85,5.17,9.37,6.72,14.79,5.73l5.79,25.9,2.83,3.55c.13.6-.11,1.38,0,2l1,2v1h7c2.93-.07,3.19-1.96.78-5.68-2.36-3.63-11.17-30.38-9.8-32.84,4.74-2.19,3.4-5.26-.02-8.18-.13-3.59-1.25-6.09-3.35-7.51,1.66-11.43,23.01-29.72,23.56-7.58,1.52,3.49,3.09,6.24,6.84,3.8,0,0,0,0,0,0,0,0,0,0,.01,0,1.12-.52,2.74-1.02,4-.99-.27,1.56-2.02,2.14-3,2.99,0,0-.01,0-.02,0,0,0,0,0,0,0-6.11.34-2.69,6.2,0,2,1.87,2.65,3.94.65,5.64-1.34,8.31-14.24,12.02-2.5,5.08,6.84-.96,5.58,6.05,3.84,5.28-.49,3.77-.4,7.24-7.4,4.54-10.68l-.54-5.32c.06-.65-.12-1.43,0-2-.36-.69-.03-1.36,1-2,.18-.17.83.17,1,0l3-3c.14-.08.67,0,1,0,1.88-2.37,3.21-2.7,4-1,.09,1.98.02,4.01,0,6l-1,4c.05.33-.03.67,0,1-1.16-.51-1.39-.14-1,1,0,.33.03.67,0,1-.55.37-.56.7,0,1,1.24-.98,2.68-2.28,4-3,5-3.37,4.12-9.96,3.28-15.33,14.28-11.38-.09-32.93-15.97-29.33ZM115.86,369.51c-3.54.43-8.7-.77-8.93-4.91l4.42-3.08c1.61,2.57,4.86,4.7,4.51,7.99Z" style="fill: #3a3028;"/>
    <path d="M155.86,394.51c-1.48,1.5-2.52-1.62-2.99-2.99,1.66-.74,3.87,2.1,2.99,2.99Z" style="fill: #674d3b;"/>
    <path d="M156.86,180.52c.87.28.86.62,0,1,2.16,1.22,2.77,1.97,1.85,2.25,2.98-.36,7.77,1.7,7.15,4.75l2.16-.33c.66,2.19,2.92,5.05,4.84,3.33l-3-3c-.87-.33-.87-.66,0-1-1.33-4.87,8.35-1.08,9.36,1.77-.55.91-.67,1.99-.36,3.23.92-.25,1.25.09,1,1l2,1c1.3-1.62,2.5-1.02,2,1l3.08.65c.36-2.14,2.11-1.5,3.92-.65,4.06-.12,8.17.1,12.34.66,3.16-2.23,8.84,3.67,8.66,7.34,1.64-.44,2.2,1.63,2,3-.53.07-1.54.11-2,0-2.92-.37-4.92-.03-6,1,0,.07-.77.78-1,1-.35.45-1.02.11-2-1h-1c-.61-1.28-1.44-2.61-2.3-3.71-3.54-4.49.92.3,1.17.93.72,1.79-4.4,5.68-7.31,4.28.97,2.01.75,3.14-1.56,3.49-.96,1.48-3.29,1.15-7-1-.35,2.36-2.35,3.03-6,2,.61.86.61,1.52,0,2,.6,1.82.64,2.17-1,1,.33.85,0,1.85-1,3-1.96-1.52-.13-4.65-1.96-6.54-1.6-1.63-4.85-.8-7.04-2.46,1.61-1.9,3.61-3.23,6-4-1.2-1.17-1.01-2.69.56-4.54-3.99-1.1-6.18-2.92-6.56-5.46-2.18.67-4.64-.52-7.39-3.58-5.02,1.46-7.89.65-8.61-2.42-2.07,1.45-3.46.82-1.81-1.32l-1.19-1.68c-3.12.68-4.4-1.96-2-4-.27-6.19,6.27-.78,5.67.04-.14.18-3.55-2.57-.67-3.04-.25-3.75,4.87-2.72,5,0Z" style="fill: #664a34;"/>
    <path d="M191.86,212.52c-.21-.46.42-1.91-.19-2.76l-8.8-4.23c6.11-1.51,10.42,3.47,15.99.98.93-3.08-3.98-2.64-4.01-3.5-.21-1.54,2.88-4.27,3.99-3.48.33,2.57,2.44,4.64,5.01,5.01,1.01,1.17-1.24,2.76-1.99,2.98-.83.25-2.72-.6-3,.5,5.58,4.88,12.47,5.43,15,13.5l-1.6,1.55c-11.62-4.11-4.63,4.46,2.6-.55,4.55,1.81,9.42,3.49,13,7-3.09,3.21,2.01,3.88,4.93,2.58l2.07.42c4.9,2.53,11.69,5.49,16,8-1.13,2.06-3.4,3.18-5,1,.24,1.45-.1,2.45-1,3,.83.29.82.62,0,1-2.68,1.43-6.02.1-10-4-11.4-3.4-22.4-8.4-33-15-2,2.11-4.98-.37-5-3-.19.88-.53.84-1,0-7.96-.86-13.63-4.19-17-10,.13-.55-.16-1.35.02-2,2.43,1.08,3.84.27,5.98,0,5,2.83,7.34,3.17,7,1Z" style="fill: #5a402e;"/>
    <path d="M207.86,189.52c.27-2.63,2.22-4.57,5.85-5.83l.84-1.12c-2.71-6.96,1.35-2.08,3.77,1.04.07.09-1.62-1.33.53-1.09.18-.89.52-.86,1,0l2,1c2.04-2.25,6.11.46,6,3l-3.99-1.01c-.2,1.55-.9,2.19-.49,3.9.56,2.33,9.11,11.02,11.48,13.1.04,3.22-2.26,3.18-6.89-.12l-2.63-1.66c2.74,4.74-.65,6.53-4.47,2.78-.98-.36-3.75-2.18-3.99-2-.32,1.46-.6,4.33-2.01,5-1.24-1.28-1.88-3.25-1.92-5.9l-6.61-7.83.52-1.28c-2.44-1.4-1.68-2.54,1-2Z" style="fill: #5a412d;"/>
    <path d="M244.86,245.52c6.53,1.95,12.53,5.41,18,10.37,3.49-3.24,8.83,3.48,11,6.63v1c-.93-.09-2.15.55-3,1-.32-.07-.67.05-1,0l-1-1c-.32-.02-.77-.07-1,0-2.66.78-7.37-1.56-8-4-2.52-1.37-6.05-4.22-8.51-5.98-.77.42.15,1.35.51,1.98l-2.25.2c-2.64-.41-11.22-3.19-10.75-6.2-3.06.75-5.62-1.59-3-4,.13-1.18-.2-2.52-1-4,3.29,1.66,7.64,2.77,10,4Z" style="fill: #8e755a;"/>
    <path d="M255.86,244.52c1.97.5,1.73,3.33,3.6,4.9,4.4,3.67,8.28,1.49,11.4,3.1-.71,1.3.29,2.3,3,3,.36.4,2.03.98,1.98,1.5-.1,1.01-4.94.87-1.98,5.5-3.46-.54-5.92-4.41-8.51-5.99s.64,3.41-1.97,1.98c-6.12-3.34-11.31-9.23-18.52-12.99v-1l.68-1.02c2.89,2.49,7.28,3.71,10.32,1.02Z" style="fill: #584131;"/>
    <path d="M239.86,206.52c4.29,3.2,9.9,6.13,14.5,9l10.5,10.99c-7.31-1.37-10.9-9.34-17.99-10l-.5,3c-2.46-1.64-6.22-5.24-8.77-6.23-2.28-.88-4.11-.7-6.73-1.77.45-.52,1.11-.52,2,0,.25-1.56,1.56-2.31,3.93-2.28.73-1.8,1.75-2.71,3.07-2.72Z" style="fill: #54453a;"/>
    <path d="M220.86,203.52c.09.03.29-.26,1.95.41,4.82,1.95-.23-3.21-.78-4.08-.65-1.04-3.67-5.75-3.16-6.33,2.48,2.43,5.51,4.03,8.25,6.04,2.36,1.73,2.41,1.06,2.56,1.16,1.36,1.01.4,4.22,5.19,1.8.7.61,1.27,1.4,2,2,3.04,2.67-2.67,4.86-5.45,5.41-2.15.43,2.11-4.06,1.45,1.59-.67,0-1.33,0-2,0-3.7-1.51-7.83-4.63-10-8Z" style="fill: #82694e;"/>
    <path d="M228.86,184.52c.96,1.12.96,1.79,0,2h-1c-1.43-1.65-3.91-2.09-6-3l-2-1c-.33,0-.67,0-1,0-1.79-.52-6.74-4.24-5-6,.32-.52.19-1.27,1-2,5.51,1.84,9.74,6.22,14,10Z" style="fill: #a39280;"/>
    <path d="M232.86,211.52l-3-1.99,1.99-1-4.97-3.51c1.91-2.62,1.72-.57,3.04-.07,2.54.97,5.02,3.54,6.94-.43.91.75,2.05,1.29,3,2-.75,5.15-2.51,5.04-7,5Z" style="fill: #958067;"/>
    <path d="M213.86,221.52c.21.08.53.81,1,1,.86,2.36-4.57,3.72-5.77,3.85-4.04.45-7.39-5.47-2.53-6.7,1.2-.3,5.74,1.29,7.3,1.85Z" style="fill: #b09b84;"/>
    <path d="M227.86,229.52c2.57.4,4.76,1.84,7,3-1.96,4.59-13.28,1.24-10.99-3,.09-.18,3.79-.03,3.99,0Z" style="fill: #ad9780;"/>
    <path d="M250.86,240.52c.78.46,3.13,3.09,4,4-1.39,3.65-12.54-.25-9-3,1.61-.64,2.71-1.65,5-1Z" style="fill: #ab937a;"/>
    <path d="M228.86,184.52c3.16,2.81,6.61,5.42,9,8.99-1.75.02-8.75-6.4-9-6.99-.18-.44.12-1.39,0-2Z" style="fill: #6b6358;"/>
    <path d="M211.86,206.52v1c-.3.55-.64.53-1,0-.74.08-2.08,0-2,1-.44.77-1.11.43-2-1h-1c-.02-.55-1.55-1.6-1-2.99,2.8-.88,5,1.53,7,1.99Z" style="fill: #897057;"/>
    <path d="M270.86,252.52c1.84.95,1.91,1.78,3,3l-.58.77-5.42-.78c.8-1.66.87-3.58,3-2.99Z" style="fill: #99816a;"/>
    <path d="M208.86,208.52c4.82,3.41-.12,4.79-2-1,.63.36,1.41.58,2,1Z" style="fill: #5a402e;"/>
    <path d="M254.86,244.52c.28-.03.74-.07,1,0-1.85,4.01-7.64,1.08-11,0l-2-1.99c1.12.03,2.02-.63,3-1.01-.25,2.98,4.06,3.99,6.58,4.06,1.44.04,2.2-1.04,2.42-1.06Z" style="fill: #8e755a;"/>
    <path d="M204.86,208.52c-.14.14-.05,1.02-.49.98l-1.51-1.98,2,1Z" style="fill: #5a402e;"/>
    <path d="M210.86,207.52h1l-.49.93c-.22-.02-.4-.94-.51-.93Z" style="fill: #5a402e;"/>
    <path d="M62.86,52.52c1.74-1.58,4.55-2.12,5,1,2.19,2.55,3.69,4.33,2.99,8l-6.99-1.99v5c-.31.27-1.46-.86-2-1-1.84-.99-3.18-2.33-4-4-2.17-.64-7.42.2-8.82-2.16s3.68-3.22.32-6.84c-3.33,2.27-1.43,4.73-1.74,7.29-.13,1.06-1.24,2.06-1.31,3.17-.15,2.45,1.27,6.13.58,8.87-.41,1.64-5.61,2.89-5.07-1.81.28-2.49,8.94-10.46-2.95-4.53,1.21-3.72-3.33-5.42-3.07-8.47.56-6.64,9.28,5.07,11.06,3.46-1.45-3.13-1.9-5.98-6-6,.21-2.71,2.23-2.32,1-4.99-.45-.97-1.26-1.75-2-2.5,2.03-1.78,3.91,1.33,5.76,2.24,1.3.64,3.35.42,4.67,1.33,1.84,1.26,1.38,4.17,3.2,4.83,2.37.85,6.45-.88,9.37-.89Z" style="fill: #b8a580;"/>
    <path d="M69.86,34.52c1.07,1.42,3.21,3.1,3.69,4.67.9,2.94-2.69,7.83-.7,11.33l-1.98-1.99.99,5c-2.12-.31-2.71.08-4,0-1.78-.1-3.75-1-5-1l-3-1.99h6c.93-2.33-1.15-5.97-1.03-7.44.05-.61,1.56-.52,1.77-.84.25-.36-.18-6.45,3.25-7.74Z" style="fill: #89795c;"/>
    <path d="M47.86,39.52c5.92-2.27,6.16.97,8.32.82,1.86-.14,5.16-3.12,7.67-2.81l-3.99,2.01c-.31,1.96,2.37.5,3,1.01.7.56-2.25,7.6-1.01,8.97-3.5.75-5.93-3.07-8.52-3.98-3.05-1.07,1.15,4.4-1.97,2.98-1.06-.48-2.37-2.71-3.51-3.5,2.63-.82,2.11-1.84,2-4.49-1.27-.18-2.84.23-4,0-1.25-1.92.82-2.9,2-1Z" style="fill: #b59f75;"/>
    <path d="M46.86,35.52l1,4c-.67.26-1.57.08-2,1-3.07-.62-2.9-2.61-5-5,1.7.28,2.97,2.43,5,2l-1-3c.27.15,1.89.97,2,1Z" style="fill: #796244;"/>
    <path d="M61.86,31.52c.27.39,3.87.31,3,2.99h-4.99s1.99-2.99,1.99-2.99Z" style="fill: #806d4e;"/>
    <path d="M40.86,21.52c.05.33-.04.67,0,1,.04.36-.1.79,0,1-4.77-3.14-8.05,4.18-11.47,4.06-.52-.02-.52-1.51-.77-1.64-.99-.49-3.47.78-2.8-2.9.13-.73,4.01-1.63,4.04-3.52l-4-2.01c1.51.12,2.8.75,4.51.55,1.41-.17,4.29-1.69,4.48-1.55.36.27,1.57,7.8,6.02,5Z" style="fill: #826848;"/>
    <path d="M184.86,152.52c2.48.81,3.79,1.96,5.5,4l.98-2.01c2.38,1.42,4.34,3.34,6.52,5.01,2.42,1.86,4.74,4.3,7,6,1.87,3.14.03,5.6-3.48,3.87-.25,1.39-.92,2.03-2.52,2.13-1.63-.23-2.19-1.36-2-3-2.58.59-2.91-.41-1-3-3.81.51-6.93-3.05-8.6-6.21-3.95,1.23-5.75-.7-5.4-5.79-6.61-1.6,2.51-7.49,3-1Z" style="fill: #cbbba6;"/>
    <path d="M198.86,171.52l1.01-6c3.2,1.65,3.41,5.4,4.99,0,.92.69,1.65,1.76,2,2v6s-2.99-2-2.99-2l-2.01,4c-1.61.91-3.73-2.35-3-4Z" style="fill: #b0987b;"/>
    <path d="M181.86,137.52c1.97,1.3,5.15,4.27,7,6-1.92,2.62-2.32,3.92-.08,6.53-.28.92-.93,1.39-1.92,1.47l-2,1c-1.28-.42-2.34-1.43-4-.99-.39.26.93,1.43,1,1.99,2.26,5.31,1.59,7.97-2,8-.48,1.16-1.24,2.07-2.28,2.74-1.13,5.64-3.37,6.26-8.72,5.26-1.21,2.18-4.42.2-3-2-6.52-2.3-7.51-8.91,1-6l2-3c.44-.71,1.12-1.51,1.83-1.36,10.23,2.27,8.93-2.49.86-6.09l-.69-2.55c8.61-3.05.05-10.85-5-14,.16,1.99-.5,2.32-2,1-1.44.62-2.3-1.01-1-2-.36-2.58.31-3.91,2-4,5.42,2.23,11.44,4.33,17,8Z" style="fill: #6a503b;"/>
    <path d="M133.86,112.52l-3.99-4.99c4.48-.07,7.77,3.98,11.51,5.97.5-1.8-1.82-2.33,1.49-1.98,3.04,2.47,5.78,5.46,9.99,6.01l-4.5.99c3.31,3.4,7.72,4.48,11.42,6.58,1.58.89,3.7,3.84,5.09,4.41-1.22,2.02,1.43,4.41-2,4l-1.02.6c-4.58-2.73-8.24-6.6-10.98-11.6-5.44-2.83-11.03-5.67-16.75-8.53l-.25-1.47Z" style="fill: #4f3b2c;"/>
    <path d="M163.86,125.52c-.73-.5-1.03-1.11-1-2,.35.51,1.26.83,1,2Z" style="fill: #6a503b;"/>
    <path d="M206.86,183.52c0-.08.82-.57.75-1.35-.14-1.61-2.22-3.09-.74-5.65l6.98,7c.47-2.01-1.99-2.73-2.04-4.52s1.8-2.08,2.05-2.48l5,6-.5,2-4.5-5,2.99,5.99c-4.68-2.7-2.29,3.67-6.99,1.01l1.98,6-3.16-3.91c-.46.06-.7.92-.83.92-1.76,1.41-2.35.81-1-1,.14-1.1-.12-2.15-.87-4.1l.87-.9Z" style="fill: #73553d;"/>
    <path d="M198.86,171.52c.95,1.38,1.73,2.87,3,4l5,8c.15,1.51,1.14,2.9,1,4.49-.12.53-.56.52-1,.51-.2-.3-.75-1.48-1-2-1.21-1.02-1.7-2.52-2-4-3.96-.8-6.75-5.1-6-9-.9-.26-.88-.6,0-1l-1-1c-2.92.46-3.16-.99-1-3,.28-.87.62-.86,1,0,.68.99,1.32,2.01,2,3Z" style="fill: #593e23;"/>
    <path d="M81.86,61.52c.01.44,1.17,1.55,1.04,2.4-.11.72-1.86.42-1.98,1.24-.08.58.92,1.84.53,2.42-.92,1.34-3.79.05-3.58,1.93,2.71.54,6.96,2.28,8.99,4.01,1.23-1.32,5.01,3.41,5,5,3.02-.27,4.93.74,2.99,3.68l1.01,2.32c2.22-2,3.87-.72,3,2v1c-1.42,1.28-4.54,1.01-5-1-1.61-.66-4.41-1.14-5.28.4l-.72-1.4c-3.62,1.32-5.94.1-6.96-3.66-3.51-1.19-9.28-3.36-6.04-7.34,1.74-4.32-.2-6.03-1-10-1.49-1.27-.06-4.68,2-4,2.1-.38,4.13.82,6,1Z" style="fill: #bbab8f;"/>
    <path d="M73.86,53.52c.68-3.15.02-4.35,2.02-6.99,1.27.06,2.64,3.9,2.8,4.75.5,2.72-.64,4.67-.83,7.25l-1.98-1.01c-.19.89.25,2.37,0,3.01-.17.43-1.73,3.53-2,4-.59,1.01-1.6,3.28-3.01,1.49.79-2.42,2.06-6.61,3.08-8.72.36-.74,4.68-1.79-.07-3.76Z" style="fill: #89795c;"/>
    <path d="M89.86,72.52l-.98.49,4.98,4.51c1.95,2.37.47,3.55-2,1-3.06-2.29-3.3-3.56-5-5,1.43-3.23,1.8-1.51,3-1Z" style="fill: #80694d;"/>
    <path d="M93.86,86.52c1.51.1,3.65.4,5,1,1.57.69,3.21,3.88,6.01,2.99l-1.02-1.98c1.17-.38,2.36.92,3.01.99,3.24,1.14,6.09,3.44,9,5-2.53,3.22,5.46,4.02,6.98,7.51l-.98.49c-1.1,2.51-1.82,2.47-3,0-3.58-.67-4.91,0-4,2,.98.98,1.65,1.98,2,3,1.72-.02,2.19.72,1,2,.41.89.41,1.56,0,2-2.12,2.63-4.93,1.01-5-2-4.98-1.35-9.79-3.58-14.44-6.68-.06-3.29-5.61-1.79-6.84.92-1.7-.06-2.94.19-3.71.76,1.42.78,3.49,1.57,6.2,2.39,2.16-5.84,5.55-2.34,7.8,1.61,2.52-1.33,3.33-.54,2,2,3.42,1.3,5.03,2.83,7.21,5.83,1.94-2.72,4.87-2.18,8.8,1.63,1.41-.39,2.74.12,4,1.54,2.39-1.19,8.62,2.13,8,5,4.91-3.08,10.16,4.23,2.84,5.47.58,3.76-2.07,3.31-4.84,2.53-.17,1.62-1.17,1.28-3-1l-10.56-4.11c.41,2.34.63,4.25-.44,6.11-2.18,2.03-3.89.75-3-2-3.08-1.44-6.41-3.11-10-5-2.38,3.11-1.46-.54-1.29-.53,1.39.07.49,5.59-.71,6.53-3.42,2.78-5.59-2.58-6-6-1.26.83-2.21.62-3.21-.16.58,4.87-5.79,4.63-6.53.86-1.67-1.12-3.42-2.02-5.26-2.7-2.84-.35-2.9-3.48,0-4-1.86-1.21-1.33-2.62,1.6-4.23-4.5-3.61-5.77-9.12,1.6-6.88l8.56,4.32c-2.37-3.55-5.36-5.2-8.96-4.97-1.56-6.6-5.55-4.86-10.45-2.29l-2.35-.94c-2.11-.15-3.72-3.66-.85-4.83l7.85-1.17c-3.67-6.43,7.65-4.16,11.49-2.18l.51-.82c.28-1.74,1.61-1.74,4,0l1.64-2.17c4.21.08,4.25-1.78,3.36-4.83-.63,1.94-7.17,2.36-8,0-5.54-1.81-.68-5.05,4-3Z" style="fill: #46362a;"/>
    <path d="M118.86,102.52c.97.01,2.11-.13,3,0,.18.03,2.16.76,3,1l-4.02,2.02,1.02,1.98-2.98-.5c2.3,2.75,5.37,4.89,8.98,5.51-3.33,2.91-5.81,2.81-9-1-.66-.32-.99-.99-1-2-.29-.68-.76-1.3-1-2-.7-.79-1.36-1.79-2-3-4.27-2.75.96-2.28,4-2Z" style="fill: #a1896f;"/>
    <path d="M188.86,143.52c.33-.02.67,0,1,0,2.75,4.2,10.01,6.31,10,11.99-1.64,1.57-11.16-2.62-13-3.99-.15-.11.27-1.04-.01-1.35-.61-.67-1.95-.64-2.02-1.3-.17-1.47,1.44-3.5.03-5.35,1.32-.07,2.68.07,4,0Z" style="fill: #4d392f;"/>
    <path d="M95.86,84.52c-1.81-.64-4.54.16-6.93-1.57-.32-.23-4.9-5.58-5.06-5.94-.51-1.17.4-2.06,1.48-1.48.99.53,1.49,2.56,2.58,3.42,3.52,2.78,9.31,3.61,3.93-.43,1.06.39,1.89-1,2-1,.5,0,4.53.82,5,1,4.43,3.85,1.92,5.34-3,6Z" style="fill: #9c866a;"/>
    <path d="M104.86,83.52h-1c-.66.04-1.34-.04-2,0l2,2.98c-2.4.73-2.82.87-5,.01-.98-.38-1.99-1.64-3-2v-3c3.17,2.02,4.27.27,3-3,1.92.75,4.93,3.08,6,5Z" style="fill: #765d43;"/>
    <path d="M105.86,83.52l3.49,4.01-5.49-4.01c.32-.02.68-.02,1,0s.67-.03,1,0Z" style="fill: #b9a68e;"/>
    <path d="M111.86,90.52c-.39-.24-.7-.65-1-1,.46.17.8.56,1,1Z" style="fill: #8a7663;"/>
    <path d="M54.86,74.52c-.08-.11-1.52.49-2.32-1.25-1.74-3.81-1.9-2.84-3.15-4.75-2.9-4.4.72-2.19,2.02-2.1.22.02,1.37-3.62,3.44-1.91.27.23,1.04,5.99,1.01,7-.02.6-1.11,2.02-1,3Z" style="fill: #bbac8e;"/>
    <path d="M61.86,63.52c-2.64-.69-4.38.36-4-4,2.38.7,3.82,1.1,4,4Z" style="fill: #826e4b;"/>
    <path d="M45.86,121.52c5.05-.29,5.42,2.35,2.91,6.37.13,5.62.53,11.87,4.48,16.27l-.39,1.36c4.31.43,7.64,2.09,10,5,.87.28.86.62,0,1,1.8,2.7-1.02,3.19-3.68,2.64.41.99-.5,1.72-1.32,2.36-.38,2.62-1.12,2.48-2,0-.41.44-.74.1-1-1-2.65.51-2.75.02-1-2l-1-1c-4.32,1.08-8.33-4.81-7-9-.56-1.12-1.82-2.55-2-3s.13-1.38,0-2l-1-2c-.87-.25-.84-.58,0-1-.28-1.67-1.22-3.22-.99-5l2.98,4.99c-.27-2.29.48-5.19,0-7.33-.04-.19-.47-.45-.99-2.66,1.26-1,1.39-3,2-4Z" style="fill: #423225;"/>
    <path d="M55.86,100.52c1.02.89,2.8,2.13,4,3,.24.17.26,1.08.97,1.41s1.97-.5,2.02-.42c.58.89-1.28,4.52-1,6-8.34-7.47-7.71,8.59-8.99,10-1.71,1.88-1.95-3.61-3.99-.99-1.39-2.93,2.88-5.26,2.98-5.7.87-3.97.83-10.29-2.98-12.3l7-1.01Z" style="fill: #cdbfa1;"/>
    <path d="M47.86,95.52c-.04.07-1.39-.19-1.66.29-.81,1.44-.87,3.1-1.91,4.68-1.81,2.76-4.31,4.1-5.48,6.99-3.92.21-2.95-4.24-2.95-6.96l2.98,1c.03-2.64-.48-7.05,1.5-9.05,1.68-1.7,4.68.61,6.51-1.95.19,1.22,1.48,4.24,1,5Z" style="fill: #ab946d;"/>
    <path d="M61.86,111.52c.95,1.67.53,4.54-1,6,.87.28.85.61,0,1,2.24,1.55,1.67,2.36-1,2,.27,1.67-1.3,4.22-3,3-.28.87-.62.86-1,0-4.61.94-6.94.27-7-2,1.26.03,6.52-.66,6.89-1.14.49-.63-.29-2.62.31-3.64.32-.54,2.09-.8,2.88-1.68.94-1.05-.48-3.93,2.93-3.55Z" style="fill: #b2997b;"/>
    <path d="M48.86,121.52c2.37.66,4.92.86,7,2,.2,1.1-2.61,4.15-2.9,4.04-1.99-.8,1.67-3.06,2.9-.04.33.42.66.42,1,0-2.41-.95-1.88-2.8,0-4-.02-.41,2.54-2.11,3-3,.3-.56.63-.55,1,0,1.54,1.56,1.48,3.98-.17,7.27,4.59,1.74,6.31,3.98,5.17,6.73.13,1.2.2,2.74-1,3-2.05,3.54-4.21-.1-5.33-2.86l-1.67-.14c.26,1.25-1.08,2.25-4,3-2.15,1.61-1.26-1.07-1.19-.94,1.53,2.8,6.61,13.19.19,8.94-4.18-4.58-6.49-11.27-6.1-17.52.22-3.61,4.9-5-.9-6.48.16-.27.03-.87.5-1,1.09-.38,1.73.78,2.5,1Z" style="fill: #846646;"/>
    <path d="M166.86,263.52c.91,2.91.76,6.54-2,8,.62,1.38.39,3.54-1,4l-2.56-.85c-.6-2.84-1.71-3.99-3.33-3.44,3.05,6.35-2.86,16.53-9.61,12.5l-1.49,1.78c1.14,1.15,1.47,3.15,1,6,.88.19.85.53,0,1-.37,1.58.65,3.75-1.52,4.99-2.05.8-1.28-2.12-1.97-2l-1.52,1.01c-.12-.99-1.68-2.68-1.94-4.55-.87-6.26-.41-11.11,6.91-11.49-1.05-2.97.16-6.1.03-8.96.98-6.33-.04-8.73-3.37-13.5-.55-.79-.24-1.72.37-2.5.63-3.79,8.6-1.95,10.35-.31,1.75,4.91,6.53,9.51,5.93,1.89l1.73-1.58c-1.51-10.13,5.32-5.59,5.37,2.09.01,1.84-.53,4.35-1.37,5.91Z" style="fill: #a2875e;"/>
    <path d="M141.86,250.52c.1-.91.45-.86,1,0,2.8,1.29,4.03,1.98,2,5,1.26,2.6,3.51,4.04,3.94,6.55s.61,7.1-.94,9.45c-.1-2.32-.74-3.36-1-5-3.39-4.27-6.06-8.93-8-14,.05-.36-.11-.79,0-1,.44-.86,2.06-1.01,3-1Z" style="fill: #886c45;"/>
    <path d="M138.86,252.52c2.76,1.3,3.01,4.55,4.42,6.61,2.94,4.3,2.4-.12,3.58,7.39l-2-1c-1.84,1-2.24-1.23-2-3-3.15-4.31-5.14-2.32-4-10Z" style="fill: #9c8565;"/>
    <path d="M144.86,265.52c.92,2.56,1.16,5.29.99,8-1.15.17-1.59-1.84-1.99-2-.68-2.52-2.9-7.13-1-9,.32.44,1.94,2.83,2,3Z" style="fill: #c7b298;"/>
    <path d="M42.86,138.52c-2.46,1.69-3.76,3.02-4.49,5.99-7.49-3.8-4.69-3.37-5.02-9.53-.15-2.8-1.42-5.59-.45-9.76.16-.67,1.47-.46,2.06-2.18.91-2.69-.16-4.96.4-7.52,6.79,4.85.31,17.66,7.5,20,.05.31-.01.67,0,1,.57.7.68,1.4,0,2Z" style="fill: #b1a183;"/>
    <path d="M43.86,138.52h-1c-.01-.67.02-1.33,0-2,1.06.27.83,1.2,1,2Z" style="fill: #927c5c;"/>
    <path d="M90.86,183.52c2.4,2.32-2.8,4.12-2.77,5.49,0,.2,1.46,2.86,1.77,3.51-6.4-.6-7.93-6.28-13-10-3.86-3.26-2.58-5.17,2.1-5.38l1.9-1.62c5.56-.63,8.58,3.75,10,8Z" style="fill: #563f2d;"/>
    <path d="M45.86,143.52c2.87,5.76,3.1,5.16,7,9l1,1c.15.23.92,1.77,1,2l1,3c.88.26.86.59,0,1,.78,2.95-2.86,2.31-4.27,1.97-1.04-.25-3.22-4.72-4.72-4.96l.98,6.99c-.23.23-3.86-.85-3.99-1.01-1.72-2.11,2.43-1.49,1.94-3.39-.19-.74-1.34-2.74-1.95-3.1-1.37-.82-4.97.27-3.99-1.98.37-.84,2.39-2.22,3.2-3.8,1.19-2.32,1.39-4.69,2.79-6.71Z" style="fill: #a28a6a;"/>
    <path d="M57.86,156.52c5.77-2.73,11.37,6.78,13.96,11.44,5.94,2.88.33,9.24-2.96,4.56-.33,0-.77.07-1,0l-1-1c-1.66-1.48-5.55-5.36-7-7-.87-.99-3.6-4.19-4-5-.11-.22.06-.64,0-1-.51-.67-.7-1.46,0-2,.6.15,1.53-.18,2,0Z" style="fill: #3a2b20;"/>
    <path d="M62.86,151.52c2.92-2.91,7.2,4.77,8,8l1.38.11c-.24,6.05,3.07,8.83,9.92,8.36l.7,2.54c-.32,1.4-.99,2.73-2,4,.7.24.67.58,0,1,.52,3.97-1.51,3.52-5,4.01-.27,1.2.77,2.13,1,2.99-.54-.4-1.37-.63-2-1-2.2-3.13-5.21-4.94-6-9,1.89-.05,3.93.05,3.99-2.48-4.75-4.62-8.5-11.01-14.99-13.52l-1.99-6c1.96-.39,3.08,1.57,4.76,1.87,1.37.24,2.11-.88,2.23-.87Z" style="fill: #664c38;"/>
    <path d="M67.86,172.52c-.72-.23-.75-.78-1-1l1,1Z" style="fill: #664c38;"/>
    <path d="M146.86,237.52c7.45,2.68,16.72,9.1,16,18-.02,1.33,1.95,4.77.99,7l-2.98-1c-.44.48,1.84,5.83-.51,7.01.03-3.98-2.5-4.7-3.93-7.08-3.81-6.34-1.49-6.69-11.57-5.93-.89-1.83-1.43-2.99-2-5,1.82-2.39,3.94-2.73,6.52-1.71.91-.97-8.58-12.92-5.12-.5l-1.4,2.21c-.33-.03-.67,0-1,0-.39-1.87-5.88-8.01-5.99-8.52-.65-2.88,3.69-2.24,4.99-2.48-.15-5.32,3.07-5.98,6-2Z" style="fill: #af9571;"/>
    <path d="M122.86,315.52c.04,3.92,1.08,11.7-4.34,9.83l-.66-.83c.12-.28-.12-.72,0-1,.67-1.55,1.46-3.95,2-5s1.98-2.33,3-3Z" style="fill: #aa9d85;"/>
    <path d="M258.86,280.52l3.99-1.99c-1.7-.58-11.49-5.22-6.51-6,4.37,3.44,9.6,5.77,14.27,8.74,8.13,5.18,7.94,5.16,16.97,9.03,2.89,1.24,5.41,4.65,8.77,5.23l-4-8c-2.86-2.44-5.8-3.91-7.49-7.51.94-1.61,2.39.75,3.77,1.23,1.28.45,2.82.19,4.18.82s6.67,6.98,7.45,8.55c1.46,2.93.88,9.74,5.61,7.39l.49-3.5c1.61.66,4.43,2.8,5.49,4.02,4.4,5.06,5.87,11.53,5.99,18l-4.98-4,.98,6-5.98-3c-.82.86,2.27,4,2.99,5,2.44,5.92-2.63,3.65-5,0-3.84-2.58-7.51-5.91-11-10-4.85-8.89-4.85-8.56,0,1,.86-.19,1.19.14,1,1,1.55,2.9.8,4.37-2.39,2.99-5.75-6.22-11.29-12.55-16.61-18.99l-2.18.3c-4.22-5.51-9.7-10.05-15.49-13.82l-.32-2.48Z" style="fill: #1f1d1b;"/>
    <path d="M174.86,252.52c-7.14-7.54,4.03-4.67,7.36-.1,2.98,8.8,11.8,21.29,3.24,4.16-1.11-4.75,1.83-3.78,4.4-1.05,1,1.28,1.93,2.8,3,4,2.16,5,5.84,7.28,10.74,4.56,1.03-2.99,3.72-7.62,7.26-6.56,1.16.22,2.99.57,4,1,3.05,2.01,5.8,11.91,5.23,14.78l-3.23,4.22c-.34-.26-1.72-1.14-1.98-.99-2.21,3.17-2.48,4.87-2.02,8.99-1.74.18-3.4.51-5,1-.39,1.24-.99,1.55-1.29.58-.55-1.75-3.2-9.28-4.52-8.88-.87.26-1.65.54-2.19,1.31,2.61,1.97,1.04,4.08-1,6-.39,6.4-1.39,8.07-3,5-.26-1.8.08-4.07,0-6,1.67-3.39-.68-8.69-3.97-7.12-1.93-1.38-3.61-3.01-5.03-4.88-1.72,1.85-2.9,1.28-4.15-.65-.59-3.89-2.21-5.67-4.85-5.35-4.24,1.67-4.26-4.27.05-5.17-2.72-2.97-3.74-5.58-3.05-7.83-.14-.24.12-.7,0-1Z" style="fill: #665846;"/>
    <path d="M238.86,271.52c7.48,5.69,19.02,18.88,25,26l2,2c.91,1,1.37,2.5,3,3,5.92.46,10.45,13.53,1,8-2.14-1.96-3.97-3.3-5.5-6l-1.48,1.99-1.52-3.99-3.49,4c-.92-1.61,1.24-5.81,1-5.99-.22-.17-1.82.3-2.7-.25-.3-.19-3.49-4.71-4.31-5.76-1.55-1.98-8.08-14.39-8.01-5.99-1.91-.77-5.22-1.45-6.99,0-.81-1.35-2.16-3.89-3-5-1.22-1.61-3.32-2.09-5-3-1.71-2.74,1.6-3.59,4.12-2.75l.79-1.69c2.43-.4,4.13-1.92,5.09-4.56Z" style="fill: #5f4f40;"/>
    <path d="M258.86,280.52c5.21,2.71,15.05,11.03,18,16,2.05,1.85,3.7,3.39,3.31,6.22l6.11,6.91c8.46,10.15-1.94,10.52-7.22,2.73-3.13-4.89-7.01-8.91-11.2-12.86-.3-.45-.56-.69-1-1-.67-1.72-1.06-2.53-3-3-.19-.32.21-1.81-.52-2.94s-7.18-5.57-9.48-8.06c-.23-2.19-1.45-4.15-3.63-5.88l.63-1.12c2.69,1.16,5.2,1.54,8,3Z" style="fill: #5b4a3a;"/>
    <path d="M152.86,195.52c1.86-2.45,8.6.82,8,4l4.29,1.34c-.56,1.62.34,3.17,2.71,4.66,4.9-.82,3.71,5.57-1,4-.53.36-2.83,1.96-3,2-1.83-.88-3.83-.88-6,0-.62-.03-3.33.22-1.32-1h.69c1.47-2.08-4.47-2.01-6.09-2.78-3.74-1.78-7.96-5.63-11.28-8.22.89-1.46,2.56-2.79,5-4-1.25-2.09-1.78-3.65,1-3,2.22-1.98,4.55-.98,7,3Z" style="fill: #70533b;"/>
    <path d="M174.86,253.52c1.47,2.59,9.65,10.47,2,10-.73,1.89.69,2.4,1,3l1,1c.9.25.88.59,0,1-7.28,7.29-15.78,8.86-11-5-.34-2.46.08-5.82,1-8,2.77-1.84,6.8,1.81,6-2Z" style="fill: #514435;"/>
    <path d="M122.86,177.52c-4.32-1.55-4.76-10.83,2.13-6.54,5.73,3.57,6.14,11.04,6,17.07l1.87.48c2.87,1.45,6.47,2.67,8-1,4.55-3.53,6.54,5.94,1,5-.26.83-.6.81-1,0,.5,3.08-5.53,2.6-8,2-.28.87-.62.85-1,0-1.96,1.63-4.29.96-7-2-1.71,2.26-5.12.64-6-2-.45-.33-.68-.54-1-1-.87-.33-.87-.67,0-1,1.36-2.1,4-2.31,7.93-.64.53-.4-3.29-14.05-2.93-10.36Z" style="fill: #8f7251;"/>
    <path d="M118.86,184.52c2.18,1.5.77,2.84-1,4-1.48.53-3.14.87-5,1-1.14.29-1.5,1.37-4,1l-1-1c-2.25-.37-1.56-3.79,1.03-3.11-1.83-6.25,7.83-5.98,9.97-1.89Z" style="fill: #8f7251;"/>
    <path d="M222.86,249.52c2.17-1.15,8.58,1.53,9,4-.17,3.01-3.17,3.68-9,2-2.27-.14-3.83-.46-6-1-2.93-4.17,2.52-.44,2.99-1,1.91-2.24-3.46-1.5-1.99-3.99,1.61.14,3.43-.22,5,0Z" style="fill: #907759;"/>
    <path d="M91.86,177.52c-.82,2.06-.48,2.65,1,1,.92-2.49,7.21-3.23,8,0,.86,2.35-5.79,2.26-3.46,1.82l-.54,1.18c.14.94-.08,2.03,0,3-2.5-2.79-3.43-.99-3.99-1s-1.73.14-2,0c-1.51-.78-6.74-7.34-10-8-.05-.36.1-.78,0-1,1.72-.81,3.05-1.81,4-3,3.06-1.14,7.65,3.67,7,6Z" style="fill: #75573e;"/>
    <path d="M105.86,178.52l1.86-1.48c3.52,1.69,6.57,2.51,9.14,2.48,2.55-1.58,2.76,1.9,2,4,.92.18.88.52,0,1-3.01-.69-4.58-3.04-9-.99l3,3.98c-6.21-1.13-4.46,1.5-5,2.01-.24.23-2.26-.16-3,0,.09-.28-.07-.67,0-1-2.22-1.91-2.56-3.24-1-4,1.59.41,3.37.71,5,.99.5-.42-2.7-4.33-3-4.99-2.7-.43-2.53-1.12,0-2Z" style="fill: #7c5e40;"/>
    <path d="M222.86,247.52c5.67,2.32,11.47,3.99,17,6-.19,1.79.14,2.12,1,1,.54.3,1.79.73,2,1,.33.42.32,2.31,1,3-3.21-.66-6.58-2.01-10.11-4.05-1.29,1.18-1.91.84-1.89-.95-2.43-1.02-4.94-3.44-9-4l-10-5.99c3.47.7,6.76,2.66,10,3.99Z" style="fill: #4d301a;"/>
    <path d="M141.86,192.52c2.2-2.11,3.2-1.11,3,3,.05.62,1.34,1.86,1,2.99-2.05.01-3.95,1-6,1.01-1.77.01-2.49-.36-4-1-.89-.38-2.09-2.38-4-2-.03-.45-1.3-1.88,0-2,.28.1.68-.09,1,0,2.96.76,6.21.78,8-2,.26-.04.75-.06,1,0Z" style="fill: #a69177;"/>
    <path d="M173.86,206.52c-.01.29,1.36,1.77,1.01,1.99-.28.18-1.54-.27-2.14.1-1.54.96-1.42,2.92-4.87,1.91-.36-.27-.63-.72-1-1,.77-.52,1.93-.92,1.98-1.02.76-1.5-.49-2.17-.98-2.98-3.55-2.49-5.6-5.86.32-5.22,1.77.19,7.09,3.95,5.68,6.22Z" style="fill: #9f856d;"/>
    <path d="M122.86,177.52c.06-.71-.34-3.1,1-1.49.83,2.61,5.29,12.66,3.99,14.49-2.99-.86-6.93-1.88-9.99-2-.84-3.3.62-2.37,1-4,.65-1.59,1.64-1.81,2,0l1-1c-1.17-1.18-.88-5.44,1-6Z" style="fill: #694d34;"/>
    <path d="M117.86,188.52c.09.35-.13.81,0,1h-5c1.84-.47,2.05-1.11,5-1Z" style="fill: #694d34;"/>
    <path d="M109.86,337.52c.18-5.11-7.09,1.43-6.01,3.29l-1.99-1.29c-1.09.16-2.09.82-3,2-.61.67-1.24.92-2,2l-1,1c-.34.59-.81,1.4-1,2-2.07,6.44-.75,11.57,6,14,2.54-1.44,1.91-3.98-1-4-1.08-5.22-1.02-6.11,3.51-9.98l.49.98c3.33.07,7.75-7.11,6-10Z" style="fill: #3a2f25;"/>
    <path d="M167.86,263.52c-.15,3.07-.86,7.75,1.51,9.99l.48-1.98c4.18,1.5,6.24-4.01,9.01-3.01.81.5.74,1.47,0,2,0,.33.04.68,0,1-2.06-.75-1.84,1.94-2.67,2.03-1.51.16-2.82-1.64-4.41.41-1.5,1.94.2,3.55.07,5.55l-2.01-2.99c-1.85.24-1.52,1.86-1.99,3-2.18,5.29-5.02,10.99-7,16-3.09.27-5.48-2.56-1.49-6.96,1.38-5.67,3.31-10.83,5.79-15.46l-.3-1.59c.2-1.21-.15-2.72,0-4.01l1.98,1.01c.16-1.63-.2-3.39,0-5.01h1Z" style="fill: #796b58;"/>
    <path d="M186.86,272.52l2.99-1.99c.52,6.74,3.95,6.91,4.02,0,1.4-1.73,5.06,12.46,1.99,14-.01-.33.02-.67,0-1-.08-1.32.06-2.67,0-4l-3.02,2.99-3.48-5-2.49,1.99v-6.99Z" style="fill: #796f64;"/>
    <g>
      <path d="M141.86,317.52c6.25,1.22,9.27-2.06,14.96,2.53,2.25,1.81,2.06,3.67,3.34,5.17,1.94,2.27,5.69,3.98,6.7,8.29-10.29-4.09-6.54,2.54-7,3-.33.33-10.48.18-5-3.99-7.13,2.37-5.22-.36-8.51-3.01-2.5-2.01.51,3.26-1.99,2.01-.86-.43-.2-1.52-1.24-1.96-3.48-1.48-7.57-1.18-10.63,1.09-1.73,1.28-1.98,3.96-4.64,3.86-1.88-4.26,1.12-7.26,9-9,.13-2.73,3.01-6.19,5-8Z" style="fill: #554332;"/>
      <path d="M156.85,334.51c-.35.68-1.7-.59-.98-1.99.35-.68,1.7.59.98,1.99Z" style="fill: #3a3028;"/>
    </g>
    <path d="M119.86,336.52c2.67-.47,2.04.63,2,3-3.76,2.35-3.78.29-2-3Z" style="fill: #ad8965;"/>
    <path d="M109.86,157.52c2.2-.27,4.2,1.22,6,4.47,7.04.55,14.87,1.7,22.12,3.24.98-11.18,12.95-.21,15.88,5.28,3.11-.27,3.85,2.67,1,4,4.08,1.43,9.44,8.1,2,6-.69.07-3.35-1.43-5,0l-2.01-1.85c4.05-2.51-4.87-13.11-5.99-6.15,3.03.15,4.71,4.16,2,6,2.75.15,2.76,3.41,1,5,.67,1.51.82,2.55,2,4,2.71,2.37,1.71,4.04-3,5-.42,1.01-1.18.97-1,3-.62-.71-2.3-2.82-3-3,2.86-2.21,1.85-3.48-1-5-.89-.27-.87-.6,0-1l-1-1c-6.07-11.98-7.95-14.98-5.63-9.01l-1.37,2.01c1.5,1.98,1.5,2.98,0,3,.61,2.81.61,5.14,0,7-.16.61-3.12,3.99-4,2.99.45-6.99.92-18.29-8-19.99l1.99,6c-.18,2.09.32,3.99-1,6l-1,1c-.34.1-1.6.09-2,0,.07-.29,0-.69,0-1-.54-5.35-2.21-10.68-5-16-1.46-1.6-5.63-6.35-6.22-8.55-.13-.49,1.32-1.17,2.22-1.45Z" style="fill: #a1835d;"/>
    <path d="M167.86,196.52c6,4.69-3.35,5.68-7,3-1.8-1.21-5.8-2.93-8-4-2.7-1.94-5.98-4.84-1-5,3.45,2.3,6.63-.02,9.13.51,2.13.46,4.56,4.11,6.87,5.49Z" style="fill: #a68c6f;"/>
    <path d="M167.86,196.52c3.56,2.13,8.59,3.66,11.99,6.51.41,3.24-2.46.04-3.78.65-.16.08-2.2,2.65-2.21,2.83-2.6-1.64-6.03-5.55-9-4.5,1.18,1.05,2.18,2.15,3,3.5-2.58-.98-5.25-4.82-7-6,3.08.04,9.57.84,7-3Z" style="fill: #86684a;"/>
    <path d="M158.86,175.52c1.79,1.84,5.09,4.97,6.92,1.98-1.95-5.49-3.46-10.9,3.84-5.51,6.86,5.06,6.48,6.98.24,11.53-.28.87-.62.86-1,0-2.16.13-4-.37-6-1-.34,2.71-5.48,1.61-6-1v-1c.17-.02,3.06-1.34,3-1.5-2.47-3.11-3.05-2.88-5.99-.51-.43-1.47.98-2.68.99-4,1.45-2.14,3.56-1.64,4,1Z" style="fill: #b09775;"/>
    <path d="M143.86,172.52c-.68-1.85-2.15-3.75-2-5.99,1.82-.45,2.21,1.29,3.67,1.68.75.2,2.18-.77,2.28-.67.17.18.01,2,.6,2.88.95,1.41,2.8,2.35,3.25,3.8.62,2.02.02,4.25.2,6.3.11,1.35,1.35,2.51.99,4-2.16-1.46-3.43-2.96-5.99-1-1.67-3.78-.58-2.92-1-5,2.13-2.78,2.07-4.33-2-6Z" style="fill: #826145;"/>
    <path d="M195.86,223.52c-.95-.22-7.21-.08-8.35-.33-4.75-1.03-6.81-3.23-8.65-7.67-.83-2.01-.19-1.21,0-2,4.87,4.5,11.44,6.4,17,10Z" style="fill: #b19777;"/>
    <path d="M168.86,183.52c2.35.12,2.34,2.37,1,4,.15.24-.15.77,0,1l3,3c.25.44,1.2,1.82,1,1.99-6.33,1.58-6.07-3.02-8-4.99.45-1.48-.51-2.79-2.87-3.93l-.13-2.07,4.99-2c-.25,1.14.88,2.23,1.01,3Z" style="fill: #ae9272;"/>
    <path d="M180.86,188.52c1.98,2.63.82,3.87-2,4-.25-.28-1.24-.35-1.5-.95-.77-1.76,2.63-2.53-2.78-4.25-1.46-.46-3.62-1.86-4.71.19-2.23-3.45-.74-2.43-1-4h1c2.72-3.78,10.62.36,11,5Z" style="fill: #846442;"/>
    <path d="M162.86,182.52c1.87.61,8.06,6.94,3,6-1.07-1.09-3.84-2.54-5.33-3.23-1.93-.89-3.04,1.71-3.67-3.77,1.66,1.54,4.63.55,6,1Z" style="fill: #846442;"/>
    <path d="M191.86,212.52c.34.75,4.1,1.32.46,3.99-3.86-.31-5-2.66-7.46-4.99.16-.02.54-1.15,2.2-.86,1.46.25,3.03,1.92,4.8,1.86Z" style="fill: #af9178;"/>
    <path d="M151.86,190.52c-1.62,1.55.24,3.3,1,5-2.07-1.01-4.83-1.99-7-3,.98-2.34.8-3.49,4.01-3.01l-1.01-1.99c.2.25,2.82,2.88,3,3Z" style="fill: #8e6e4d;"/>
    <path d="M181.86,194.52c-.98.06-1.38-.53-2-1,1.13-.33,1.63.8,2,1Z" style="fill: #826142;"/>
    <path d="M172.86,191.52l-3-3c.44.64,1.95,1.2,3,3Z" style="fill: #846442;"/>
    <path d="M206.86,188.52c.22.32-.03,1,1,1l-1,2c-.21-.12-3.32,1.44-4-1.51-.81-3.57,3.47-1.5,4-1.49Z" style="fill: #b09574;"/>
    <path d="M221.86,183.52c-.59-.26-1.64.09-2-1,.93-.02,1.43.31,2,1Z" style="fill: #73553d;"/>
    <g>
      <path d="M54.86,20.52c.18.15,1.18,2.1,2,3,2.68,3.84,2.38,7.33-2,9-.32.02-.67.02-1,0-1.73,1.4-3.4,2.4-5,3-.64-.08-1.5.15-2,0-.18,1.33-.85,1-2-1-1.39-.79-2.49-1.05-1.99-3l2.98-.49c-1.05-1.84-4.27-5.96-4.99-7.52-.47-.27-.44-.61,0-1,1.81-5.27,11.55-7.62,14-2Z" style="fill: #563f26;"/>
      <g>
        <path d="M54.86,17.52v3c-5.87-4.82-8.52.63-14,2-.88-.25-.86-.58,0-1-.05-.38,1.07-1.76,0-3.48-.55-.88-1.66.94-1.99.49-3.44-4.76,13.1-2.5,15.99-1Z" style="fill: #72604a;"/>
        <path d="M61.86,31.52c-2.48-.91-4.29,1.48-5.73,1.79-.79.17-1.19-.79-1.27-.79.26-4.45,3.95-3.18,2-9,3.06,3.35,3.46,5.78,5,8Z" style="fill: #8b7656;"/>
        <path d="M53.86,32.52c-.76,1.21-1.84,2.88-3.08,3.57-1.37.76-1.73-.55-1.92-.57.87-.54.83-2.54,1.18-2.8.72-.53,2.75-.25,3.82-.2Z" style="fill: #7c6646;"/>
        <path d="M45.86,22.52c1.59-.41,2.2.79,1,2,2.06,5.65,6.66,2.62,4.01-3,3.13,1.15,3.92,5.11,2.49,8-3.01,6.08-13.32-3.31-7.5-7Z" style="fill: #9e7531;"/>
        <path d="M45.86,22.52c.28-.18.13-1.42,1.48-1,1.84.57,2.56,3.92-.48,3-.19-.52-1.03-1.17-1-2Z" style="fill: #a4907d;"/>
      </g>
    </g>
    <path d="M181.86,153.52c1.11,6.89,3.85,2.52,6.8,4.21.35.2,1.14,2.42,2.12,3.34,1.72,1.6,3.73,2.47,5.08,4.45.21,4.66-4.49,3.18-7.56,2.14-6,2.07-15.78,0-8.44-6.14,1.25-3.15,2.57-3.34,2-8Z" style="fill: #bfad91;"/>
    <path d="M179.86,161.52c-.3.75-.97,1.17-.75,2.28,1.31,6.53,5.42,1.81,9.27,1.87,2.99.05,5.85,3.88,7.48-.15.65.95.65,2.49,1,3h-1c.27,2.72-.02,3.45-2.8,3.7-5.33-1.17-10.95-1.31-15.91,1.06l-2.29-1.76c-.97,3.15-6.72,1.07-6-2,1.38-.44,4.42-1.12,5.37-1.9,1.31-1.08.17-6.44,5.63-6.1Z" style="fill: #ae9069;"/>
    <path d="M152.86,147.52c4.46-.25,10.82,5.84,13.64,9.25.67.81,1.41,1.32,2.36,1.75,1.47,2.43,3.37,5.21,4,7.99-3.13.56-1.96-2.76-4.03-4.48-.63-.52-1.68-.32-1.97-.52-4.76.35-7.4-.74-10.65-4.74l-1.35.74c-1.89.78-3.34-.63-4.35-4.22.88,1.94.18,3.87-.88,5.54,3.47,1.75,7.26,8.92,4.22,11.68l-12.5-8.98c-1.96,1.01-1.02,3.75-1.7,4.76-2.57,3.79-12.22-4.91-12.92.06l-1.36.16c-2.84-5.61-8.34-1.85-10.23-2.69-2.5-1.12-3.18-4.69-5.29-6.3-.87-.28-.86-.62,0-1,2.95-3.06,4.72-3.14,7,1,1.59-.72,2.78-.06,3.58,1.98,14.9,2.23,17.88.48,8.92-5.25l-.51-2.73c.5-1.98,1.4-1.94,2,0l.17-2.51c-7.82-13.22,9.73-5.28,3.83,2.51-1.05.83-1.05,1.16,0,1l2.27-.74c5.52,7.6,9.85,6.86,4.29-2.55-5.02-.21-10.56-9.2-3.56-7.71,3.94-2.91,7.75-1.41,11.44,4.51l3.56,1.49Z" style="fill: #b59b78;"/>
    <path d="M165.86,167.52c1.47,1.21.89,1.03,3,2,1.39.64,4.74,1.97,6,2,2.35.78,3.68,2.78,4,6,.83,1.03,3.87,4.2,3.99,4.51.7,1.81-1.72,1.23-1.99,2.17-.37,1.29.17,2.97,0,4.31-4.02-3.63-5.6-3.97-11-5-3.77-4.43,4.13-2.73,2.99-5.49-.74-1.8-6.14-5.42-7.5-7.51-1.5,3.12,4.15,7.16-.49,9.56-1.44.75-6.32-2.39-6.01-4.56,2.33-.69,3.24-3,2.72-6.94l2.28-1.06c-.15-.82.51-.82,2,0Z" style="fill: #baa589;"/>
    <path d="M170.86,148.52c4.73,2.32,10.7,4.55,8.99,11-3.81-2.01-2.67.59-3.47.79-3.25.82-5.23-.82-7.53-1.79-5.35-1.52-4.93-8.87-1-11,1.01-1.01,3.08-.55,3,1Z" style="fill: #463326;"/>
    <path d="M165.86,134.52c1.71.88,2.71,1.88,3,3l1,1c9.33,5.87,3.63,13.2-5,6-2.84-1.71-3.66-3.49,0-4-.56-1.58-.89-3.25-1-5,.11-.93,1.27-1.13,2-1Z" style="fill: #463528;"/>
    <path d="M154.86,157.52c.02-7.59,4.15-.12,5.65.95.64.46,4.17,1.51,6.35,3.05-2.65-1.14-3.04,1.7-3.21,1.75-.49.16-1.5-1.13-1.78-.75-1.04,1.42,2.99,4.17,3.99,5-.57-.13-1.73.2-2,0-2.88,2.1-10.7-6.89-9-10Z" style="fill: #8f6f4c;"/>
    <path d="M170.86,148.52c-.73-.36-1.95-.51-3-1-1.45,2.41-10.87-2.26-11.18-3.4-1.08-3.96,7.76-3.56,8.18.4,3.02.82,5.7,2.63,9,1.99-.18-3.71-1.9-5.53-4-7.99l-1-1c-1.03-.9-2.51-1.34-3-3,6.27,1.14,15.26,13.14,5,14Z" style="fill: #806755;"/>
    <path d="M150.86,122.52c2.26,2.03,6.5,8.15,7.24,8.76,1.07.87,3.01.12,4.76,2.24.08.1.46,1.11,1,2,.66,1.1,1.96,2.16,2.01,3.54.03.95-.99,1.34-1.01,1.46-.28.87-.62.86-1,0-2.71-1.57-5.92-5.14-7-8-2.52-1.05-7.13-6.09-7-9-1.33-1.41-.77-1.92,1-1Z" style="fill: #766253;"/>
    <path d="M127.86,112.52c1.88-.42,3.72-.67,6,0,5.57,1.63,12.7,6.13,17,10l-1,1c-2.94,1.28-9.6-1.69-10-5-3.47.73-4.79.21-8.42-1.46l-3.96-.74c-2.72,2.44-4.59,2.51-5.61.2-2.76,1.39-5.05-2.97-3-5,4.38,1.1,4.78,1.94,9,1Z" style="fill: #9f8468;"/>
    <path d="M112.86,109.52c1.99.81,2.34,1.29,5,2,.28-.73.61-.71,1,0,.2.4,2.7,4.57,3,5,2.9.54,3.57,1.54,2,3l-4.51.54-6.48-4.53,1.01,5.48c-2.14,2.16-2.04-1.12-2.96-1.99-3.81-3.6-4.43-5.54-7.05-8.49,3.31-2.74,6.31-3.08,9-1Z" style="fill: #664d39;"/>
    <path d="M87.86,104.52c-.39-.57-2.39-2.67-2-2.99,3.82-.95,2.19,1.75,3.99,1.98-.17-1.61,1.7-3,3.07-3.44.37-.12,6.54-1.15,6.92-1.15.71,0,3.37.29,3.01,1.58l-4,2c4.69.91,10.59,3.5,14,7.01-1.22-.5-2.65-1.04-4-.99l4,3.98c-1.82.53-2.28-1.41-3.64-1.71s-3.67,1.44-5.36-.28c-.63-.71-1.35-1.32-2-2-1.95-3.19-4.06-6.49-6.81-2.42-2.16.67-5.95.21-7.19-1.58Z" style="fill: #866e52;"/>
    <path d="M97.86,89.52c1.56.37,1.58,2.33,2.71,3.05,1.59,1.02,5.13,1.63,7.26,2.49,1.19.48,4.01,1.04,4.03,2.45-5.72-.71-10.88-1.67-16.48-2,.92,4.06-.75,1.29-2.51,1.01-7.18-2.22-5.51-4.55,5-7Z" style="fill: #6f5642;"/>
    <path d="M87.86,104.52h7.01s-1.01-1.99-1.01-1.99c4.47-.04,7.14,1.48,8.01,5.99-.51-.53-4.77-4.23-4.99-4l-2,9.99c.41-7.8-4.95-6.42-6.81-8.23-.53-.52-.07-1.56-.21-1.76Z" style="fill: #72573a;"/>
    <path d="M97.86,89.52c2.73,3.6-6.36,2.34-8,4.01l3,2.99c-1.2-.19-3.06.3-4,0-.75-.24-4.51-2.91-4.99-3.99,2.49.83,5.14-2.78,5.99-3.01s7.04-.23,8,0Z" style="fill: #907457;"/>
    <path d="M118.86,102.52c-.91-.01-3.84-.14-3.99,0-.2.18.18,1.55,0,1.99,4.82,1.9,1.7,2.13,2,3l-2.93-1.09c.11-.72.66-1.27.93-1.91-1.63-.64-5.38-1.02-5.99-2.99l9.99.99Z" style="fill: #7b654f;"/>
    <path d="M118.86,111.52c-.31-.08-.69.08-1,0v-2c.26.6.68,1.38,1,2Z" style="fill: #7b654f;"/>
    <g>
      <path d="M55.86,71.52c4.58-2.08,9.43,1.05,13.53,3.01-.07-2.88,4.05-1.27,5.47,0,.51.46.81,2.49,2.02,3.46,1.63,1.3,4.18,1.19,5.49,2.54,2.02,2.09.02,3.91,5.49,4.99-1.42,2.94-1.95,1.05-1.07.6,1.94-1,2.06,10.43-6.9,2.92-2.35-5.01-3.73-5.76-4.14-2.26,4.55,2.91,2.89,7.34-2.37,6.6,2.58,1.59,3.75,3.63,3.49,6.14-.55,3.65-4.39,2.57-8,3l1,3c2.37,2.85-1.13,4-3.53,1.59l-2.47.41c.41-3.21-.57-6.47-4-4-2.65,1.58-4.9-.02-4-3-.88-.77-2.24-.78-3.04-1.69-1.54-1.77-.45-5.5-4.96-3.31-2.82-.67-3.29-3.28-1-5-.1-.64.1-1.37,0-2l3.51-3.97c5.08,7.7,10.63,9.13,8.49-2.04-3.32,1.49-4.27-.21-5.01-3.48l2.51,1.48,2.48-4.43-2.47-1.57-.52,2.01c-1.79.39-.65-1.52-.99-2-2.17-1.42-1.87-3.24,1-3Z" style="fill: #988566;"/>
      <path d="M76.86,99.52c-.96-1.52-11.34-9.81-10-10.99,3.69-1.77,6.17,3.76,8.48,2.98,3.54-1.19-1.01-2.86-1.22-3.25-.65-1.21-.32-3.3-1.28-4.73,8.47-2.45,5.33,1.33,8.92,4.58,1.41,1.28,3.42,1.62,5.08,2.41.49-2.89-4.86-5.67,1.01-5,1.74.35,4.9-.92,6,1-1.65-.11-3.34.07-5,0l1,2.99c-.9,2.42-1.23,4.75-1,7,1.53,2.51,1.47,2.04-1.24,1.75-3.59-.39-7.06-1.29-10.77-.75-.09.65.1,1.37,0,2Z" style="fill: #523c2b;"/>
      <path d="M64.85,86.51c-5.31-4.12-3.14-11.55,3.02-5.47l-3.02,5.47Z" style="fill: #b7a47d;"/>
    </g>
    <path d="M53.86,137.52l-2-7.99c5.91-.87,3.94,4.57,4.2,4.87.33.39,1.68-.04,1.8.12l1.42-.24c2.33,5.62,4.19,6.7,5.58,3.24.09-.74,1.08-1.96,1-3,2.23.44,2.94,2.75,2.11,6.94,2.93-3.77,7.87-.76,3.89,2.06.94,2.37.36,2.88-2,2l-.15,1.42c-2.93-.1-3.88,1.09-2.85,3.58,3.41-.95,8.12,7.56,4,9-.56-2.06-5.59-7.79-8-8v-1c-1.39-2.19-2.79-3.94-5.5-2.96-.86-3.03-2.24-5.96-4.15-8.78l.65-1.26Z" style="fill: #9e815e;"/>
    <path d="M53.86,137.52c2.55,2.8,4.38,4.75,4,9.01,3.43-2.09,4.45.84,5,3.99-2.13-2.71-5.5-1.36-7.77-2.27-.16-.07-1.58-2.02-2.23-2.73,3,.29,2.26-.57,1.05-2.54-1.72-2.8-3.92-3.68-2.04-7.45,1.24-.25,1.24,1.17,1.99,1.99Z" style="fill: #664c38;"/>
    <path d="M55.86,156.52c.07.64-.11,1.38,0,2-1.37-.66-.72-2.17-1-3,.39.2.77.94,1,1Z" style="fill: #664c38;"/>
    <path d="M53.86,153.52l-1-1c.33.33.74.6,1,1Z" style="fill: #664c38;"/>
    <path d="M55.86,123.52h1c.06,1.52,1.08.31,0,4-.28.87-.62.86-1,0l-4,1-.02-4.41,4.02-.58Z" style="fill: #553d28;"/>
    <path d="M66.86,150.52c-3.09-2.97.96-4.33,3.96-2.52,5.34,5.12,10.63,10.92,14.87,16.6,2.46-10.91,8.93-1.17,9.17,4.92,1,4.83-7.68,2.57-11,1-.2.89-.54.85-1,0-2.86-2-7.87-.27-10.49-3.01-2.36-2.47-.91-5.76-1.51-7.99-.04-3.41-1.98-6.4-4-9Z" style="fill: #3f2d22;"/>
    <path d="M82.86,170.52c.29-.07.66.03,1,0,1.08-.26,1.49-.04,1,1l2,2.99c-2.16.58-3.87,1.02-6,.01-.71-1.61-5.63-2.18,2-4Z" style="fill: #c2a68d;"/>
    <path d="M142.86,250.52c-1.16-4.07-2.94-6.23.54-9.96,2.61-2.8,2.15.03,3.53,1.34,4.28,4.05,4.63,5.59,4.92,11.61l-5.5-3.99c-1.08,3.77-1.96,1.13-3.49,1Z" style="fill: #bfac95;"/>
    <path d="M294.86,310.52c.57.3.56.63,0,1-3.34-4.53-7.12-9.09-9.01-14.49,2.1.33,4.77,3.47,5.85,5.15,1.57,2.45,2.54,5.51,3.16,8.34Z" style="fill: #4c4942;"/>
    <g>
      <path d="M341.86,362.52c.15.23-.15.76,0,1l1,1c.15.24-.15.75,0,1l2,2c.14.26-.14.74,0,1l1,1c.13.27-.13.73,0,1l1,1c.2.48-.2,1.51,0,2l3,4c.13.26-.13.73,0,1l1,1c.13.27-.13.73,0,1l1,1c.12.28-.12.72,0,1l1,1c.11.28-.1.69,0,1,.69.63.84,1.41,0,2-4.81,1.39-12.69-14.21-15.56-17.94-2.38-3.08-5.06-5.98-7.44-9.06-1.33-2.97-2.67-7.67,1-9-.89-1.81-.77-2.08,1-1,2.92,4.19,7.27,8.82,10,13Z" style="fill: #40352c;"/>
      <g>
        <path d="M352.86,386.52v-2c.08.23,1.71.37,1,1.49l-1,.51Z" style="fill: #8e8f91;"/>
        <g>
          <path d="M349.86,377.52c-1.72-.76-2.36-2.42-3-4,1.82.73,2.22,2.47,3,4Z" style="fill: #8e8f91;"/>
          <path d="M342.86,364.52l-1-1c.13.2.67.46,1,1Z" style="fill: #8e8f91;"/>
          <path d="M344.86,367.52l-2-2c.13.22,1.27.67,2,2Z" style="fill: #8e8f91;"/>
          <path d="M345.86,369.52l-1-1c.09.17.72.43,1,1Z" style="fill: #8e8f91;"/>
          <path d="M346.86,371.52l-1-1c.03.06.69.25,1,1Z" style="fill: #8e8f91;"/>
          <path d="M350.86,379.52l-1-1c.08.16.72.43,1,1Z" style="fill: #8e8f91;"/>
          <path d="M351.86,381.52l-1-1c.07.16.74.42,1,1Z" style="fill: #8e8f91;"/>
          <path d="M352.86,383.52l-1-1c.12.27.84.58,1,1Z" style="fill: #8e8f91;"/>
          <path d="M340.85,367.52c-.99-1.44-4.8-1.83-4.99-2.02-.33-.33,1.52-4.62,1.01-5.98,1.93.19,4.46,7.45,3.98,8Z" style="fill: #6c5d51;"/>
        </g>
      </g>
    </g>
    <path d="M309.86,329.52c1.21,3.08,6.47,5.62,7.73,7.2.15.19-.32,1.59.27,2.8-4.18.14-4.36-1.51-7-4-.46-1.52-.3-3.9-1-6Z" style="fill: #736554;"/>
    <path d="M174.86,232.52c.37.42.87,1.96,1,2-.31-.26-1.67,0-2.5-.95-.34-.39.53-1,.5-1.05h1Z" style="fill: #8a6c48;"/>
    <path d="M183.86,238.52c-1.41-.62-4.38-3.11-5-1-1.67-1.17-2.07-2.22-3-3,.72.2,11.41-3.19,8,4Z" style="fill: #8a6c48;"/>
    <g>
      <path d="M183.86,238.52c1.2-1.4,2.81-1.34,4.83.17l3.89-1.75c-4.59-1.63-8.23-3.75-10.93-6.36-2.76-3.8-4.43-6.44,1.81-5.28,3.22,4.18,6.59,5.33,10.1,3.46,2.54,2.03,3.3,2.29,2.29.76-1.22-1.42.87-2.81,2.49-2.4l10.51,5.4,1.22-.99c8.82,3.85,17.99,7.98,26.3,12.75l-.52,1.24c1,1.21.23,1.88,3,4,.14.52.21,1.03.06,1.45-.99,2.86-10.78-3.25-12.63-4.68.03,1.33-1.12,1.74-3.43,1.23-.41.32-.78.55-1.02.45-12.99-5.18-10.04-6.11.93.46.18.11.17.55.1,1.09-.57,4.99-3.61,5.8-5.55,4l-.45,1c-5.22-1.31-9-4.83-13.99-5.99l1.99,1.98c-8.46-2.3-18.03-4.14-26.33-7.2-1.35-.5-2.05-1.51-2.67-1.79-3.71-2.22-.52-5.12,2.64-2.68l.36-1.32c-1.2-3.71,5.56-2.62,5,1Z" style="fill: #6e5036;"/>
      <g>
        <path d="M168.86,227.52c2.28.5,6.55,2.23,5,5l2,2c2.85.02,3.85,1.02,3,3,3.05,2.13,6.22,3.75,9,5.99-3.52.24-6.32-2.01-9.29-3.2-1.91-.77-3.05-1.95-2.71,1.21-1.23-.55-7.68-2.73-7.93-3.08-1.1-1.52,2.01-4.64,1.73-6.24-.18-1.05-3.21-4.21-2.8-4.67.65-.08,1.36.09,2,0Z" style="fill: #9e815f;"/>
        <path d="M178.86,215.52c5.11,4.71,9.99,6.46,17,8,.31.07.67-.06,1,0,2.41,1.27,2.07,3.27-1,6,.04.31,1.31,1.09,1,1.99-3.13-2.18-5.4.6-6.5.65-1.6.07-8.35-4.31-9-6.62-2.23,1.79-1.26,1.4,0,2.99,3.27,4.14,10.63,4.39,14.49,8.5-1.24,2.62-4.2,1.88-5.7,2.84-.48.31-.23,1.57-.31,1.63-.27.2-4.46-2.32-5.97-2.98-1.1-2.56-2.04-4.03-5.21-2.73l-2.79-1.27c-1.47-.62-1.8-1.29-1-2l.45-2.1c3.19.26,3.22-1.12.06-4.17,2.72-2.34,3.55-5.58,2.49-9.73.41.07,1.2-.4,1-1Z" style="fill: #9e815f;"/>
        <path d="M222.86,247.52c5.17-2.57-2.85-1.91-.49-5.01,3.28.56,5.86,2.66,8.44,4.58s2.38,5.29,8.05,2.44c2.83,2.17,9.48,4.72,13,6,.04.06,1.16-.14,1,.99-3.49.3-5.04.35-8.06-1.43-1.3-.76-2.07-3.38-1.94.44-1.05,1.26-2.42.64-2-1-.43.33-.76,0-1-1-5.49.93-12.27-3.04-17-6Z" style="fill: #7b604a;"/>
        <path d="M234.86,241.52c1.49,1.73,4.41,2.46,3.99,5l-2.99-1c-5.26-6.37-6.95-2.67-10.97-4.48-5.89-2.66-7.59-5.72-16.03-8.52-4.04-1.17-6.37-3.17-7-6,11.58,3.39,22.26,9.57,33,15Z" style="fill: #a28569;"/>
        <path d="M201.86,226.52c2.15,1.45,5.48,3.88,7,6-.78-.26-2.49-.06-3.97-.49s-9.36-4.88-9.03-2.51l-1.99-1.98c2.45.23,2.66-2.05,2.99-4.02,1.86.32,3.51,2,5,3Z" style="fill: #856546;"/>
        <path d="M211.86,246.51c-.66.62-5.98-2.06-7.44-2.06-1.07,0,.15,2.51-1.54,2.05v-5.99c.73-.55,10.89,4.2,8.98,5.99Z" style="fill: #a07f61;"/>
        <path d="M210.86,238.51c-4.23.78-6.85-3.06-9-5.98,3.85.6,7.83,1.91,9,5.98Z" style="fill: #987757;"/>
        <path d="M191.86,244.52c.17,0,1.73-1.62,2.95-.61l7.05,4.61c-3.66-.11-6.89-3.04-9.99-3.99Z" style="fill: #352a23;"/>
        <path d="M191.86,244.52c-.19-.06-2.04,2.18-3-.99,1.15-.4,2.45.97,3,.99Z" style="fill: #9e815f;"/>
      </g>
    </g>
    <path d="M214.86,258.52c5.03,2.14,8.41,6.48,12.5,9.98,2.9-5.95,3.24-1.61,6.53.48,1.63,1.04,3.32,1.28,4.96,2.54l1.51,6.98-5.5-1.98.99,4.99c-2.73,1.3-3.05-1.92-3.58-2.03-2.24-.43-2.77.88-3.42,1.04-1.92.47-2.39.69-5,0l.72,2.38-.72.61c-.31-.35-.69-.64-1-1-1.48-1.74-4.07-3.54-6-5-2.35-3.41,2.05-5.15,1.99-5.47-.09-.49-1.24-1.38-1.4-2.42-.63-4.13-1.5-7.02-2.58-11.11Z" style="fill: #4f4236;"/>
    <path d="M178.86,267.52c-.06-.2-.77-.56-1-1,.06.25.79.63,1,1Z" style="fill: #7a746c;"/>
    <path d="M139.86,185.52l1,1c.09.31-.09.69,0,1,.37,1.32,1.03,2.58.99,4-1.83-.39-3.61-.76-5.49-1.05s-4.07,1.31-3.51-1.95c.46-1.81-.32-4.94,0-7,1.32.79,1.32-.21,0-3-.4-1.83-3.2-4.85-1.99-8,7.02.15,7.49,9.79,8.99,15Z" style="fill: #785a3d;"/>
    <path d="M140.86,192.52l1,2.99c-3.6.49-5.83-.08-9-.99,3.13,1.15,5.96-1.65,8-2Z" style="fill: #a1835d;"/>
    <path d="M240.86,254.52l-.98,1.01-.02-2.01c.8.29.93.96,1,1Z" style="fill: #352a23;"/>
    <path d="M100.86,168.52c1.97-.66,3.76-.71,5,1,4.76.75,2.5,6.08,0,9,.2.48-.21,1.54,0,2l-9,1c-.02-.11-1.45-.66-1-1.99,2.13.77,3.63-.67,5-1.01-1.45-2.95-1.79-5.28-1-7-3.17-1.06-2.17-4.93,1-3Z" style="fill: #95795f;"/>
    <path d="M103.86,184.52c-.16,1.42,1.6,2.69,1.76,3.53.07.33-.75.43-.76.47-2.28.42-5.23-3.59-3.99-5,.51-.58,2.41.84,2.99,1Z" style="fill: #b4977d;"/>
    <path d="M83.86,170.52c.33-.03.86-.61,1.49-.56,2.84.24,10.07,4.21,9.51-.44,2.79.55.84,5.25-.73,4.51-.57-.27,1.85-1.58,2.73-1.51.46-2.6,1.14-2.55,3-1,.48,1.35,3.33,4.66,3.99,6.51-.27,1.07-2.13.28-2.99.49h-8c-1.52,1.15-2.04.64-1-1-2.31-3.21-3.99-3.85-7-6-.38-.27-.68-.66-1-1Z" style="fill: #563f2d;"/>
    <path d="M91.86,177.52c.27.38.85.7,1,1,.41.85.39,2.13,1,2.99-3.92,1.07-6.16-4.5-2-3.99Z" style="fill: #a68563;"/>
    <path d="M100.86,161.52c-2.44-4.62,7.57-4.8,8.15-.28l4.85,7.28,4.23,9.06-1.23,1.94c.87,4.39-8.09-.15-11-1-.55-1.32-3.27-3.51-1.5-5l2.5,1.99c-.54-2.18-.14-3.88-.99-6-2.97.26-6.63-5.55-5-8Z" style="fill: #5f4431;"/>
    <path d="M118.86,183.52c-.06-2.5-1.61-2.99-2-4-1.37-3.53-3.11-7.07-3-11-.64-.3-.63-.63,0-1,1.03,1.92,5.32,7.15,5.79,8.7.54,1.77.87,5.9-.79,7.3Z" style="fill: #8f7251;"/>
    <g>
      <path d="M146.86,285.52c-.16-1.02-1.53-2.43-1-3.99,2.29-.94,4.56,1.7,6.02,1.52,2.83-.35,1.53-2.71,2.18-3.32.57-.54,2.33.02,2.65-.29,1.3-1.25-1.5-8.67-.84-10.91,6.74.74,5.34,1.33,7.99,7,.39,2.43-2.18,5.22-4.14,6.89.53,4.49.58,8.8-5.06,7.65-.31,1.11.74,1.84,3.16,2.18.29,2.2.98,3.96,2.04,5.28-1.09,2.97-1.35,6.85-2,10-1.16-.97-1.16-3.64-3.51-4-1-.15-.08,2.02-.67,2.79-.47.6-1.65.07-1.82.21h-7c-1-7.92,6.71-2.59,8.01-8.49.6-2.73-1.89-.13-2.55-1.42-.91-1.78.75-4.76-2.46-4.09.07-.31-.06-.67,0-1,.35-2.98.01-4.98-1-6Z" style="fill: #816a4b;"/>
      <path d="M164.86,271.52c1.75.78.53,3.35.15,4.64-1.9,6.51-2.78,11.01-6.14,16.88-1.51,2.63,3.78-.86,1.99,2.48-.27.68-.75,1.31-1,2l-2.99,1.99v-6s-4.01.01-4.01.01c-.65-4.95.12-6.2,5-5,.45-1.93-.6-7.93.02-9.01.17-.29,3.78,2.43,3-4.01,1.59.53,2.17,1.61,3,.01.37-.72.84-3.02,1-4Z" style="fill: #614e36;"/>
      <path d="M146.86,285.52c4.16-.66,1.33,4.06,1,6-1.4-1.87-.71-4.1-1-6Z" style="fill: #6f5437;"/>
      <rect x="155.87" y="280.52" width=".98" height="2.99" style="fill: #a2875e;"/>
    </g>
    <path d="M178.86,270.52c0-.64.11-1.45,0-2,.91.33,1.31.4,1,1.49l-1,.51Z" style="fill: #7a746c;"/>
    <g>
      <path d="M276.86,296.52c6.93,3.41,11.84,11,16.98,16.52,1.39,1.49,2.32,2.63,2.02-.52,3.49,1.23,7,5.23,6,9,3.69.02,6.82,7.83,6,11l2,2c.6-.03.91.34,1,1,4.98,4.53,8.31,9.53,10,15,7.78,11.59,15.83,22.91,23.98,34.25,1.01,1.4,4.65,1.88,2.52,4.75l-4.5-2.99c-.96,1.11,3.48,5.34,1.5,6.99-4.51-3.09-8.97-7.78-12.51-11.99-.96-.58-1.96-1.58-3-3-4.02-9.86-8.34-11.65-14.51-18.99-4.24-5.03-30.08-35.49-32.49-36.01-.78.52-1.09-.02-1-1-1.42-2.49-4.2-4.04-5-7-.19-1.02-.85-1.69-2-2-.34-.02-.7.06-1,0l-2-2c-.35-.29-.66-.69-1-1-2.53-5,3.5.94,3.99,1-.63-3.22-3.18-6.01-4.99-9-.36-.6-.33-1.99-1-3,9.66,1.49,10.26,13.68,19.99,17,1.44-1.59-9.01-11.89-9.5-13.04-.7-1.61.65-3.36-1.49-6.96Z" style="fill: #41362d;"/>
      <g>
        <path d="M317.86,339.52c1.29,2.67,1.85,4.35,3,7,.37.86.49,1.92,1,3l-1,1c-2.67-3.99-8.72-10.8-10-15,2.49-.82,5.48,2.25,7,4Z" style="fill: #8c8071;"/>
        <path d="M331.86,381.52l-1.99,1c-.3-1.28-.52-2.8-1.01-4,2.99-.45,2.47,2.37,3,3Z" style="fill: #716c68;"/>
        <path d="M275.86,315.52c-1.01-.42-1.65-.93-2-2,.41.02,1.58-1.53,2.99-.57,1.04.72,1.62,3.23,2.99,4.08-1.15.8-1.97-1.47-2.99-1.96-.52-.25-.94.47-.99.45Z" style="fill: #5f4f40;"/>
        <path d="M281.86,323.52c-.12-.03-.03,2.04-1.54-.01-.4-.54.57-.94.54-.99l1,1Z" style="fill: #9ea0a1;"/>
        <path d="M272.86,313.52c-1.02-.22-1.59-1.11-2-2,.72.59,1.71.81,2,2Z" style="fill: #5f4f40;"/>
        <path d="M305.86,320.52c-1.21.68-2.54,1.01-4,1-1.17-1.97-4.62-7.25-6-9-.28-.36-.72-.62-1-1v-1c4.79,2.37,8.36,5.37,11,10Z" style="fill: #6a5f51;"/>
        <path d="M305.86,320.52c.74,1.3,3.42,7.29,4,9,2.16,3.06,2.5,5.06,1,6-.34-.32-.69-.65-1-1l-2-2c-2.54-3.43-3.87-7.41-6-11,.86-4.84,1.78-2.01,4-1Z" style="fill: #97846f;"/>
        <path d="M295.86,326.51l-3.5-1.97c-2.39,6.51-4.48,3.85-4.49-2.02l2.98,2.99,1.51-3.97,3.5,4.97Z" style="fill: #615347;"/>
        <path d="M304.85,344.52c-.36.4-5.4-4.64-4.99-4.99,1.83-.64,5.94,3.92,4.99,4.99Z" style="fill: #82786f;"/>
        <path d="M309.86,334.52c-.57-.64-1.2-.92-2-2l2,2Z" style="fill: #736554;"/>
      </g>
    </g>
    <path d="M154.86,157.52c1.74,2.46,6.71,8.31,9,10-.94,3.58-.66,6.65,1,9.99-2.3.19-3.82-1.33-6-1.99-1.15-.35-2.83.04-4-1,.01-1.88-.63-2.59-1-4-.47-1.77-2.35-7.71-3.26-8.72-.97-1.07-3.6-1.11-3.74-1.29-.64-.83,2.12-3.45,2.12-5.49,0-.59-4.12-9.28.9-6.02,2.09,1.36,3.59,6.55,4.98,8.52Z" style="fill: #c4b399;"/>
    <path d="M109.86,156.52v1c-1.17,3.91,2.34,4.9,3.47,7.07.58,1.11.32,2.53.53,2.93v1c-4.26-1.33-5.25-8.23-8.58-8.96l-1.26.18c.08,4.74-3.33-3.18-3.16,1.78-2.11,1.71-4.64-5.53-4.08-6.56,1.82-3.34,6.38-3.31,8.5-.05,2.37-.47,3.9.06,4.58,1.61Z" style="fill: #8b6b4b;"/>
    <path d="M132.86,178.52l5.42,5.08,1.6,5.4c-7.37.66-5.63-1.66-7.01-7.49-.2-.85.19-2.12,0-3Z" style="fill: #513624;"/>
    <path d="M143.86,172.52l1.5-2c2.48,2.2,4.54,4.29,5.4,7.61l-4.9.39c-.57-2.85-1.12-3.61-2-6Z" style="fill: #5f402a;"/>
    <path d="M140.86,186.52l-1-1c.02.07.81.34,1,1Z" style="fill: #8f7251;"/>
    <path d="M120.86,184.52c.07-.02.89-.84,1-1l-1,1Z" style="fill: #8f7251;"/>
    <g>
      <path d="M178.86,177.52c-5.43-5.4,5.33-6.65,9.51-6.07,3.39,1.3,6.55,1.99,9.49,2.07,2.02,2.91,4.09,5.79,6,9,.48.93.48,1.6,0,2-.51-.6-1.12-2.15-1.5-2-2.29,1.27-.92,4.68-1.65,5.84-.62.98-4.81.37-3.84,2.65.57,1.34,6.11,6.06,6.99,4.52l.5-3c2.09,2.42,5.07,4.52,6.94,7.05.64.86,2.58,3.38.56,3.94-2.72-4.99-4.32-7.32-10.44-6.93-1.68.11-3.08,1.6-4.03,1.56-.35-.02-5.69-2.15-6.53-2.62.93-1.38-1.12-5.8-.13-2.47.24.8.21,1.64.13,2.47-1.41.53-2.76,1.93-4.37,1.81-1.37-.11-1.94-1.46-2.63-1.81l-.23-1.6c-2.7-1.54-3.63-3.34-2.77-5.4-2.33-2.51-2.57-4.7-.71-6.57-2-1.45-2.43-2.93-1.29-4.43Z" style="fill: #826142;"/>
      <g>
        <path d="M203.86,184.52c.71.39,1.38,1.06,2,2,1.27-.46,1.61.9,1,2-1.13,1-1.13,2.02,0,3,.48.27,6.53,8.23,6.77,8.73.96,1.93,1.3,4.13,1.23,6.27-.21.1-.64-.05-1,0-2.07-.61-1.59-2.25-2-3-.58-6.28-6.39-8.49-12.29-7.31-4.46-2.51-7.43-7.55-.81-9.17-.02-5.08,3.37-9.13,5.1-2.51Z" style="fill: #957657;"/>
        <path d="M180.86,188.52c2.05,1.86,3.66,4.74,6,6.5l-3,.5c-.65-.33-1.37-.67-2-1l-2-1c-.33-.25-.71-.68-1-1-.2-2.55,1.62-1.09,2-4Z" style="fill: #a38064;"/>
        <path d="M196.86,171.52l1,1c.14.27-.15.78,0,1-1.76,6.03-3.02.13-7,1.99,1.32-2.28,1.09-2.18-1.7-2.57-4.05-.56-6.33,2.57-10.29.57v4.01c-1.32-1.63-4.21-2.62-4.01-6,3.12.09,5.61-1.98,8.53-2.06,3.4-.1,10.62,2.51,12.47-.94.15,1.07.45,2.07,1,3Z" style="fill: #9e7b55;"/>
        <path d="M205.86,186.52c-1.26-.24-1.43-1.33-2-2v-2c1.17,1.96,1.13,2.19,2,4Z" style="fill: #73553d;"/>
        <path d="M197.86,172.52c-.35-.3-.76-.6-1-1,.89-.14.76.54,1,1Z" style="fill: #826142;"/>
        <path d="M198.86,186.51c-7.79.22-13.14-.9-15.99-8.99,6.21-2.05,14.7,2.42,15.99,8.99Z" style="fill: #6c4a30;"/>
        <path d="M190.86,195.52c-7.48-4.19.62-9.24,2.98-1.47.75,2.48-1.95,1.09-2.98,1.47Z" style="fill: #9a7d5e;"/>
      </g>
    </g>
    <path d="M82.86,137.52c2.52.44,3.85,2.11,4,5,2.63-.44,5.36.7,8.19,3.41,2.4-2.02,3.68-2.15,6.22-.54,1.84-.95,3.37-.9,4.59.13.21-3.62,1.88-3.96,5-1,2.63-.7,2.94.15,1,2l1,1c2.95.11,6.07,7.89,4,10-2.55-3.01-3.54-.52-5.49-.42-.72.04-1.31-.6-1.51-.58-4.41.28-4.76,2.03-8.5-3l-.65,1.77-1.84-.77c-.87,3.55.77,4.72,1.99,7.01,1.54,2.9,3.87,5.17,5,8h-1.99s.99,2.99.99,2.99c-3.07.45-3.04-2.27-4-3.99l-2.54-.52c-4.19-10.75-10.86-20.2-20.01-28.34-2.04-4.26,4.83-7.54,4.56-2.14Z" style="fill: #b7a282;"/>
    <path d="M127.86,151.52c.21-.88.54-.85,1,0,4.06,2.64,8.48,5.46,7.99,11l-17.34-.94c-.24-.06-2.29-3.38-2.66-4.05-1.51-2.75-3.17-6.91-4-10,.43-.83,1.64-1.02,2,0l1-1c1.92-1.49,6.24-1.79,4.75,1.63,2.07,1.75,4.59,2.88,7.25,3.37Z" style="fill: #bfaf97;"/>
    <path d="M163.86,140.52h1c-.26,1.39-1.05,2.24,0,4-1.68-.46-6.42-3.32-6.99-1.01,3.54.75,6.76,2.5,9.99,4.01.11,2.75-1.17,5.84-1.11,8.49.04,1.88,1.71,1.85,2.11,2.51-6.77-2.86-10.76-6.39-16-11-2.51-.02-6.09-2.56-5-5,3.16-4.62,12.51-6.77,16-2Z" style="fill: #654833;"/>
    <path d="M129.86,132.52c.87.28.86.62,0,1,3.18.68,8.77,4.91,8,8-4.36-.75,1.03,4.72,1.49,5.05,1.02.74,2.56.09,3.53,1.35.64.83,4.17,8.32,3.97,9.06-6.53,5.45-8.28-2.03-11.99-4.45-.87-.28-.86-.62,0-1-.25-3.4-1.49-7.77-5.49-8.01-.55,2.33,4.34,5.71,1.49,8.01-3.46-1.61-4.57-6.64-5-10,1.72,3.38,1.92,4.61-2,5.65,2.91.93,4.24,2.38,4,4.35-6.94.57-7.2-5.37-12-5l-1,1c-.52.06-1.62.12-2,0v-1c-.37-2.61,2.1-4.03,4-2,1.78-6.42,4.11-8.09,7-5,1.55-1.8,2.22-1.14,2,2-1.56-1.62-.89-3.5,1.99-5.66-1.43-1.9-1.77-3.35-.99-4.34l3,1Z" style="fill: #9d7e5a;"/>
    <path d="M130.86,151.52c-.63.09-1.48-.16-2,0-.26.08-.65-.03-1,0l-6.99-3.51c-.49-2.43,4.57-3.4,4.82-3.62.6-.55,0-2.06.17-2.86,2.24,3.07,4.72,5.56,5,10Z" style="fill: #7d5d3e;"/>
    <path d="M129.86,133.52c3.32-3.78,8.19-.28,11.01,3.03.48.57.78,1.25.99,1.97,2.13-2.4,7.3.96,6,4,2.09,2.26,2.28,2.61,5,5-5.32,2.85-8.23-6.95-9.49-6.93-.57,0-1.61,2.89-5.51.93-.67-.34-7.93-7.44-8-8Z" style="fill: #886a4b;"/>
    <path d="M134.86,151.52v1c-.12-.08-1.39,1.55-2-.99h2Z" style="fill: #bfaf97;"/>
    <path d="M169.86,138.52c-.29-.34-.66-.7-1-1l1,1Z" style="fill: #6a503b;"/>
    <path d="M139.86,118.52c3.45,1.47,6.96,2.75,10,5s6.51,5.02,7,9l-.37,2.36c-8.64-1.88-12.91-1.09-12.83,2.38l-1.79,1.26c-.27-.16-1.59.33-2.68-.3-2.27-1.3-4.3-6.45-9.32-4.7v-1c6.28.99,1.17-6.3-1.98-2l-2.01-5c3.33-1.08,5.55,2.3,8.04,2.49.62.05,3.34-.18,2.95-1.49-1.8-.26-3.42-1.17-4.99-2.01-2.13-1.46-2.23-2.3-.32-3.93s6.05-3.53,8.32-2.07Z" style="fill: #5a4332;"/>
    <path d="M156.86,132.52c3.16.22,6.66,4.79,7,8-2.94-.64-8.41-.56-11.32.02-.42.08-1.62,3.48-4.68,1.98-1.23-1.33-4.22-2.9-6-4-2.03-9.1,7.39-6.16,12.72-5.32,1.08.17,2.01-.69,2.28-.68Z" style="fill: #443326;"/>
    <path d="M139.86,118.52c-4.41-1.02-2.39,2.11-3.12,2.82-.8.79-5.39-.72-4.88,3.18-2.74-1.47-5.82-2.63-8-5-.71-.77-1.35-2.07-2-3,2.94,2.51,1.59-1.25,3.62-1.88,4.39-1.39,10.5,2.23,14.38,3.88Z" style="fill: #7a5c41;"/>
    <g>
      <path d="M69.86,105.52c5.06-3.11,13.09-6.41,14.01,2,2.68.54,1.46-.62,2.48-2,2.17,2.56,7.32,6.54,8.49,9.51.52,1.32-.11,1.73-1.42,1.43-4.84-1.11-9.35-5.71-14.56-5.94l5.99,6.5c.18.4-4.48,1.45-5,3.5l-1.01.95c-2.42-.63-3.67.27-3.75,2.68-.64,12.25-8.96,7.84-9.74-2.29-1.58-.46-4.35-1.55-4.5-3.34.1-.28-.09-.68,0-1,1.06-1.75,1.73-3.75,2-6,.27-1.26.55-2.85,1-4,2.64-6.71,4.11-1,4.5-.97,1.57.12,1.18-.83,1.5-1.03Z" style="fill: #31271f;"/>
      <path d="M60.86,118.52c3.05,2.72,4.96,1.02,7.99,0-1.85,5.88-4.02,9.42,2.51,12.98,2.65.05-.83-16.58,8.5-10.98-.27,1.08.21,2.8,0,4,.86.24.84.58,0,1,2.58,4.72.36,17.58-5.75,8.11-1.12.92-2.2.55-3.25-1.11-.3.35-.61.67-.99.86-3.05,1.53-8.33-10.12-9.01-12.86h-1c.29-.56.85-1.58,1-2Z" style="fill: #604835;"/>
      <path d="M60.86,117.52c.57-1.96,1.12-3.92,1-6h1c-.42,1.95,1.01,5.11-2,6Z" style="fill: #604835;"/>
      <path d="M69.87,113.53c1.88,1.69-5.57,4.42-6,3.98l1.01-6.99c1.54-.28.92,1.67,2.04,2.48,1,.71,2.79.38,2.95.53Z" style="fill: #604835;"/>
    </g>
    <path d="M70.86,132.52c3.11.63,5.6,3.34,7.44,8.13,3.27,4.04,4.46,7.67,3.56,10.87.89.28.87.61,0,1,1.43,3.3-1.74,3.14-2,0l-1-1c-2.17-.35-2.15-1.53,0-2l-6-6c-.27.83-.61.81-1,0-.51-5.43-2.37.08-2.56.08-6.03.09-1.95-6.04-3.44-9.08-1.67-3.42-6.93-5.03-7.07-5.64-.65-2.78,1.78-5.64,2.07-8.36,4.37,1.65,4.19,5.68,5.96,8.53.94,1.51,3.46,2.64,4.04,3.47Z" style="fill: #b2997b;"/>
    <path d="M64.86,137.52c-.17,1.46.12,3.01,0,4.49-4.14,2.43-5.3-5.11-7.01-7.49l1.99-4c.18,2.71,1.8,6.75,5.01,7Z" style="fill: #66472e;"/>
    <path d="M56.86,127.52c-.63,2.14-.63,3.77-1,0h1Z" style="fill: #b2997b;"/>
    <path d="M69.86,145.52c2.27-1.83,7.04,4.52,8.48,6.68,1.25,1.43,2.88,3.12,3.52.32-.13-.27.13-.73,0-1-.74-1.68-.59-2.17,1.02-2.67,6.33-1.96,18.76,18.4,13.98,23.67-1.31.97-.99,6.18-7,.5,3.09-1.4,8.32,1.29,5-3.5-.15-.22-1.07-.33-1.46-1.03-1.4-2.55-.58-5.7-5.06-6.95-2.92-.82-.15,5.63-3.47,5.98.46-5.53-4.31-6.62-7.01-9.5-1.56-1.67-2.53-3.68-4.48-5.52-.46-.44-7.18-6.85-6.53-1.97-.53-.68-2.45-1.34-2.98-2.5,1.4-3.06,4.56-1.91,5.98-2.5Z" style="fill: #75573e;"/>
    <path d="M72.86,143.52l6,6c.23.36-.23,1.58,0,2l1,1c.44.34,1.1.52,1.5.97l.5-.97c.97,2.07,3.06,3.94,3.77,6.73.25.97,1.14,5.33-.76,5.27.15-1.75-.06-3.01-.95-4.56-.68-1.18-9.02-10.31-10.73-12.16-1.07-1.16-1.56-1.95-3.33-2.28.19-.08.75-1.63,2-2,.25-.07.73-.03,1,0Z" style="fill: #9e7f5a;"/>
    <path d="M79.86,125.52c3.38-2.86,8.1,3.13,4.32,5.59,1.64,1.39,2.2,2.86,1.68,4.41,3.13,3.19-1.1,5.51-3,2-.71-.1-1.81-1.35-2.99-1-2.31,2.48,10.6,12.38,12.43,15.06,3.06,4.47,5.74,11.87,8.56,16.94-1.15.07-1.25,2.31-1,3-.6,1.25-2.69.77-3,1-1.15-7.85-3.7-16.36-10.87-20.68-1.6-.97-2.32-1.8-4.13-.32-2.85-5.9-7.59-14.08-11-19,2.11,1.09,1.99-3.7,3.98-1.99.35.3,1.65,4.92,4.01,4.99.22-2.48-.3-5.15-.04-7.59.14-1.34,1.02-2.19,1.05-2.41Z" style="fill: #9e7f5a;"/>
    <path d="M100.86,132.52c1.62.26,3,.91,4.15,1.97-.22-2.13.4-3.45,1.85-3.97,1.6-2.29,4.58-.7,4,2,2.69-.07,3.61,1.62,1,3,.1,1.21.44,1.88,1,2,1.97-.65,2.34.36,1,2,.95,2.45-.81,3.14-3.12,2.17.89.68.52,1.81.12,2.83-4.34-2.3-3.69.32-5,1-.8.09-1.82,0-2-.62-.97-3.38-5.66-7.51-8.28-2.28-3.62-.88-6.53-.91-8.72-.1-1.71-1.39-3.98-2.35-4-5,1.67.24,3.83.11,3-2l2.21-.77c4.58,4.38,6.08,1.86,4.48-7.55l2.31-.68c1.86,1.76,3.31,4.81,6,6Z" style="fill: #8e704e;"/>
    <path d="M86.86,142.52c-2.79-4.61,6.69-2.33,7.99-.99v-3.03s2,1.02,2,1.02l1.49-5,5.02,6.99,2.49-1.99v6c-3.45,1.81-4.59,3.07-7.99,0l-.5,3.99c-3.64-1.8-7.37-4.45-10.51-6.99Z" style="fill: #76593f;"/>
    <path d="M113.86,139.52c3.03-.28,4.69,2.45,3,5-.52.09-2.76,2.02-4,2-.3.5-.64.49-1,0-.42-.46-.57-1.56-1-2-.7-.73-4.18-3.65-3.99-3.98,1.73.62,2.07-2.14,2.46-2.01,1.33.43,2.51,2.73,4.53.99Z" style="fill: #76593f;"/>
    <path d="M112.86,147.52c-.65-.2-.7-.67-1-1h1v1Z" style="fill: #ab906c;"/>
    <path d="M114.86,147.52l1-1c-.24.02-.71.97-1,1Z" style="fill: #ab906c;"/>
    <path d="M115.86,133.52c-1.24-3.41-2.23-5.31-.99-9,1.77.97,3.94.96,5.72,1.78,2.62,1.21,5.21,3.33,6.27,5.23.66,1.19,1.06,2.41,1.98,3.5,1.98,2.37,5.97,3.14,6.01,6.5-.39.42-4.93-3.48-6.46-3.61-3.32-.29-2.21,2.06-2.53,3.61-.2-.27-1.38-1.29-2-2-2.76.52-2.84.02-1-2,3-2.87-2.55-4.71-5-4,1.16,3.64-3.2,3.68-2,0Z" style="fill: #76593f;"/>
    <path d="M79.86,124.52c4.04.3-.11-4.3,5-3.01-.92,5.37.78,5.14,4.99,7.01l-.48-5.01c3.02-.34,3.88,1.49,5.49,3.01-1.54,2.57,1.76,9.67-.93,11.57-2.86,2.01-5.99-.85-8.07-2.57-1.86-1.54-3.7-2.64-4-5.46l3-2.03-5-2.5c.04-.33-.06-.68,0-1Z" style="fill: #5e4431;"/>
    <path d="M112.86,131.52c.49.54,2.22,1.57,3,2,.16.09,1.44,1.96,2,0,2.33-1.3,6.79,1.12,5,4,.41.45.57,1.51,1,2-4.88-.64-3.82,4.55-5.03,6.01-.21.25-1.73-1.05-1.97-1.01-1.06-1.59-2.13-3.31-3-5-.35-.67-.62-1.32-1-2-.62-.22-.96-.88-1-2-.32-.53-.15-2.26-1-3-1.11-2.58.18-3.04,2-1Z" style="fill: #ab906c;"/>
    <path d="M102.86,126.52c3.3.99,4.63,2.33,4,4-.24,1.47,1.55,5.16.99,6-.13.2-2.92-1.97-3.01,2-1.16.97-3.56-5.04-3.98-6-.46-1.05-2.08-3.76-1.95-3.94s2.93.07,1.96-3.06c.22-.33,1.38.83,1.99,1.01Z" style="fill: #ab906a;"/>
    <path d="M112.86,131.52l-2,1c-.36-.32-2.75-1.04-4-2s-2.94-2.8-4-4c2.51.72,6.25.65,8.02,1.5s1.57,3.05,1.98,3.5Z" style="fill: #76593f;"/>
    <path d="M78.86,149.52c-2.3-1.72-5.85-2.72-6-6,2.56.28,4.56,3.75,6,6Z" style="fill: #9e815e;"/>
    <path d="M79.86,152.52l-1-1c.09.16.77.82,1,1Z" style="fill: #9e815e;"/>
    <path d="M112.86,137.52l-.99,1v-3c.47.81.67,1.42.99,2Z" style="fill: #76593f;"/>
    <g>
      <path d="M92.86,183.52c3.97.55,6.42,2.65,9.39,5.6,1.09-.39,1.96-.25,2.61.4,1.32-2.66,1.88-2.78,3,0l1,1c.58-1.88,2.82-2.68,4-1,1.93-.61,3.59-.61,5,0,1.15-.8,1.73-.27,1,1,4.59,2.61,2.24,3.71-2,3-2.36,1.22-.16,2.09,6.61,2.6l.39,1.4,1.71-.08c2.55,3.53,7.14,6.31,8.73,1.09h1.56c1.25-2.15,3.47-1.31,4,.99,4.18,1.02,8.19,3.15,12.04,6.38,6,.55,7.98,2.42,5.96,5.62,3.04-1.49,5.04-1.49,6,0,.86-2.63,1.86-3.3,3-2,.95-.28,1.28.05,1,1,7.87-.82,10.7.99,8.48,5.41l.52,3.59c.9.25,1.75.8,1.85,1.73.38,3.42-6.08,11.21-9.85,6.27l-.27,1.72c3.37,3.11,3.66,3.94,1.27,7.91,3.62.62,5.62,2.08,6,4.37l.83-.84c8.2,4.39,18.93,5.75,28.19,6.33,3.43.73,10.93,4.72,11.98,7.5,3.56-1.64,5.56-1.3,6,1l3,1c6.26-.13,11.69,1.56,16.26,5.08l3.74.92c2.06-.75,13.02,6.91,12.43,6.51l-14.49-9.24.07-1.27c-2.19-1.51-2.53-2.51-1-3-1.59-1.37-2.12-2.99.25-2.81,2.9,2.27,5.81,3.21,8.75,2.81-1.89-1.14-3.17-2.08-.92-3.26.81-.42,9.87,5.37,8.92,7.26,2.33,3.5,4.84,3.78,8,4,.23-.93.57-.9,1,0l1,1c.19-.88.53-.85,1,0,4.37-.44,8.4,1.29,12.09,5.21,2.01-1.39,3.14-2.09,3.31.77,2.13-1.52,3.33-1.51,3.6.02-2.5-.19-2.36-1.15,0-2-2.17-.93-2.11-4.01,0-5,1.8.74,2.27,2.44,3,4,1.61,3.43,2.03,7.17,6,9,1.48-1.24,2.02-.68,1,1,.64.98,1.41,2.06,2,3,3.69,5.82,7.27,11.55,10,18-1.46,1.47-2.33.69-3.58-.5-6.46,6.16-8.58-.9-9.92-6.73-1.43-2.54-4.97-7.09-7.75-7.68,8.46,6.11,10.45,20.2-3.23,8.82-8.17-3.58-16.01-7.84-23.53-12.79-.99,1.61-2.65,1.9-4.99.87-1.96,1.25-4.62.25-8-3l-.94.78c-4.09-4.5,5.09,4.09,3.94,6.22,3.1-1.45,15.69,8.36,10,11,2.93.47,3.6,1.47,2,3l-2-1-2.52.12c-6.13-7.2-12.45-14.34-19.36-20.83l-3.13-5.29c-2.81,2.36-6.69-1.25-9.02-3.43l-2.15,1.87c-2.69.37-11.21-8.66-12.84-11.43-1.58,2.35-3.68,1.83-4-1l-1.29-.28c-2.03,2.73-4.53,3.95-7.48,3.66-.24,9.5-6.88,4.15-9.23-1.38-2.16,1.14-4.29-2.35-3-4-2.28-1.37-5-2.42-8.17-3.14-3.36-4.95-12.38-6.43-6.83.14.88.3.87.63,0,1,2.96,4.6-3.76,4.78-6,2-1.13-.34-1.27-1.71,0-2l-1-1c-1.5-.71-2.96-1.96-4.39-3.75-4.97.59-4.9-3.77-3.95-7.6-6.08-.32-10.63-2.53-13.66-6.65-3.23,1.24-6.2-.15-8.91-4.18-2.53.15-3.9-1.12-4.09-3.82-3.71-2.52-7.53-5.19-11-8-1.65-1.34-3.38-2.65-5-4l-5.41-2.35c-6.61-6.87-13.81-13.09-21.59-18.65-.14-.23.14-.72,0-1-4.86-2.22-4.52-5.22,1-9,.05-1.61,1.44-1.4,2,0Z" style="fill: #352a23;"/>
      <path d="M267.86,299.52c1.73.86,3.1,1.9,1,3-2.34,2.43-5.22-.71-3-3v-1c.32-.87.65-.86,1,0,1.4-1.45,1.99-.85,1,1Z" style="fill: #352a23;"/>
      <path d="M287.86,257.52c.52,2.15,1.57,3.88,2,6,.51,2.53.92,2.39,0,5,.11,1.28-2.03,1.08-2.78.57-.15-.1,2.6-.49,2.78,1.43h-6s4.99,5.5,4.99,5.5c.16.74-1.05.68-1.48.49-2.1-.94-9-9.19-11.99-11.1-.98-.63-2.94-.56-4.52-.89-1.2-2.95.86-2.24,3-1,2.18.21,9,3.79,9.51,3.77,3.95-.19,3.61-6.98,1.48-9.26l3.01-.51Z" style="fill: #584131;"/>
      <path d="M116.86,214.52l-14-1.01c2.53-5.33-1.14-3.59-3.58-6.92-1.45-1.98-1.27-3.9-2.4-5.59-1.76-2.61-5.69-5.3-7.02-7.48,4.24,2.42,9.67,5.08,13.5,8,4.92,3.75,8.8,9.09,13.5,13Z" style="fill: #7d6448;"/>
      <path d="M145.86,234.52c2.1,1.39,2.43,2.39,1,3l-4-1c-.86,1.66,1.82,2.31-2,3-3.13-2.53-1.76-7.96-5.51-8.99-1.26-.35-.4,6.34-3.49,5,.49-1.69-.73-3.31-.88-4.57-.03-.24,3.38-1.23,1.88-4.44,4.47,3.04,8.12,5.66,13,8Z" style="fill: #826847;"/>
      <path d="M210.86,257.52c-5.89.15,1.99,6.09,1.98,6.5-.99.82-2.01,2.8-3.47,2.49-2.44-.52-.03-6.08-3.51-5,1.47,4.25-3.62,6.28-7,5l-.02,4.01c-2.54-.77-2.27-3.83-3.31-5.69-.62-1.12-3.19-1.26-2.68-5.31.61.69,6.29,5.85,6.99,5,1-5.38-1.39-3.23-3.51-4.94s-5.7-8.25-1.97-9.05c2.69-.58,7.46,8.6,9.11,8.93,1.31.26,3.28-2.46,5.16-2.81,1.61-.3,1.98.84,2.22.88Z" style="fill: #5c4a37;"/>
      <path d="M145.86,234.52c2.34,1.12,4.73,2.47,7.18,3.32s8.07.08,8.6,3.29c.27,1.64-2.08,4.63.21,5.93.74.42,2.25-.78,2.81-.43.29.18,2.55,4.84,3.2,5.89l1,1c.11.56-.01,1.35,0,2,.06,3.24-.88,5.51-1,8-.28.87-.62.86-1,0,.71-5.53,2.47-8.87-2.99-13,.92,1.71-1,4.52-1.01,5-.6-4.08-3.15-5.62-5.4-8.15-.52-.59-.36-2-.9-2.55-2.62-2.71-7.4-1.59-9.7-7.3-.36-.89-.31-2.12-1-3Z" style="fill: #665442;"/>
      <path d="M189.86,255.52l-3.01-1.49c-.05,2.67,6.7,11.8,5,13.49-7.35.88-8.07-8.25-10.59-12.9-.57-1.05-6.26-9.39-7.4-4.57.05.94.66,1.66,1,2.47-2.85.49-6.05-6.21-2.51-6.01,5.05.29,5.88,2.32,9.26,3.76,6.07,2.58,3.49-.81,8.24,5.26Z" style="fill: #514435;"/>
      <path d="M177.86,216.52c1.48,2.92,2.9,6.04,6,7.5-1.84,2.85-2.33-.18-3.47-.14-.93.03-2.19,1.83-3.52,1.65-.3,1.51,1.62.9,2.42,2.02.75,1.05.91,2.73,1.58,3.96l-6,1.01c-.28.87-.62.86-1,0-1.1-1.93-4.83-1.49-5-5,6.75-1.02,7.47-1.26,8-8,.1-1.32-.09-2.69.02-4.01.68-.09.85.99.98,1.01Z" style="fill: #b79f80;"/>
      <path d="M123.86,197.52c-1.16-2.67,4.49-2.81,6.01-.54-.06-1.62.98-1.83,1.99-.46.49-2.13,5.46-.18,4,2-2.24,2.45,3.33,3.94,3.99,5.51l-2,1.99,3.01,2c-3.73,3.22-6.82-4.94-8.62-5.41-1.36-.35-3.38,1.34-4.41.5s-1.44-4.79-3.96-5.6Z" style="fill: #5d4838;"/>
      <path d="M105.86,180.52c7.22.05,3.5,11.34-2,4-1.47.74-1.13,2.07,1,4,.87.29.86.62,0,1-.02.05-1.09-.05-.99.5.24,1.25,3.28.87,2.98,2.49-4.77-1-10.11-5.64-14-8.99.26-3.75,4.03-2.51,3.54-.12-.09.42-3.17-.4.46-1.88,1.72-1.64,8.17-3.31,9-1Z" style="fill: #563f2d;"/>
      <path d="M116.86,193.52c.72-1.4,10.77.83,10,.99-.87.18-3.48-.94-2-1.99,4.9.23,2.88.45,7,2,1.18.71,1.32,1.32,0,2,0,.1-.92.3-.92.54,0,.59,2.99-.07,1.92,2.46-3.34,1.32-4.95-2.34-6.66-2.79-1.04-.27-2.09.82-2.34.79-1.56-.2-8.62-1.24-9.02-1.48-.93-.57-1.11-2.24-1.96-3.02,1.78-2.64,2.29-.21,3.98.51Z" style="fill: #9b8065;"/>
      <path d="M245.86,262.52c-4.2,2.28-6.51-1.52-9.8-2.7s-6.82-2.13-10.2-3.3c3.17.14,5.35-.65,6.53-2.37,1.84-.27,13.41,5.72,13.47,8.37Z" style="fill: #624837;"/>
      <path d="M243.86,258.52l17,11.5c-.79,1.49-2.41-.23-3.29-.72-3.89-2.15-7.9-4.51-11.71-6.79-3.26-1.95-9.22-7.23-12.51-7.99-.87-.2-.57,2.53-1.91,2.75-.94.15-3.92-1.46-5.58-.76-.85-.3-2.2.09-3-1,3.07.19,7.76,1.04,9-2,3.83,1.61,8.14,2.9,12,5Z" style="fill: #755e4d;"/>
      <path d="M267.86,263.52c-.86.27-1.81,1.72-2.66,1.84-1.72.23-4.64-3.49-6.82-3.83l1.48-2.01c2.26,1.23,6.13,1.49,8,4Z" style="fill: #594432;"/>
      <path d="M124.86,192.52l2,1.99c-3.91.06-6.46.5-10-.99,2.4-.11,3.67-1.14,2-3,1.19.87,4.36,1.92,6,2Z" style="fill: #694d34;"/>
      <path d="M250.86,277.52c1.39,3.02,6.57,2.98,3,7-2.06-2.22-6.51-6.34-5.5-9,.75.71,1.55,1.59,2.5,2Z" style="fill: #756253;"/>
      <path d="M166.87,223.51c-.44-3.35,5.25-2.67,6.99-4.99-.2,4.34-2.94,5.68-6.99,4.99Z" style="fill: #807060;"/>
      <path d="M265.86,268.51c-3.17.19-5.23-.89-6-3.98l6,3.98Z" style="fill: #594432;"/>
      <path d="M163.86,211.52c-1.18.3-4.49.08-6,0l6.51-3.98-.51,3.98Z" style="fill: #9f856d;"/>
      <path d="M139.84,215.51c-.25.22-2.16-.11-2.97,0l1.01-5.99c2.72.06,2.95,5.13,1.96,5.99Z" style="fill: #5d4838;"/>
      <path d="M289.86,268.52c-.19.54.21,1.84,0,2-.36.27-3.02-.18-4,0l1-3,3,1.01Z" style="fill: #91806e;"/>
      <path d="M265.86,298.52v1c-.58-.64-1.25-1.1-2-2,.68.28,1.31.75,2,1Z" style="fill: #41362d;"/>
      <path d="M263.86,295.52h4s-1,3-1,3c-.2-.14-.68.12-1,0,.59-1.88-1.52-2.2-2-3Z" style="fill: #41362d;"/>
      <path d="M168.86,253.52c-.35-.3-.76-.61-1-1,.48.13.91.52,1,1Z" style="fill: #514435;"/>
      <path d="M269.86,264.52c-.38-.06-.84-.99-1-1l1,1Z" style="fill: #594432;"/>
      <path d="M108.86,190.52c-.66-.1-1.13-.26-1-1l1,1Z" style="fill: #563f2d;"/>
    </g>
    <path d="M117.86,133.52c.06-.2-1.33-1.79-1.01-1.99,3.17,0,9.26.99,9.98,4.51.54,2.63-2.68,1.17-3.98,1.48-1.41-1.54-3.31-2.78-5-4Z" style="fill: #503824;"/>
  </g>
</svg>