<?xml version="1.0" encoding="UTF-8"?>
<svg id="_圖層_1" data-name="圖層 1" xmlns="http://www.w3.org/2000/svg" xmlns:xlink="http://www.w3.org/1999/xlink" viewBox="0 0 865.79 893.91">
  <defs>
    <linearGradient id="_未命名漸層_128" data-name="未命名漸層 128" x1="252.54" y1="101.01" x2="640.2" y2="866.88" gradientUnits="userSpaceOnUse">
      <stop offset="0" stop-color="#d03311"/>
      <stop offset=".7" stop-color="#7c2100"/>
    </linearGradient>
    <linearGradient id="_未命名漸層_120" data-name="未命名漸層 120" x1="125.68" y1="125.68" x2="732.52" y2="732.52" gradientUnits="userSpaceOnUse">
      <stop offset="0" stop-color="#fb755e"/>
      <stop offset="1" stop-color="#d54627"/>
    </linearGradient>
    <linearGradient id="_未命名漸層_113" data-name="未命名漸層 113" x1="162.04" y1="162.04" x2="687.97" y2="687.97" gradientUnits="userSpaceOnUse">
      <stop offset="0" stop-color="#f93e1d"/>
      <stop offset="1" stop-color="#a22703"/>
    </linearGradient>
    <linearGradient id="_未命名漸層_97" data-name="未命名漸層 97" x1="197.28" y1="-57.38" x2="242.24" y2="-12.42" gradientTransform="translate(21.7 135.45) rotate(4.43)" gradientUnits="userSpaceOnUse">
      <stop offset="0" stop-color="#e7eee0"/>
      <stop offset="1" stop-color="#fbfcfa"/>
    </linearGradient>
  </defs>
  <circle cx="436.68" cy="464.81" r="429.1" style="fill: url(#_未命名漸層_128);"/>
  <circle cx="429.1" cy="429.1" r="429.1" style="fill: url(#_未命名漸層_120);"/>
  <circle cx="429.1" cy="429.1" r="371.89" style="fill: url(#_未命名漸層_113);"/>
  <path d="M278.86,128.91l-39.21,25.54c-13.19,8.59-30.84,4.86-39.43-8.32h0c-8.59-13.19,1.34-32.19,8.32-39.43,7.55-9.39,28.3-23.08,39.21-25.54,8.78-2.54,30.84-4.86,39.43,8.32h0c8.59,13.19,4.86,30.84-8.32,39.43Z" style="fill: url(#_未命名漸層_97);"/>
  <g>
    <path d="M504.28,421.35c30.08-31.85,59.07-64.64,86.89-98.44,18.42-22.37,18.32-53.38-.17-71.87l-.04-.04c-18.81-18.81-50.49-18.53-72.87.68-33.08,28.4-65.17,57.47-96.33,87.17-31.15-29.7-63.24-58.77-96.33-87.17-22.38-19.21-54.06-19.49-72.87-.68l-.04.04c-18.49,18.49-18.59,49.49-.17,71.87,27.82,33.79,56.8,66.59,86.89,98.44-29.65,31.09-58.36,62.82-86.1,95.19-19.17,22.37-19.4,54-.61,72.79,18.52,18.52,49.59,18.57,71.97.08,33.49-27.66,65.9-56.26,97.27-85.75,31.37,29.49,63.77,58.08,97.26,85.75,22.38,18.49,53.45,18.44,71.97-.08,18.78-18.78,18.55-50.42-.61-72.79-27.74-32.37-56.45-64.1-86.1-95.19Z" style="fill: #ae2f0e;"/>
    <path d="M517.3,439.22c30.58-31.85,60.04-64.64,88.33-98.44,18.72-22.37,18.62-53.38-.17-71.87l-.04-.04c-19.12-18.81-51.33-18.53-74.08.68-33.63,28.4-66.25,57.47-97.92,87.17-31.67-29.7-64.29-58.77-97.92-87.17-22.75-19.21-54.96-19.49-74.08-.68l-.04.04c-18.79,18.49-18.89,49.49-.17,71.87,28.28,33.79,57.74,66.59,88.33,98.44-30.14,31.09-59.33,62.82-87.53,95.19-19.48,22.37-19.72,54-.62,72.79,18.83,18.52,50.41,18.57,73.16.08,34.04-27.66,66.99-56.26,98.88-85.75,31.89,29.49,64.83,58.08,98.88,85.75,22.75,18.49,54.34,18.44,73.16-.08,19.09-18.78,18.86-50.42-.62-72.79-28.2-32.37-57.39-64.1-87.53-95.19Z" style="fill: #ed7461;"/>
    <path d="M507.44,431.49c30.08-31.85,59.07-64.64,86.89-98.44,18.42-22.37,18.32-53.38-.17-71.87l-.04-.04c-18.81-18.81-50.49-18.53-72.87.68-33.08,28.4-65.17,57.47-96.33,87.17-31.15-29.7-63.24-58.77-96.33-87.17-22.38-19.21-54.06-19.49-72.87-.68l-.04.04c-18.49,18.49-18.59,49.49-.17,71.87,27.82,33.79,56.8,66.59,86.89,98.44-29.65,31.09-58.36,62.82-86.1,95.19-19.17,22.37-19.4,54-.61,72.79,18.52,18.52,49.59,18.57,71.97.08,33.49-27.66,65.9-56.26,97.27-85.75,31.37,29.49,63.77,58.08,97.26,85.75,22.38,18.49,53.45,18.44,71.97-.08,18.78-18.78,18.55-50.42-.61-72.79-27.74-32.37-56.45-64.1-86.1-95.19Z" style="fill: #fff;"/>
  </g>
</svg>