<?xml version="1.0" encoding="UTF-8"?>
<svg id="_圖層_1" data-name="圖層 1" xmlns="http://www.w3.org/2000/svg" xmlns:xlink="http://www.w3.org/1999/xlink" viewBox="0 0 1686.5 778.33">
  <defs>
    <radialGradient id="_未命名漸層_127" data-name="未命名漸層 127" cx="843.25" cy="389.16" fx="843.25" fy="389.16" r="564.56" gradientUnits="userSpaceOnUse">
      <stop offset="0" stop-color="#bdccd4"/>
      <stop offset="1" stop-color="gray"/>
    </radialGradient>
  </defs>
  <polygon points="304.36 773.09 5.24 484.76 16.03 236.52 287.4 5.24 1397.56 6.01 1672.01 246.54 1681.26 493.24 1389.85 772.32 304.36 773.09" style="fill: url(#_未命名漸層_127); opacity: .4;"/>
  <g>
    <polyline points="1397.56 6.01 1672.01 246.54 1681.26 493.24 1389.85 772.32" style="fill: none; stroke: #d9fbff; stroke-linecap: round; stroke-linejoin: round; stroke-width: 10.47px;"/>
    <polyline points="287.4 5.24 16.03 236.52 5.24 484.76 304.36 773.09" style="fill: none; stroke: #d9fbff; stroke-linecap: round; stroke-linejoin: round; stroke-width: 10.47px;"/>
  </g>
  <g>
    <g>
      <path d="M832.27,248.72c-.41.64-.9.95-1.47.95h-17.17c-.08,0-.13.08-.11.15l13.98,42.81c.23.69.23,1.33,0,1.91-.23.58-.64.87-1.21.87h-17.5c-.46,0-1.01-.11-1.65-.35-.64-.23-1.01-.52-1.13-.87l-15.94-48.16c-.23-.46-.15-1.01.26-1.65.4-.63.89-.95,1.47-.95h10.13c.1,0,.15-.12.08-.19l-25.94-27.49s-.05-.04-.08-.04h-46.33s-.06.01-.08.04l-30.98,32.71c-.23.23-.64.49-1.21.78-.58.29-1.1.43-1.56.43h-20.96c-.58,0-1.07-.32-1.47-.95-.41-.63-.32-1.24.26-1.82l29.44-30.99c.07-.07.02-.2-.08-.2h-25.55c-.58,0-1.07-.17-1.47-.52-.41-.35-.61-.75-.61-1.21v-10.4c0-1.15.63-1.73,1.91-1.73h35.05c.06,0,.12-.05.12-.12v-22.29c0-.06-.05-.12-.12-.12h-30.03c-.58,0-1.07-.17-1.47-.52-.41-.35-.61-.75-.61-1.21v-10.4c0-1.15.63-1.73,1.91-1.73h30.2c.06,0,.12-.05.12-.12v-11.01c0-.64.18-1.29.59-1.78.33-.4.71-.6,1.14-.6h19.06c.46,0,.89.23,1.3.69.4.46.61.98.61,1.56v11.15c0,.06.05.12.12.12h34.42c.06,0,.12-.05.12-.12v-11.19c0-.64.18-1.29.59-1.78.33-.4.71-.6,1.14-.6h19.06c.46,0,.89.23,1.3.69.4.46.61.98.61,1.56v11.32c0,.06.05.12.12.12h29.16c1.5,0,2.25.81,2.25,2.43v8.84c0,.81-.23,1.45-.69,1.91-.46.46-.98.69-1.56.69h-29.16c-.06,0-.12.05-.12.12v22.29c0,.06.05.12.12.12h34.36c1.5,0,2.25.81,2.25,2.43v8.84c0,.81-.23,1.45-.69,1.91s-.98.69-1.56.69h-24.33c-.1,0-.15.12-.08.2l29.44,30.99c.58.58.66,1.19.26,1.82ZM700.34,294.2c-.23.35-.64.64-1.21.87-.58.23-1.1.35-1.56.35h-17.5c-.58,0-1.01-.32-1.3-.95-.29-.63-.26-1.24.09-1.82l27.37-47.64c.23-.46.63-.84,1.21-1.13.58-.29,1.15-.43,1.73-.43h17.15c.58,0,1.07.32,1.47.95.4.64.49,1.19.26,1.65l-27.72,48.16ZM753.79,296.89c-.64,1.32-1.41,2.51-2.33,3.55,0,0,0,0,0,0-.92.92-2.02,1.7-3.29,2.33-1.27.63-2.54.95-3.81.95h-25.81c-.93,0-1.5-.35-1.73-1.04l-4.5-10.74c-.12-.23-.06-.63.17-1.21.23-.58.58-.87,1.04-.87h18.94c.06,0,.12-.05.12-.12v-65.72c0-.69.29-1.3.87-1.82.58-.52,1.27-.78,2.08-.78h16.81c.58,0,1.13.29,1.65.87.52.58.78,1.16.78,1.73v68.95c0,1.27-.32,2.57-.95,3.9ZM769.7,179.33h-34.42c-.06,0-.12.05-.12.12v22.29c0,.06.05.12.12.12h34.42c.06,0,.12-.05.12-.12v-22.29c0-.06-.05-.12-.12-.12ZM796.67,294.55c-.23.58-.64.87-1.21.87h-17.5c-.46,0-1.01-.11-1.65-.35-.64-.23-1.01-.52-1.13-.87l-15.94-48.16c-.23-.46-.15-1.01.26-1.65.4-.63.89-.95,1.47-.95h17.15c.58,0,1.15.15,1.73.43.57.29.97.66,1.21,1.12,0,0,0,.01,0,.02l15.59,47.63c.23.69.23,1.33,0,1.91Z" style="fill: #fff;"/>
      <path d="M1001.85,174.66h-64.74c-.06,0-.12.05-.12.12v8.43c0,.06.05.12.12.12h54.69c1.12,0,2.02.91,2.02,2.02v7.56c0,1.12-.9,2.02-2.02,2.02h-131.38c-.58,0-1.07-.17-1.47-.52-.41-.35-.61-.75-.61-1.21v-8.14c0-.58.2-1.01.61-1.3.4-.29.89-.43,1.47-.43h54.29c.06,0,.12-.05.12-.12v-8.43c0-.06-.05-.12-.12-.12h-64.68c-.58,0-1.07-.17-1.47-.52-.41-.35-.61-.75-.61-1.21v-8.14c0-.58.2-1.01.61-1.3.4-.29.89-.43,1.47-.43h64.68c.06,0,.12-.05.12-.12v-8.78c0-.61.22-1.23.67-1.65.39-.37.86-.55,1.41-.55h18.02c.46,0,.92.2,1.39.61.46.41.69.9.69,1.47v8.89c0,.06.05.12.12.12h64.74c1.12,0,2.02.9,2.02,2.02v7.57c0,1.12-.91,2.02-2.02,2.02ZM1000.99,259.38h-150.3c-.65,0-1.3-.18-1.8-.59-.4-.33-.6-.71-.6-1.14v-8.14c0-.58.2-1.01.61-1.3.4-.29.89-.43,1.47-.43h33.42c.09,0,.14-.09.1-.17l-5.25-10.34s-.06-.06-.1-.06h-9.98c-2.54,0-4.79-.81-6.76-2.43-2.31-1.96-3.46-4.5-3.46-7.62v-15.59c0-2.54.92-4.62,2.77-6.24,1.96-1.96,4.44-2.95,7.45-2.95h113.48c2.89,0,5.37.87,7.45,2.6,2.31,1.97,3.46,4.56,3.46,7.8v14.38c0,3.12-1.04,5.6-3.12,7.45-1.85,1.73-4.45,2.6-7.8,2.6h-8.77s-.08.02-.1.06l-5.25,10.34c-.04.08.02.17.1.17h32.96c1.12,0,2.02.9,2.02,2.02v7.57c0,1.12-.9,2.02-2.02,2.02ZM991.05,300.78c-1.73,2.08-4.68,3.12-8.84,3.12h-114.69c-2.43,0-4.5-.75-6.24-2.25-1.97-1.73-2.95-3.98-2.95-6.76v-20.1c0-1.96.75-3.81,2.25-5.54h0c1.96-1.97,4.39-2.95,7.27-2.95h114.35c3.23,0,5.72.69,7.45,2.08,2.19,1.5,3.29,4.16,3.29,7.97v18.02c0,2.66-.64,4.79-1.91,6.41ZM971.01,214.16h-90.73c-.06,0-.12.05-.12.12v11.03c0,.06.05.12.12.12h90.73c.06,0,.12-.05.12-.12v-11.03c0-.06-.05-.12-.12-.12ZM970.15,278.09h-88.99c-.06,0-.12.05-.12.12v13.8c0,.06.05.12.12.12h88.99c.06,0,.12-.05.12-.12v-13.8c0-.06-.05-.12-.12-.12ZM903.83,237.37l5.59,10.34s.06.06.1.06h32.78s.08-.02.1-.06l5.59-10.34c.04-.08-.01-.17-.1-.17h-43.96c-.09,0-.14.09-.1.17Z" style="fill: #fff;"/>
      <text transform="translate(665.75 408.98)" style="fill: #fff; font-family: MFinanceHK-Bold, &apos;MFinance HK&apos;; font-size: 98.27px; font-weight: 700;"><tspan x="0" y="0">答對了</tspan></text>
    </g>
    <text transform="translate(913.5 401.69) rotate(12.01)" style="fill: #fff; font-family: MFinanceHK-Bold, &apos;MFinance HK&apos;; font-size: 117.99px; font-weight: 700;"><tspan x="0" y="0">！</tspan></text>
  </g>
</svg>