<?xml version="1.0" encoding="UTF-8"?>
<svg id="_圖層_1" data-name="圖層 1" xmlns="http://www.w3.org/2000/svg" xmlns:xlink="http://www.w3.org/1999/xlink" viewBox="0 0 980.66 514.43">
  <defs>
    <linearGradient id="_未命名漸層_173" data-name="未命名漸層 173" x1="490.33" y1="51.72" x2="490.33" y2="514.43" gradientUnits="userSpaceOnUse">
      <stop offset="0" stop-color="#14749e"/>
      <stop offset="1" stop-color="#005686"/>
      <stop offset="1" stop-color="#005686"/>
    </linearGradient>
    <linearGradient id="_未命名漸層_159" data-name="未命名漸層 159" x1="490.33" y1="0" x2="490.33" y2="462.71" gradientUnits="userSpaceOnUse">
      <stop offset="0" stop-color="#78c1dd"/>
      <stop offset="1" stop-color="#12739d"/>
    </linearGradient>
    <linearGradient id="_未命名漸層_97" data-name="未命名漸層 97" x1="51.6" y1="-77.18" x2="96.94" y2="-31.84" gradientTransform="translate(7.2 130.44) rotate(4.43)" gradientUnits="userSpaceOnUse">
      <stop offset="0" stop-color="#e7eee0"/>
      <stop offset="1" stop-color="#fbfcfa"/>
    </linearGradient>
  </defs>
  <path d="M978.94,178.12c-4.34-73.66-51.4-108.45-101.24-116.1-27.12-5.82-190-10.3-386.89-10.3s-349.43,4.2-383.92,9.75C55.63,67.87,6.18,102.53,1.72,178.12c-2.29,38.92-2.29,171.01,0,209.92,4.5,76.24,54.75,110.84,106.48,116.81,36.69,5.47,194.13,9.58,382.79,9.58s360.56-4.5,387.09-10.34c49.69-7.77,96.52-42.57,100.85-116.04,2.3-38.92,2.3-171.01,0-209.92Z" style="fill: url(#_未命名漸層_173);"/>
  <path d="M978.94,134.74c-4.34-73.66-51.4-108.45-101.24-116.1-27.12-5.82-190-10.3-386.89-10.3S141.38,12.54,106.89,18.09C55.63,24.49,6.18,59.15,1.72,134.74c-2.29,38.92-2.29,171.01,0,209.92,4.5,76.24,54.75,110.84,106.48,116.81,36.69,5.47,194.13,9.58,382.79,9.58s360.56-4.5,387.09-10.34c49.69-7.77,96.52-42.57,100.85-116.04,2.3-38.92,2.3-171.01,0-209.92Z" style="fill: #035a89;"/>
  <path d="M978.94,126.4c-4.34-73.66-51.4-108.45-101.24-116.1C850.58,4.48,687.7,0,490.81,0S141.38,4.2,106.89,9.75C55.63,16.15,6.18,50.81,1.72,126.4c-2.29,38.92-2.29,171.01,0,209.92,4.5,76.24,54.75,110.84,106.48,116.81,36.69,5.47,194.13,9.58,382.79,9.58s360.56-4.5,387.09-10.34c49.69-7.77,96.52-42.57,100.85-116.04,2.3-38.92,2.3-171.01,0-209.92Z" style="fill: url(#_未命名漸層_159);"/>
  <path d="M121.12,93.19l-39.54,25.76c-13.3,8.66-31.1,4.91-39.76-8.39h0c-8.66-13.3,1.35-32.46,8.39-39.76,7.61-9.47,28.53-23.28,39.54-25.76,8.85-2.56,31.1-4.91,39.76,8.39h0c8.66,13.3,4.91,31.1-8.39,39.76Z" style="fill: url(#_未命名漸層_97);"/>
  <text transform="translate(256.74 301.4)" style="fill: #fff; font-family: MFinanceHK-Bold, &apos;MFinance HK&apos;; font-size: 233.59px; font-weight: 700;"><tspan x="0" y="0">繼續</tspan></text>
</svg>