<?xml version="1.0" encoding="UTF-8"?>
<svg id="_圖層_1" data-name="圖層 1" xmlns="http://www.w3.org/2000/svg" xmlns:xlink="http://www.w3.org/1999/xlink" viewBox="0 0 1885.69 958.72">
  <defs>
    <linearGradient id="_未命名漸層_426" data-name="未命名漸層 426" x1="-5623.26" y1="-201.23" x2="-4793.97" y2="534.44" gradientTransform="translate(2556.35 382.48) scale(.42)" gradientUnits="userSpaceOnUse">
      <stop offset=".22" stop-color="#6b8fa5"/>
      <stop offset=".91" stop-color="#d5e3e8"/>
    </linearGradient>
    <linearGradient id="_未命名漸層_403" data-name="未命名漸層 403" x1="-6070.67" y1="-61.32" x2="-5941.49" y2="588.91" gradientTransform="translate(2556.35 382.48) scale(.42)" gradientUnits="userSpaceOnUse">
      <stop offset="0" stop-color="#cedee5"/>
      <stop offset="1" stop-color="#a0bcc9"/>
    </linearGradient>
    <linearGradient id="_未命名漸層_414" data-name="未命名漸層 414" x1="-1849.85" y1="-74.07" x2="-1605.25" y2="589.42" gradientTransform="translate(2556.35 382.48) scale(.42)" gradientUnits="userSpaceOnUse">
      <stop offset="0" stop-color="#85a2b1"/>
      <stop offset="1" stop-color="#5f798b"/>
    </linearGradient>
    <linearGradient id="_未命名漸層_397" data-name="未命名漸層 397" x1="-5745.95" y1="-672.37" x2="-5381.78" y2="762.71" gradientTransform="translate(2556.35 382.48) scale(.42)" gradientUnits="userSpaceOnUse">
      <stop offset="0" stop-color="#e1ebee"/>
      <stop offset="1" stop-color="#98b5c3"/>
    </linearGradient>
    <linearGradient id="_未命名漸層_422" data-name="未命名漸層 422" x1="-4004.75" y1="898.7" x2="-3825.5" y2="1182.52" gradientTransform="translate(2556.35 382.48) scale(.42)" gradientUnits="userSpaceOnUse">
      <stop offset="0" stop-color="#bdd4dd"/>
      <stop offset="1" stop-color="#7697ab"/>
    </linearGradient>
    <linearGradient id="_未命名漸層_427" data-name="未命名漸層 427" x1="-2824.86" y1="-531.91" x2="-1887.53" y2="923.36" gradientTransform="translate(2556.35 382.48) scale(.42)" gradientUnits="userSpaceOnUse">
      <stop offset="0" stop-color="#b1c7d1"/>
      <stop offset=".62" stop-color="#85a1b2"/>
      <stop offset="1" stop-color="#5f7b8f"/>
    </linearGradient>
  </defs>
  <polyline points="703.03 810.04 727.78 808.38 639.81 953.47 609.4 954.42 609.4 810.07" style="fill: #426279;"/>
  <path d="M1490.91,818.57l-10.02-2.31,41.87,55.97-1.88,80.05h5.5l1.54-85.15s7.86-45.18-37-48.57Z" style="fill: #426279;"/>
  <path d="M175.76,776.17c13.17,21.63,43.83-3.52,33.92-20.04l3.08-3.08c38.85,41.28,87.38,79.41,131.05,115.63,6.98,24.68,1.21,55.68,3.08,82.49l-9.25-2.31c-75.61-75.12-164.58-143.48-238.98-218.93-8.58-8.7-16.74-17.62-26.21-25.44l1.54-3.85c16.15,5.06,88.51,83.1,94.82,83.26,2.96.07,4.42-6.59,6.94-7.71Z" style="fill: #7d9eb1;"/>
  <path d="M629.05,951.93c26.8-.18,49.45.02,75.55-3.08,2.46-.29,1.04-2.9,2.31-3.08,9.43-1.36,23.77.53,30.06,7.71v1.54c-57.02-.1-114.12.19-171.14,0l3.85-81.72,43.94.77,9.25,78.63c2.71,3.1,5.86-.77,6.17-.77Z" style="fill: #7d9eb1;"/>
  <path d="M436.33,811.63c85.36,7.04,181.91-4.01,268.27-1.54v1.54c-.58.37-1.93,3.11-4.63,4.63-5.21-1.41-12.46-2.78-17.73-3.08-57.26-3.3-219.53-8.87-269.81,0-17.28,3.05-33.77,29.03-47.02,41.63-5.38,5.12-15.19,6.69-16.19,15.42h262.1c3.84-1.98,2.89-12.44,3.85-13.88,4.99-7.39,26.71-26.76,32.38-29.29-6.26,12.13-22.44,20.08-27.75,32.38-6.17,14.28-1.84,45.88,1.54,63.21,1.92,9.87,7.05,19.14,7.71,29.29-.31,0-3.46,3.87-6.17.77l-9.25-78.63-43.94-.77-3.85,81.72c-.51,0-1.03,0-1.54,0l3.08-80.94-22.36-.77-3.08,21.59c-2.09-4.25,1.07-17.3-3.08-20.04-1.97-1.3-44.59-2.05-45.48,4.63-3.45-.21-17.2-.71-19.27,0-1.39.47-.56,2.96-.77,3.08-5.96,3.53-10.92,7.61-14.65,13.88-5.06-.17-.32-4.06-.77-4.63,2.25-2.86,3.8-6.53,6.17-9.25,1.61-1.84,7.25-4.25,6.94-7.71-8,.29-19.31-1.22-25.44,5.4l17.73-2.31c1.17.5.95,4.47.77,4.63-.74.65-10.69-.47-13.11,0,1.27,1.89,1.67,6.38,2.31,7.71l-6.17,6.17c-3.07-1.78-6.76-2.64-9.25-5.4l12.33-1.54-12.33-6.17,5.4-6.94-1.54-3.08h-16.96c10.73,13.93.44,4.22-4.63,6.17-1.08.41-12.75,21.06-8.48-1.54,2.65-1.17,9.41-1.02,6.94-4.63l-70.15.77v80.94c-4.57-.72-8.28-2.06-10.79-6.17l9.25,2.31c-1.87-26.81,3.89-57.81-3.08-82.49,1.82-.3,3.78-4.11,6.17-6.17,3.8-3.27,4.59-6.29,6.17-7.71,12.34-11.08,25.72-20.92,35.46-34.69-39.66-34.59-79.6-68.89-118.72-104.07,0,0,79.95,65.41,117.95,100.22,0,0,38.03-5.24,45.48-4.63Z" style="fill: #547186;"/>
  <path d="M1305.9,953.47v1.54c-46.23.15-92.49-.08-138.76,0l47.8-3.08c5.67.19,43.34,1,44.71-.77.39-.51.24-4.73-.77-5.4-1.71-1.12-35.53-.15-40.86,0v-3.08c6.19.07,38.94,2.26,40.86,1.54,2.14-.81,7.99-15.52,2.31-16.96,2.6-2.12,3.54-4.8,4.63-7.71,5.35-14.29,1.7-30.73,4.63-45.48l34.69-.77.77,80.17Z" style="fill: #547186;"/>
  <path d="M1814.69,285.88v246.69l-7.71-1.54c-.07-85.27.04-170.74,0-255.94,3.67,3.87,5.31,8.21,7.71,10.79Z" style="fill: #7d9eb1;"/>
  <path d="M585.88,96.23c.48,6.46-14.59,7.62-17.73,9.25-3.73,1.93-1.4,6.69-3.08,7.71-5.28,3.19-55.5-4.08-65.53,1.54-9.86.02-20.7,1.37-30.84,1.54.67-4.63-4.13-3-6.94-3.08-16.3-.47-33.38,2.09-45.48,3.08-5.73.47-13.65,1.35-15.42,1.54-9.39,1-18.69.55-27.75,1.54-.16.02.44-3.25-.77-3.08-2.45.35-33.71,26.73-38.54,30.84-40.16,34.14-89.14,78.04-125.66,115.63-6.53,2.17-14.25-9.65-17.73-9.25-4.23.48-21.76,24.74-26.98,27.75,9.97-26.67,145.49-135.65,174.99-166.51,3.95-4.13,12.26-13.03,13.11-18.5h1.54c77.5.86,155.23,0,232.81,0Z" style="fill: #547186;"/>
  <path d="M208.14,262.75c-8.85,9.11-26.44,26.75-32.38,37-.15.26-3.52-.28-4.63,3.85,1.27,13.41-1.04,26.83-1.54,40.09-2.79,73.06-10.13,248.7,4.63,312.21,3.21,13.83,9.43,26.58,15.42,39.32,47.85,60.2,109.89,107.83,166.51,159.58-1.58,1.42-2.36,4.44-6.17,7.71-49.39-46.77-107.85-89.83-152.64-141.07-6.66-7.62-28.92-32.9-32.38-40.09-9.37-19.48-4.42-112.72-4.63-141.07-.61-84.51.46-169.09,0-253.63.09-.52,2.92-4.95,3.08-5.4,5.22-3.01,22.75-27.27,26.98-27.75,3.48-.4,11.2,11.42,17.73,9.25Z" style="fill: #698a9d;"/>
  <path d="M160.35,540.27c.21,28.35-4.74,121.59,4.63,141.07,3.46,7.19,25.72,32.47,32.38,40.09,44.79,51.24,103.25,94.3,152.64,141.07-2.39,2.05-4.34,5.87-6.17,6.17-45.2-46.57-103.33-87.7-146.47-135.68-52.02-57.85-43.93-110.18-41.63-185.79.01-.42,1.86-8.4,4.63-6.94Z" style="fill: #dae7eb;"/>
  <path d="M343.82,868.67c-43.68-36.22-92.2-74.36-131.05-115.63-5.12-5.44-11.16-13.79-15.42-20.04,43.14,47.98,101.27,89.11,146.47,135.68Z" style="fill: #698a9d;"/>
  <path d="M1250.39,2.19l.77,94.05h274.44c.79-23,1.6-46.38.77-69.38h3.08c.32,25.88-1.5,52.09,1.54,77.86,52.33,57.73,126.13,108.54,174.22,168.83l-3.08,1.54c-3.93-8.68-21.23-24.9-28.52-32.38-9.35-9.6-79.53-77.68-84.8-80.17-8.91-4.22-10.27,6.18-19.27,6.17-16.1-14.99-38.04-39.35-57.05-49.34-.27-.14-2.54-4.35-3.85-4.63-6.22-1.28-30.77.15-37.77,2.31,11.85,3.07,30.66-2.14,41.63,2.31,1.01.41,13.13,13.52,15.42,15.42-8.78,2.63-24.84,9.89-26.21,20.04-7.37-5.91-14.87-10.32-21.59-15.42-8.83-6.7-20.75-16.86-26.98-24.67h-132.59c-1.23.42-2.14,2.93-2.31,3.08-2.6,2.25-4.54,12.15-14.65,12.33-8.09.15-11.29-7.52-14.65-9.25l3.08-1.54c8.61,12.18,26.4,3.85,23.13-6.94-1.16-3.83-9.49-5.38-12.33-6.94-19.24-10.56-31.93-5-53.96-6.17-.17,0,.79-1.4-3.08-1.54,7.93-21.17-4.23-73.08,1.54-94.82,1-3.77,2.95-.69,3.08-.77Z" style="fill: #547186;"/>
  <path d="M1814.69,532.56v164.97c-2.15,1.95-2.96,1.43-3.08,1.54-1.95.23-2.31.54-3.08-1.54-6.41-17.21-1.52-138.42-1.54-166.51l7.71,1.54Z" style="fill: #698a9d;"/>
  <path d="M1820.86,483.22c.65,20.6.7,43.37,0,63.98-.1,2.82,1.56,7.61-3.08,6.94.01-21.26-.62-42.73,0-63.98.08-2.82-1.54-7.61,3.08-6.94Z" style="fill: #7d9eb1;"/>
  <path d="M447.12,896.43c4.7,2.73.3,3.85,2.31,4.63,2.26.87,54.18-3.11,40.09,6.17-3.28,2.16-74.97,1.43-78.63,0-4.65-1.82-6.74-23.38-5.4-26.98,1.92-5.16,5.87-2.18,6.17-2.31-4.27,22.6,7.4,1.96,8.48,1.54,5.07-1.95,15.35,7.76,4.63-6.17h16.96l1.54,3.08-5.4,6.94,12.33,6.17-12.33,1.54c2.49,2.76,6.18,3.62,9.25,5.4Z" style="fill: #7d9eb1;"/>
  <path d="M464.08,882.55c-2.37,2.72-3.92,6.39-6.17,9.25-1.19-1.47-4.52-1.32-4.63-1.54-.64-1.33-1.05-5.82-2.31-7.71,2.42-.47,12.36.65,13.11,0Z" style="fill: #7d9eb1;"/>
  <g>
    <path d="M411.66,877.92c-.3.13-4.25-2.85-6.17,2.31-1.34,3.6.75,25.16,5.4,26.98,3.66,1.43,75.35,2.16,78.63,0,14.1-9.28-37.83-5.3-40.09-6.17-2.01-.77,2.39-1.9-2.31-4.63l6.17-6.17c.11.22,3.43.07,4.63,1.54.45.56-4.28,4.45.77,4.63,3.72-6.27,8.68-10.35,14.65-13.88h28.52c2.54-4.84-6.51-2.97-8.48-3.08.89-6.67,43.51-5.93,45.48-4.63,4.15,2.75,1,15.79,3.08,20.04l3.08-21.59,22.36.77-3.08,80.94c-59.21-.21-162.33,8.45-215.85,0v-80.94l70.15-.77c2.47,3.6-4.28,3.45-6.94,4.63Z" style="fill: #7d9eb1;"/>
    <g>
      <path d="M409.35,914.93c48.41-2.27,98.43,1.54,147.24,2.31-53.09,4.06-107.52,3.56-160.35,0,3.67.14,10.54-2.19,13.11-2.31Z" style="fill: #698a9d;"/>
      <path d="M495.69,901.05c7.4-3.26,35.5,2.73,43.94,5.4-2.04-.28-62.23,2.67-43.94-5.4Z" style="fill: #bdd2db;"/>
      <path d="M493.37,879.47c1.97.12,11.02-1.76,8.48,3.08h-28.52c.21-.13-.62-2.61.77-3.08,2.07-.71,15.83-.21,19.27,0Z" style="fill: #dae7eb;"/>
      <path d="M511.1,882.55c2.98-.1,5.6,9.73,3.08,12.33-4.93.96-5.13-12.26-3.08-12.33Z" style="fill: #1e5d7f;"/>
      <path d="M532.69,879.47c5.3-1.03,6.8,5.27,6.17,9.25-2.01.5-3.78-7.5-6.17-9.25Z" style="fill: #2f5068;"/>
      <path d="M537.32,890.26c3.82-.34.86,2.46,0,4.63-1.21-.95-1.3-3.4,0-4.63Z" style="fill: #2f5068;"/>
      <path d="M504.94,894.88c1.91-1.31,2.03,5.91,0,4.63-1.17-.74-1.33-3.71,0-4.63Z" style="fill: #bdd2db;"/>
    </g>
  </g>
  <g>
    <path d="M1401.49,894.88h14.65l-3.08-7.71c10.31,8.46,10.2-7.35,19.27,0-2.58,5.24-8.15,3.39-6.94,7.71l13.11-3.85c.48-2.26-.47-8.06-1.54-10.02,15.79-1.9,17.22-1.19,25.44,10.79,7.96-29.8,36.29-15.26,60.13-18.5v78.63l-201.2,3.08c-5.12.02-10.3-.02-15.42,0v-1.54l3.85-80.17h101.76c1.88,7.55-15.8,4.26-21.59,4.63-.64.04-2.46,3.05-3.08,3.08-4.43.22-15.28-5.34-23.13-3.08-8.25,2.38-6.98,19.76-20.81,20.81l88.65,2.31c-5.43-6.96-23.55-1.24-32.38-3.08-2.85-3.67,2.21-2.92,2.31-3.08Z" style="fill: #547186;"/>
    <path d="M1332.88,905.68c11.55-1.68,129.35-.67,137.22,1.54,6.4,1.8,4.55,7.61,8.48,11.56l-154.95.77-3.85-8.48c1.19-2.53,10.53-5.02,13.11-5.4Z" style="fill: #547186;"/>
    <path d="M1436.95,881.01c1.07,1.96,2.02,7.76,1.54,10.02l-13.11,3.85c-1.21-4.32,4.36-2.47,6.94-7.71,5.01-10.17-8.25-2.69-9.25-5.4,5.08-4.26,9.45-8.87,13.88-.77Z" style="fill: #426279;"/>
    <path d="M1344.44,888.72c1.68,4.55,1.81,1.77,3.08,1.54,1.76-.31,3.11-6.85,4.63-.77l-8.48,5.4c-5.61-2.87-2.66-14.62,1.54-12.33,1.18.64-1.73,3.56-.77,6.17Z" style="fill: #426279;"/>
    <path d="M1347.53,890.26c-1.27.23-1.4,3.01-3.08-1.54l3.08,1.54Z" style="fill: #a6b1bd;"/>
  </g>
  <path d="M468.71,116.28c-30.75.52-29.38-5.84-57.82,12.33-24.51,15.67-184.77,157.23-195.04,176.54-9.87,18.56-5.78,49.53-6.17,70.92-.02,1.34.02,1.99,0,3.08-1.07,74.45-1.71,149.92,0,224.33-4.63-.67-3,4.12-3.08,6.94-.26,8.96-2.29,26.44,3.08,33.15,3.34,31.99,40.3,51.86,63.21,72.46,39.12,35.19,79.06,69.48,118.72,104.07-9.74,13.77-23.13,23.61-35.46,34.69-56.62-51.74-118.66-99.37-166.51-159.58-5.99-12.74-12.21-25.49-15.42-39.32v-351.53c61.61-66.26,128.12-128.63,198.89-185.02,9.06-.99,18.37-.55,27.75-1.54l15.42-1.54c12.11-1,29.18-3.55,45.48-3.08,2.81.08,7.61-1.54,6.94,3.08Z" style="fill: url(#_未命名漸層_426);"/>
  <path d="M699.97,816.25c-17.6,9.91-30.36.92-52.42,10.79-5.67,2.54-27.39,21.9-32.38,29.29l-43.17-.77,8.48-39.32-12.33,40.09-202.75-1.54c13.25-12.6,29.75-38.58,47.02-41.63,50.29-8.87,212.55-3.3,269.81,0,5.27.3,12.52,1.67,17.73,3.08Z" style="fill: #dae7eb;"/>
  <path d="M615.18,856.34c-.97,1.43-.02,11.89-3.85,13.88h-262.1c1-8.73,10.81-10.3,16.19-15.42l202.75,1.54,12.33-40.09-8.48,39.32,43.17.77Z" style="fill: #7d9eb1;"/>
  <path d="M464.08,882.55c.18-.15.4-4.13-.77-4.63l-17.73,2.31c6.13-6.61,17.44-5.11,25.44-5.4.31,3.46-5.33,5.86-6.94,7.71Z" style="fill: #a2c2c9;"/>
  <path d="M1515.58,857.88c3.5,3.9,9.89,5.95,9.25,12.33-17.32,1.82-42.13,1.39-60.13,1.54-51.62.42-103.27-2.96-154.95-1.54-3.83-1.82-2.72-11.84-3.85-13.88l209.68,1.54Z" style="fill: #698a9d;"/>
  <path d="M373.11,119.36c-70.77,56.39-137.28,118.75-198.89,185.02l1.54-4.63c5.94-10.26,23.53-27.89,32.38-37,36.52-37.6,85.5-81.49,125.66-115.63,4.84-4.11,36.1-30.49,38.54-30.84,1.21-.17.61,3.1.77,3.08Z" style="fill: #426279;"/>
  <path d="M416.28,116.28l-15.42,1.54c1.77-.19,9.69-1.07,15.42-1.54Z" style="fill: #2f5068;"/>
  <path d="M1302.82,105.49c-9.36-.47-17.07,5-10.79,13.88l-3.08,1.54c-19.27-9.95-52.51,1.06-71.96-6.96,5.88-4.29,20.51-10.25,24.67-16.62,22.03,1.17,41.93-2.4,61.17,8.16Z" style="fill: #547186;"/>
  <path d="M175.76,299.75l-1.54,4.63v351.53c-14.75-63.51-7.41-239.15-4.63-312.21.51-13.26,2.82-26.68,1.54-40.09,1.1-4.13,4.47-3.59,4.63-3.85Z" style="fill: #a2c2c9;"/>
  <g>
    <path d="M70.92,281.25v417.06c-1.84,4.95-16.66-8.97-20.04-11.56-18.77-14.36-33.91-32.31-50.88-48.57l1.54-282.92c12.24-8.8,56.06-46.46,60.13-58.59,10.64,2.19,4.4-8.57,6.17-14.65.39-1.34,3.03-.61,3.08-.77Z" style="fill: url(#_未命名漸層_403);"/>
    <g>
      <path d="M74.01,700.62l-1.54,3.85c9.47,7.82,17.63,16.74,26.21,25.44l-47.8-43.17c3.39,2.59,18.21,16.51,20.04,11.56v-417.06c.57-1.77.78-2.71,1.54-4.63l1.54,423.99Z" style="fill: #2e849b;"/>
      <path d="M61.67,296.67c-4.07,12.12-47.89,49.79-60.13,58.59,14.03-22.79,46.11-38.15,58.59-60.9.82-1.5-3.35-4.01-.77-5.4,6.1-3.28,2.9,5.98,2.31,7.71Z" style="fill: #a2c2c9;"/>
      <path d="M60.9,304.38l-1.54,329.94c1.34-15.57.82-31.37.77-47.02,0-1.21,0-1.9,0-3.08-.13-93.33-3.86-186.55.77-279.84Z" style="fill: #7d9eb1;"/>
      <path d="M53.96,341.38c-3.12-3-11.19,6.4-6.94,9.25.48.32,8.36-7.88,6.94-9.25,3.28,4.88.7,14.56-6.94,12.33-9.67-2.82-.43-23.31,6.94-12.33Z" style="fill: #4c9bae;"/>
      <path d="M39.32,483.22c.86-.07,15.44,1.28,14.65,5.4-2.99,1.22-25.55,2.1-22.36-2.31,1.04-.83,7.3-3.05,7.71-3.08Z" style="fill: #3296b7;"/>
      <path d="M51.65,521.77c7.98-3.02,4.08,18.94-9.25,12.33-2.82-7.47,1.95-1.81,3.85-3.85,2.2-2.37,4.93-8.3,5.4-8.48Z" style="fill: #4c9bae;"/>
      <path d="M46.25,652.82l3.08-1.54c10.96.16-1.49,12.38-3.08,1.54Z" style="fill: #2e849b;"/>
      <path d="M42.4,517.14c3.55-1.23,8.21,1.4,11.56,2.31-4.69,2.05-8.27,1.23-13.11.77-1.51-.77,1.05-2.91,1.54-3.08Z" style="fill: #297899;"/>
      <path d="M37.77,517.14c3.21,6.24-7.05,3.11-6.94,2.31l6.94-2.31Z" style="fill: #297899;"/>
      <path d="M48.57,615.82h1.54c3.04-.24,3.04,1.79,0,1.54l-1.54-1.54Z" style="fill: #297899;"/>
      <path d="M49.34,651.28l-3.08,1.54c-.78-5.28,1.6-1.56,3.08-1.54Z" style="fill: #dae7eb;"/>
      <g>
        <path d="M33.15,423.1c4.14-1.28,13.55.93,18.5,0,4.24,19.83-3.63,15.45-18.5,18.5-3.33-2.62-2.82-17.63,0-18.5Z" style="fill: #4c9bae;"/>
        <path d="M43.94,426.18c4.78.15,4.58,5.44,1.54,6.17-3.83.91-7.09-6.34-1.54-6.17Z" style="fill: #ecf9f7;"/>
        <path d="M36.23,432.35c4.88-.61,8.88,6.62,0,4.63-2.61-.59-2.17-4.35,0-4.63Z" style="fill: #dae7eb;"/>
      </g>
      <g>
        <path d="M30.06,470.89c7.55.15,31.92-3.45,23.9,10.02-.71,1.19-20.36-2.38-23.9,2.31v-12.33Z" style="fill: #4c9bae;"/>
        <polygon points="36.23 473.97 46.25 476.29 36.23 478.6 36.23 473.97" style="fill: #dae7eb;"/>
      </g>
      <path d="M53.96,341.38c1.43,1.37-6.46,9.57-6.94,9.25-4.25-2.85,3.81-12.25,6.94-9.25Z" style="fill: #dae7eb;"/>
    </g>
  </g>
  <path d="M1709.85,278.17c4.55,7.59,6.9,16.75,7.71,25.44,10.94,117.69-8.12,252.19,0,371.57-7.08,14.49-17.82,26.03-28.52,37.77-48.62,53.35-110.27,101.17-162.66,151.1-.15-.42-3.95-6.66-4.63-7.71l168.06-161.12c3.97-7.15,11.21-15.45,13.88-23.13,12.32-35.47,4.95-184.7,4.63-232.04-.24-34.35,1.05-68.99,0-103.3-.59-19.19,1.92-43.81-6.17-61.67l3.08-1.54c1.09,1.37,3.47,2.99,4.63,4.63Z" style="fill: #698a9d;"/>
  <path d="M1702.14,275.08c8.09,17.86,5.58,42.48,6.17,61.67-17.16,4.97-9.2-19.17-12.33-31.61-1.76-6.97-8.3-14.9-12.33-20.81-20.93-30.73-84.52-88.09-114.09-115.63,9,0,10.36-10.39,19.27-6.17,5.27,2.5,75.45,70.58,84.8,80.17,7.29,7.48,24.59,23.7,28.52,32.38Z" style="fill: #7d9eb1;"/>
  <path d="M1527.92,134.78c21.76,18.08,41.14,39.16,61.67,58.59,6.17,3.63-17.72,20.17-19.27,20.04-2.05-.17-26.99-22.53-31.61-26.21-12.89-10.26-24.3-22.21-37-32.38,1.37-10.15,17.43-17.41,26.21-20.04Z" style="fill: #7d9eb1;"/>
  <path d="M1569.55,168.7c29.58,27.54,93.16,84.9,114.09,115.63-31.11-30.57-62.36-60.99-94.05-90.97-20.53-19.43-39.91-40.5-61.67-58.59-2.29-1.9-14.41-15.01-15.42-15.42,19.01,9.98,40.94,34.34,57.05,49.34Z" style="fill: #426279;"/>
  <path d="M1480.12,139.41l-31.61-21.59h-130.28c.18-.15,1.08-2.66,2.31-3.08h132.59c6.23,7.81,18.15,17.97,26.98,24.67Z" style="fill: #2f5068;"/>
  <path d="M1512.5,119.36c-10.96-4.45-29.78.76-41.63-2.31,7-2.17,31.56-3.6,37.77-2.31,1.31.27,3.59,4.49,3.85,4.63Z" style="fill: #2f5068;"/>
  <g>
    <path d="M1187.18,2.19c-2.44,29.84,3.28,64.85,0,94.05-.56,4.97-1.34,16.93-5.4,18.5h-477.96c-1.56-1.11-.63-15.39-.77-18.5h480.27l.77-94.05c.99,0,2.05,0,3.08,0Z" style="fill: #698a9d;"/>
    <path d="M1258.1.64c-3.16-.32-5.01-.1-7.71,1.54-.14.08-2.08-3-3.08.77-5.77,21.74,6.38,73.65-1.54,94.82-19.05-.72-38.08-.11-57.05-1.54h-1.54c3.28-29.2-2.44-64.21,0-94.05,23.48.04,47.31-1.6,70.92-1.54Z" style="fill: #dae7eb;"/>
    <path d="M699.97,96.23c-.14,3.12.79,17.39-.77,18.5-12.49.7-25.35-.95-37.77,0-1.01.08-2.07-.07-3.08,0-.51.04-1.03-.03-1.54,0-6.33-.36-19.44-11.95-13.88-18.5h57.05Z" style="fill: #698a9d;"/>
    <path d="M1245.77,97.78c-8.19,21.87-39.61,16.8-57.82,16.96l.77-18.5c18.97,1.43,37.99.82,57.05,1.54Z" style="fill: #698a9d;"/>
    <g>
      <path d="M1184.1,2.19l-.77,94.05h-480.27c-1.43-31.75,1.7-63.83-.77-95.59-5.3,31.51-.88,63.89-2.31,95.59h-60.13l-.77-94.05c-1.04,26.57-6.5,68.74-2.31,94.05h-50.88c-77.58,0-155.31.86-232.81,0V14.52c.12-.4,2.83-7.38,3.08-7.71,9.4-12.52,46.23-3.39,62.44-6.17,4.28,14.59-6.42,71.04,9.25,75.55,10.74,3.09,79.31.47,95.59,0,2.81-.08,7.61,1.54,6.94-3.08,10.41-.12,72.5,1.42,76.32-1.54l1.54-70.92c-7.97,10.99,5.51,65.3-4.63,69.38h-174.22c-7.62-3.07-2.19-57.41-3.85-67.84,252.7-4.69,505.59-.4,758.56,0Z" style="fill: #dae7eb;"/>
      <g>
        <path d="M736.21,45.36c139.01.51,278.07-1.02,417.06.77l-208.91,2.31-208.14-3.08Z" style="fill: #2e849b;"/>
        <path d="M745.46,23.77c131.78,1.52,263.79-3.06,395.47,2.31l-199.66.77-195.81-3.08Z" style="fill: #2e849b;"/>
        <path d="M930.47,63.86c3.14.4,2.43,1.09,2.31,3.85-60.24,1.37-123.7,1.25-185.02,0l182.7-3.85Z" style="fill: #2e849b;"/>
        <path d="M639.84,96.23h-3.08c-4.19-25.31,1.28-67.48,2.31-94.05l.77,94.05Z" style="fill: #4c9bae;"/>
        <path d="M1138.61,65.4c2.45,4.25-2.28,2.91-4.63,3.08-56.22,4.22-118.23-2.52-174.99-.77l179.62-2.31Z" style="fill: #2e849b;"/>
        <g>
          <path d="M425.53,2.19c1.66,10.43-3.76,64.77,3.85,67.84h174.22c10.14-4.08-3.34-58.39,4.63-69.38l-1.54,70.92c-3.82,2.96-65.9,1.42-76.32,1.54-13.94.16-96.52,2.33-102.53,0-.35-.14-3.72-3.5-3.85-3.85-1.21-3.13-1.32-65.31,1.54-67.07Z" style="fill: #2e849b;"/>
          <g>
            <polygon points="474.1 19.15 580.49 20.69 582.8 52.29 472.56 54.61 470.25 21.46 474.1 19.15" style="fill: #4c9bae;"/>
            <path d="M475.64,29.94c15.65,6.37,93.26-3.29,101.76,1.54,2.11,1.2.41,5.14-1.54,6.17l-97.9.77c12.8,10.17,93.38-.66,97.9,2.31,1.26.83,1.26,5.34,0,6.17-4.15,2.73-86.13-6-99.45.77l103.3,3.08-105.61.77,1.54-21.59Z" style="fill: #fbfbfc;"/>
            <path d="M475.64,22.23l104.07,3.85c-12.99,1.75-100.43,5.26-105.61,2.31-2.11-1.2-.41-5.14,1.54-6.17Z" style="fill: #fbfbfc;"/>
          </g>
        </g>
        <g>
          <path d="M392.39,25.31c.66-.47,15.46-.25,16.19.77-.19,17.53,4.79,24.48-16.96,20.04.62-3.61-1.17-19.44.77-20.81Z" style="fill: #4c9bae;"/>
          <path d="M395.47,28.4c15.08-3.89,14.37,21.83-.77,14.65l.77-14.65Z" style="fill: #bde6eb;"/>
        </g>
      </g>
    </g>
    <g>
      <path d="M1461.62,2.19l-2.31,67.84-177.31-1.54-3.85-65.53c1.82,10.94-4,65.56,3.85,68.61l174.22,3.08,6.94-3.85V2.19c19.39.33,39.75-3.44,59.36-1.54l2.31,3.08c-.32,7.7,1.26,15.25,1.54,23.13.83,23,.02,46.38-.77,69.38h-274.44l-.77-94.05c2.7-1.64,4.55-1.87,7.71-1.54,66.11.15,135.59.54,203.52,1.54Z" style="fill: #bdd2db;"/>
      <path d="M1461.62,2.19c.45,0,.93-.01,1.54,0v68.61l-6.94,3.85-174.22-3.08c-7.85-3.05-2.03-57.67-3.85-68.61l3.85,65.53,177.31,1.54,2.31-67.84Z" style="fill: #2e849b;"/>
      <path d="M1308.98,25.31v27.75c-1.75-.59-3.03-1.31-4.63-2.31,4-6.78-.16-17.97,1.54-24.67.34-1.35,2.99-.58,3.08-.77Z" style="fill: #dae7eb;"/>
      <path d="M1470.1,22.23c3.96,5.44,4.83,13.67,3.08,20.04l-3.08-20.04Z" style="fill: #698a9d;"/>
      <g>
        <path d="M1308.98,53.06v-27.75c.63-1.22-.99-5.12.77-6.17,29.11,4.97,85.12-6.61,111.01,0,.89.23,8.16,4.55,8.48,5.4.47,1.23.78,25.16,0,26.21-1.86,2.52-54.82,3.71-62.44,3.85-13.41.25-46.82,2.16-57.82-1.54Z" style="fill: #4c9bae;"/>
        <path d="M1419.99,26.85c-33.94-2.09-69.9,1.55-104.07,0-1.38,1.11,2.82,4.54,3.08,4.63,11.1,3.38,95.85-4.21,97.9,2.31.42,1.34-1.32,3.48-2.31,3.85-14.45,5.51-76.96-7.56-95.59-1.54-.47.15-3.05,2.31-1.54,3.08,13.6-3.05,99.53,5.31,104.84,1.54,1.82-1.29.25-11.01.77-13.88,1.2.17,1.58-.93,2.31-1.54,3.35,2.4,2.94,19.12,0,20.04h-107.93l62.44,5.4-67.07.77v-30.84l107.93,1.54-.77,4.63Z" style="fill: #bdd2db;"/>
        <path d="M1419.99,26.85c1,.06,2.1-.14,3.08,0-.52,2.86,1.05,12.58-.77,13.88-5.31,3.77-91.24-4.59-104.84-1.54-1.51-.77,1.08-2.93,1.54-3.08,18.63-6.02,81.14,7.05,95.59,1.54.99-.38,2.73-2.51,2.31-3.85-2.05-6.52-86.81,1.06-97.9-2.31-.27-.08-4.47-3.52-3.08-4.63,34.18,1.55,70.13-2.09,104.07,0Z" style="fill: #206a88;"/>
        <path d="M1382.22,48.44l40.86.77c-9.84,2.53-28.2,4.05-37.77,2.31-2.21-.4-5.4.83-3.08-3.08Z" style="fill: #a2c2c9;"/>
      </g>
    </g>
  </g>
  <g>
    <path d="M1882.53,373.76c3.11,42.94,6.35,228.8-3.08,262.1-19.61,22.64-42.67,41.63-64.76,61.67v-6.17c4.5-45.56,3.06-91.5,3.08-137.22,4.64.67,2.99-4.12,3.08-6.94.7-20.61.65-43.38,0-63.98-.08-2.38-3.05-1.1-3.08-2.31-1.79-61.57,1.33-123.42,0-185.02,9.94,9.98,56.28,49.37,60.13,58.59,2.89,6.92-1.41,15.84,4.63,19.27Z" style="fill: url(#_未命名漸層_414);"/>
    <g>
      <path d="M1882.53,373.76c-6.03-3.43-1.74-12.35-4.63-19.27-3.85-9.22-50.19-48.61-60.13-58.59,1.33,61.6-1.79,123.45,0,185.02.04,1.21,3.01-.07,3.08,2.31-4.63-.67-3,4.12-3.08,6.94-.62,21.25.01,42.73,0,63.98-.03,45.72,1.42,91.66-3.08,137.22v-405.49c11.44,12.33,65.51,62.95,67.84,73.24.25,4.85-.35,9.83,0,14.65Z" style="fill: #426279;"/>
      <path d="M1829.34,435.43h23.13l-.77,14.65c-11.49-4.31-2.34-2.4-1.54-4.63,4.31-12.04-17.7-13.06-9.25,6.17-3.67-.23-15.02.06-13.88-4.63,18.97-2.4-2.87-3.56,2.31-11.56Z" style="fill: #547186;"/>
      <path d="M1837.05,486.31c9.98,4.91-5,10.58,16.19,11.56l-23.9,2.31c-1.94-4.94,13.85-2.33,6.17-9.25-.22-.2-5.97,5.28-5.4-2.31l6.94-2.31Z" style="fill: #426279;"/>
      <path d="M1830.88,367.59c4.42,1.61,3.37,18.96-3.08,16.96-6.06-1.88,1.04-7.7,2.31-11.56.33-1.01-6.38-2.4.77-5.4Z" style="fill: #547186;"/>
      <path d="M1829.34,480.14h21.59c4.92,3.04.16,16.25-3.08,13.88-4.49-3.27,14.28-14.39-18.5-13.88Z" style="fill: #426279;"/>
      <path d="M1826.25,626.61c1.68-1.15,2.46-13.02,1.54-9.25-1.47,6.02-7.95,13.63-1.54,9.25Z" style="fill: #426279;"/>
      <path d="M1827.8,617.36c1.65-.57,6.91.35,6.94,2.31.11,6.47-16.35.91-6.94-2.31Z" style="fill: #426279;"/>
      <g>
        <path d="M1832.42,523.31c4.82-1.15,13.14.83,18.5,0l.77,16.19c-.66.93-17.33,1.37-19.27.77-2.7-.83,1.84-12.91-3.85-14.65,1.17-.14,3.32-2.19,3.85-2.31Z" style="fill: #426279;"/>
        <path d="M1843.21,526.4c4.06-1.37,3.46,2.09,5.4,3.85-8.15,18.26-11.65-1.75-5.4-3.85Z" style="fill: #698a9d;"/>
      </g>
    </g>
  </g>
  <path d="M1515.58,857.88l-209.68-1.54c-6.43-11.54-17.14-25.74-22.36-40.09,2.46,14.01,10.53,27.06,16.19,40.09h-35.46c-3.6-3.97-22.73-25.14-25.44-26.21-3.5-1.39-3.65,1.56-3.85,1.54-4.93-.53-4.55-3.14-10.79,1.54-8.48-9.62-16.76-7.31-25.44-10.79-1.58-.63.04-3.96-1.54-4.63-2.11-.88-12.81,2.61-10.79-3.08,97.96.99,196.78-6.04,294.48,1.54,12.52,13.06,22.62,28.2,34.69,41.63Z" style="fill: #bdd2db;"/>
  <path d="M1494.97,857.88l-209.68-1.54c-6.43-11.54-17.14-25.74-22.36-40.09,2.46,14.01.62,50.15,6.28,63.18l-77.52,17.96c-3.6-3.97-44.15-77.44-42.18-82.97,97.96.99,213.07-5.75,310.77,1.83,12.52,13.06,22.62,28.2,34.69,41.63Z" style="fill: #bdd2db;"/>
  <path d="M1484.93,870.85l-209.68-1.54c-6.43-11.54-17.14-25.74-22.36-40.09,2.46,14.01,10.53,27.06,16.19,40.09h-35.46c-3.6-3.97-22.73-25.14-25.44-26.21-3.5-1.39-3.65,1.56-3.85,1.54-4.93-.53-4.55-3.14-10.79,1.54-8.48-9.62-16.76-7.31-25.44-10.79-1.58-.63.04-3.96-1.54-4.63-2.11-.88-12.81,2.61-10.79-3.08,97.96.99,196.78-6.04,294.48,1.54,12.52,13.06,22.62,28.2,34.69,41.63Z" style="fill: #bdd2db;"/>
  <path d="M1299.73,856.34c1.04,2.39,4.69,6.01,5.4,9.25,1.31,6.04-28.49,6.1-32.38,4.63-1.94-.74-5.82-10.94-8.48-13.88h35.46Z" style="fill: #7d9eb1;"/>
  <g>
    <path d="M1305.9,856.34c1.14,2.04.02,12.05,3.85,13.88,51.68-1.42,103.33,1.96,154.95,1.54v1.54c-8.77.27-17.43,1.14-26.21,1.54-22.44,1.04-23.95-1-37,20.04-.1.16-5.16-.58-2.31,3.08,8.82,1.84,26.95-3.88,32.38,3.08l-88.65-2.31c13.83-1.05,12.57-18.44,20.81-20.81,7.84-2.26,18.7,3.31,23.13,3.08.63-.03,2.45-3.04,3.08-3.08,5.79-.36,23.46,2.92,21.59-4.63h-101.76l-3.85,80.17-.77-80.17-34.69.77c-2.92,14.75.73,31.19-4.63,45.48-2.86-20.72,6.78-40.85-3.08-58.59-5.74-10.32-19.21-20.99-27.75-29.29.21.02.36-2.93,3.85-1.54,2.71,1.07,21.84,22.24,25.44,26.21,2.66,2.94,6.54,13.14,8.48,13.88,3.88,1.48,33.69,1.42,32.38-4.63-.7-3.24-4.36-6.86-5.4-9.25-5.66-13.02-13.73-26.08-16.19-40.09,5.21,14.35,15.92,28.55,22.36,40.09Z" style="fill: #426279;"/>
    <path d="M1464.7,873.3l-2.31,7.71-23.9-6.17c8.78-.41,17.44-1.27,26.21-1.54Z" style="fill: #698a9d;"/>
    <path d="M1382.22,884.09c9.67-3.21,13.35,13.34,0,9.25-4.25-1.3-3.68-8.03,0-9.25Z" style="fill: #7d9eb1;"/>
    <path d="M1365.26,881.01c3.89-1.49,5.37,3.31,3.08,4.63-1.8,1.04-3.81-3.28-3.08-4.63Z" style="fill: #7d9eb1;"/>
  </g>
  <path d="M209.68,603.48c.29,12.72-1.28,27.86,0,40.09-5.37-6.71-3.34-24.19-3.08-33.15.08-2.82-1.54-7.61,3.08-6.94Z" style="fill: #7d9eb1;"/>
  <path d="M1672.85,652.82c-6.67,31.28-85.9,87.37-111.78,109.47-21.87,18.67-42.26,39.18-65.53,56.28-1.65,5.66,20.73,26.46,25.44,31.61l167.28-159.58c6-9.86,11.19-17.86,13.88-28.52,12.31-48.93,1.15-157.61,3.08-215.08.09-2.82-1.56-7.61,3.08-6.94.33,47.34,7.69,196.57-4.63,232.04-2.67,7.67-9.91,15.98-13.88,23.13l-168.06,161.12c-3.8-5.92-32.72-31.59-30.84-37.77,50.49-44.83,111-87.64,157.26-136.45,8.96-9.46,18.84-15.51,21.59-30.06l1.54-326.86c-2.33-13.72-28.25-40.99-38.54-51.65-.19-5.41,2.31-1.49,3.85,0,15.1,14.64,29.02,30.81,37.77,50.11l-1.54,329.17Z" style="fill: #fbfbfc;"/>
  <path d="M1589.59,193.37c31.69,29.98,62.94,60.4,94.05,90.97,4.03,5.92,10.58,13.85,12.33,20.81,3.13,12.44-4.82,36.58,12.33,31.61,1.05,34.31-.24,68.95,0,103.3-4.64-.67-2.99,4.12-3.08,6.94-1.94,57.47,9.23,166.15-3.08,215.08l-29.29-9.25,1.54-329.17c-8.75-19.29-22.68-35.46-37.77-50.11-1.54-1.49-4.05-5.41-3.85,0-29.31-30.37-65.15-55.37-94.05-86.34,4.62,3.68,29.56,26.04,31.61,26.21,1.55.13,25.45-16.41,19.27-20.04Z" style="fill: #bdd2db;"/>
  <path d="M729.27,142.49l-3.08-3.08c2.43,1.97,2.91,2.95,3.08,3.08Z" style="fill: #2f5068;"/>
  <g>
    <path d="M636.76,96.23c1.46,8.83,6.7,11.51,11.56,18.5-9.91-2.22-42.37,2.96-49.34,0-.43-.18-3.5-5.44-5.4-7.71-.98-2.55-.85-4.31-3.85-6.17-2.59,3.21,2.82,4.93,3.85,6.17.18.47,1.65,9.53,1.54,10.02-4.18,19.42-18.84,12.4-29.29,5.4-.43-.29-5.8-7.45-6.94-7.71-2.83-.63-24.52,1.47-30.06,1.54-9.52,1.6-20.46-1.56-29.29-1.54,10.03-5.62,60.25,1.65,65.53-1.54,1.68-1.01-.64-5.77,3.08-7.71,3.14-1.63,18.21-2.79,17.73-9.25h50.88Z" style="fill: #547186;"/>
    <path d="M639.84,96.23h3.08c-5.56,6.55,7.54,18.14,13.88,18.5-.16.01.5,3.01-.77,3.08-9.59.54-54.57-1.8-58.59,0-1,.44-6.01,14.22-15.42,15.42-4.69.6-19-3.65-16.19-10.79,10.46,7,25.12,14.03,29.29-5.4.11-.5-1.36-9.55-1.54-10.02,1.89,2.27,4.96,7.52,5.4,7.71,6.96,2.96,39.42-2.22,49.34,0-4.86-7-10.1-9.67-11.56-18.5h3.08Z" style="fill: #2f5068;"/>
    <path d="M593.59,107.03c-1.03-1.23-6.45-2.96-3.85-6.17,3,1.86,2.87,3.62,3.85,6.17Z" style="fill: #2f5068;"/>
    <g>
      <path d="M577.4,105.49c16.22-1.84,14.58,24.35-1.54,21.59-11.95-2.05-10.28-20.24,1.54-21.59Z" style="fill: #153f5e;"/>
      <path d="M573.55,116.28l7.71-3.08c11.67,4.07-9.61,13.31-7.71,3.08Z" style="fill: #426279;"/>
      <path d="M581.26,113.19l-7.71,3.08c.62-3.32,5.43-3.88,7.71-3.08Z" style="fill: #72a0ab;"/>
    </g>
  </g>
  <g>
    <path d="M209.68,756.12c9.91,16.53-20.75,41.68-33.92,20.04-2.18-3.58-3.17-15.01-3.85-15.42-4.34-2.59.31,11.6-5.4,8.48,1.66-13.97,6.29-29.85,23.9-26.98,1.94.32,18.25,12.17,19.27,13.88Z" style="fill: #698a9d;"/>
    <path d="M182.7,745.33c5.87-1.21,11.77,1.56,16.19,5.4-12.2-4-17.98-.6-26.98,6.94-1.75-3.9,9.02-11.97,10.79-12.33Z" style="fill: #dae7eb;"/>
    <path d="M202.75,771.54c2.14,5.94-15.33,11.28-19.27,8.48l19.27-8.48Z" style="fill: #bdd2db;"/>
    <g>
      <path d="M187.33,751.5c12.28-2.71,20.63,18.28,7.71,21.59-14.81,3.79-18.24-19.27-7.71-21.59Z" style="fill: #bdd2db;"/>
      <path d="M190.41,756.12c7.37-3.46,9.03,8.05,3.08,9.25-6.26,1.26-7.29-7.28-3.08-9.25Z" style="fill: #2f5068;"/>
    </g>
  </g>
  <g>
    <path d="M356.15,6.81c-.25.33-2.97,7.31-3.08,7.71-7.66,26,1.89,59.4-1.54,81.72-.84,5.47-9.16,14.37-13.11,18.5-29.5,30.87-165.03,139.84-174.99,166.51-.17.45-2.99,4.88-3.08,5.4.46,84.53-.61,169.11,0,253.63-2.76-1.46-4.61,6.52-4.63,6.94-2.3,75.61-10.39,127.93,41.63,185.79,4.26,6.26,10.3,14.6,15.42,20.04l-3.08,3.08c-1.02-1.7-17.33-13.56-19.27-13.88-17.61-2.86-22.24,13.01-23.9,26.98,5.71,3.12,1.06-11.07,5.4-8.48.68.41,1.68,11.84,3.85,15.42-2.51,1.12-3.98,7.78-6.94,7.71-6.31-.15-78.67-78.2-94.82-83.26l-1.54-423.99c12.57-31.55,76.88-76.87,105.61-103.3,57.2-52.63,116.31-118.09,173.45-167.28,3.42-2.94.83-.63,4.63.77Z" style="fill: url(#_未命名漸層_397);"/>
    <path d="M353.07,96.23h-1.54c3.44-22.32-6.12-55.72,1.54-81.72v81.72Z" style="fill: #a2c2c9;"/>
    <path d="M104.07,657.45c23.81,26.9,54.29,47.85,75.55,77.09-13.88-11.24-25.79-24.59-38.54-37-12.44-12.11-30-23.64-37-40.09Z" style="fill: #547186;"/>
    <path d="M158.03,251.96c3.41.35-5,9.54-5.4,10.02-11.98,14.52-30.43,30.8-45.48,42.4l50.88-52.42Z" style="fill: #2e849b;"/>
    <path d="M252.08,168.7c3.26-.75,1.18,3.25.77,3.85-5.85,8.69-28.67,23.79-36.23,33.15l35.46-37Z" style="fill: #72a0ab;"/>
    <g>
      <path d="M138.76,447.76c10.98,9.03,9.38,28.47-2.31,35.46-3.95,2.36-13.33.88-14.65,6.17-18.55-1.08-34.9-31.49-15.42-40.86l-5.4,11.56c2-3.23,4.05-5.24,6.94-7.71-.83,10.06,6.67-2.7,8.48-3.08,1.01-.22.52,3.25,1.54,3.08,5.59-.92,13.99-7.16,19.27,3.85,11.6,24.2-32.98,28.46-22.36-2.31-24.13,34.11,34.61,38.47,28.52,5.4-1.04-5.66-9.57-8.23-7.71-13.11,1.87.71,1.49.5,3.08,1.54Z" style="fill: #3296b7;"/>
      <path d="M135.68,446.22c-1.86,4.88,6.67,7.44,7.71,13.11,6.08,33.08-52.65,28.71-28.52-5.4-10.63,30.78,33.95,26.51,22.36,2.31-5.28-11.01-13.68-4.78-19.27-3.85-1.02.17-.53-3.3-1.54-3.08-1.81.39-9.31,13.14-8.48,3.08,11.23-9.59,12.39-12.01,27.75-6.17Z" style="fill: #2f5068;"/>
      <path d="M121.8,489.39c1.31-5.29,10.7-3.81,14.65-6.17,11.69-6.99,13.29-26.44,2.31-35.46,20.69,13.53,5.48,42.94-16.96,41.63Z" style="fill: #2f5068;"/>
      <path d="M124.11,453.93c4.95-1.13,10.27,9.28,10.02,10.02-1.01,3.04-10.05-1.34-13.11,5.4-8.24-2.82.36-14.8,3.08-15.42Z" style="fill: #b8f9fe;"/>
    </g>
    <g>
      <path d="M179.62,187.2c29.73-6.5,38.27,39.42,10.79,43.17-22.57,3.08-32.61-38.4-10.79-43.17Z" style="fill: #2e849b;"/>
      <path d="M195.04,194.91c29.19,15.43-11.96,50.04-23.9,17.73,9.78,4.97,11.45,14.71,23.9,6.94,10.47-6.54,9.47-17.66,0-24.67Z" style="fill: #dae7eb;"/>
      <path d="M182.7,188.74c3.47-.36,5.64.58,8.48,2.31-10.02.81-15.62,4.93-20.81,13.11-4.59-2.55,7.06-14.88,12.33-15.42Z" style="fill: #fbfbfc;"/>
      <path d="M170.37,205.7c2.34-.85,3.39,2.27,1.54,3.08-2.26.99-3.4-2.41-1.54-3.08Z" style="fill: #dae7eb;"/>
      <g>
        <path d="M187.33,194.91c11.29-.29,16.61,20.78,3.08,23.13-15.56,2.7-17.18-22.76-3.08-23.13Z" style="fill: #dae7eb;"/>
        <path d="M187.33,199.53c1.42,6.28-7.98,10.66,5.4,5.4-2.12,14.52-18.12,1.18-5.4-5.4Z" style="fill: #297899;"/>
      </g>
    </g>
  </g>
  <g>
    <path d="M1302.82,105.49c2.84,1.56,11.17,3.11,12.33,6.94,3.27,10.79-14.52,19.12-23.13,6.94-6.27-8.88,1.43-14.35,10.79-13.88Z" style="fill: #2f5068;"/>
    <path d="M1300.5,108.57c1.95-.45,11.45,2.35,10.02,5.4-9.95-4.49-10.89,5.72-13.11,5.4-4.08-2.92-.21-10.04,3.08-10.79Z" style="fill: #7d9eb1;"/>
  </g>
  <path d="M1702.14,662.07c-2.68,10.66-7.88,18.66-13.88,28.52l-167.28,159.58c-4.71-5.15-27.08-25.94-25.44-31.61,23.26-17.09,43.66-37.6,65.53-56.28,25.88-22.09,105.11-78.18,111.78-109.47l29.29,9.25Z" style="fill: #dae7eb;"/>
  <g>
    <path d="M1095.32,782.33c8.38,13.3,23.48,25.09,33.92,37.36,7.62,8.95,13.11,18.56,20.04,27.7.78,1.02,3.74-3.38,7.71,4.51l-6.17,89.53c3.91,1.93,2.68-.73,3.08-2.58.92-4.24,5.17-77.72,4.63-81.8l26.21-5.15c.69,2.88,2.66,5.7,1.54,9.02-1.4.1-2.03-1.35-2.31-1.29-15.36,3.61-5.81,61.94-6.94,74.07,10.12,4.41,18.6,2.66,29.29,3.22.05,7.49,2.18,8.37-6.94,10.31,7.45.05,14.92-.07,22.36,0v2.58c-4.05.1-26.53-.68-27.75.64-6.08,6.55,20.07,4.38,24.67,4.51l-47.8,2.58c-22.08.03-44.22-.03-66.3,0-2.39-3.81,12.41-3.87,13.11-3.86,8.25.03,16.77,2.04,25.44,1.29.16-.01.41,2.74,3.08.64-.42-31.32,2.81-62.64,1.54-94.03-.1-2.36,1.56-6.36-3.08-5.8-.06-1.65,2.3-5.65,1.54-9.66-3.88-20.48-63.56-60.56-67.84-86.31l16.96,22.54Z" style="fill: #547186;"/>
    <path d="M742.25,848.03c-1.77,15.51,10.17,30.25,15.42,44.44v60.54c31.65,4.07,69.33-2.67,100.22,1.93,3.14.47,7.91,1.21,10.79,2.58-42.63-.04-85.34.06-127.97,0v-1.29c1.16-3.9-7.29-8.25-7.71-9.66-1.31-4.37-1.08-84.79,0-90.17.36-1.8,4.82-11.55,9.25-8.37Z" style="fill: #7d9eb1;"/>
    <path d="M1042.9,783.62c21.48,17.86,76.73,46.97,70.92,75.36-2.49,12.16-24.73,19.12-32.38,28.98l-30.84,25.12c10.38-10.24,29.53-24.38,35.46-36.71,7.91-6.41,9.29-19.5,6.17-27.7-1.36-3.56-43.34-44.68-47.8-47.02-5.26-2.75-8.22-4.27-10.79,1.29-6.67-7.18-7.76-11.18-20.04-12.88,3.76-1.84,12.98-3.77,6.94-7.73h-168.83c2.59-1.12,5.06-1.04,6.94-2.58,47.53,5.92,143.75-9.54,184.24,3.86Z" style="fill: #698a9d;"/>
    <path d="M1015.14,922.74c-6.03-6.22,19.37-33.51,22.36-33.49,2.54.02-2.68,4.36,1.54,3.86,11.09-13.82,44.27-28.37,33.15-47.66-.76-1.32-1.99-2.18-1.54-3.86.16.14,1.45-3.29,4.63.64,19.96,24.73-45.15,61.61-57.82,81.8l-2.31-1.29Z" style="fill: #2f5068;"/>
    <path d="M1143.11,954.94c-1.55-30.46,1.49-61.07,1.54-91.46,0-2.56.1-5.17,0-7.73,4.64-.56,2.99,3.44,3.08,5.8,1.27,31.39-1.96,62.71-1.54,94.03-2.68,2.1-2.93-.66-3.08-.64Z" style="fill: #426279;"/>
    <g>
      <path d="M1013.6,790.06c-13.16-1.82-133.65-.67-147.24,1.29-16.31,2.35-51.09,37.5-51.65,50.88-.73,17.36,20.02,27.74,32.38,38,5.61,4.66,26.92,17.9,29.29,22.54,2.91,5.7-1.58,18.44,2.31,19.97h136.45l2.31,1.29c12.67-20.19,77.77-57.07,57.82-81.8-3.17-3.93-4.46-.5-4.63-.64-7.14-6.25-18.47-13.22-24.67-19.97-3.73-4.05-7.41-13.38-12.33-18.68,2.57-5.56,5.53-4.04,10.79-1.29-3.39,2.75,4.31,10.3,6.17,12.24,21.57,22.52,51.9,28.27,35.46,62.48-5.93,12.33-25.08,26.47-35.46,36.71l30.84-25.12c8.59-6.16,24.86-11.77,30.84-19.97,5.33-7.32,2.28-21.15,16.19-18.68,10.97,1.95,6.75,15.73,1.54,20.61,4.72-1.12,7.86-5.15,8.48-9.02,6.56-1.69,2.73-.69,6.17,2.58-.05,30.39-3.09,61-1.54,91.46-8.67.75-17.19-1.25-25.44-1.29-.69,0-15.5.06-13.11,3.86-78.61.09-157.29.07-235.89,0-2.89-1.37-7.65-2.11-10.79-2.58h21.59c29.78,0,125.25,3.93,144.93-3.86,24.08-9.54,43.55-35.53,63.21-50.88-24.92,13.01-39.09,36.46-63.21,49.59h-164.2c-7.36-1.39-46.09-37.93-54.73-45.09l4.63-3.86c1.95,1.69,7.39,3.6,7.71,3.86,5.74,5.64,10.26,14.07,20.04,16.1-4.01-7.34-14.49-11.55-20.04-16.1-.65-.64,2.62-2.1,1.54-3.22-.44-.46-10.52-4.81-12.33-5.8-.19-.17-.57-1.68-3.08-3.86-.52-.45-1.08-.88-1.54-1.29-10.92-22.26-37.48-18.32-24.67-48.31,5.03-11.77,58.35-51.6,72.46-58.61.09-.05-.42-.43,1.54-1.29h168.83c6.04,3.96-3.17,5.89-6.94,7.73Z" style="fill: #547186;"/>
      <g>
        <path d="M805.46,904.71c8.64,7.15,47.38,43.7,54.73,45.09h164.2v1.29c-19.67,7.8-115.15,3.86-144.93,3.86-7.26-5.22-15.43-.9-25.44-5.15-13.39-5.69-43.9-39.49-56.28-49.59,1.22-4.04,7.37,4.23,7.71,4.51Z" style="fill: #547186;"/>
        <path d="M1035.96,925.32l-12.33,12.88-147.24-.64c49-2.25,98.5,1.36,147.24-1.93l12.33-10.31Z" style="fill: #426279;"/>
        <path d="M1086.07,876.37c16.44-34.2-13.89-39.96-35.46-62.48-1.86-1.94-9.56-9.49-6.17-12.24,4.46,2.33,46.44,43.46,47.8,47.02,3.12,8.2,1.75,21.28-6.17,27.7Z" style="fill: #2f5068;"/>
        <path d="M814.71,867.35c12.73,11.59,32.16,23.7,43.17,35.42.11.11-2.54,1.45-1.54,2.58,4.52,5.12,13.25,10.7,14.65,17.39-14.06-19.3-45.2-35.54-56.28-55.39Z" style="fill: #426279;"/>
        <path d="M1024.39,951.08v-1.29c24.12-13.13,38.29-36.58,63.21-49.59-19.66,15.35-39.14,41.34-63.21,50.88Z" style="fill: #2f5068;"/>
        <path d="M817.79,904.71c5.55,4.55,16.04,8.76,20.04,16.1-9.78-2.03-14.31-10.46-20.04-16.1Z" style="fill: #547186;"/>
        <path d="M817.79,904.71c-.32-.26-5.76-2.18-7.71-3.86-1.82-1.58-2.84-4.95-3.08-5.15,1.81.99,11.89,5.33,12.33,5.8,1.07,1.12-2.19,2.58-1.54,3.22Z" style="fill: #547186;"/>
        <path d="M841.69,924.03l13.11,8.37c-3.28,4.15-14.12-4.73-13.11-8.37Z" style="fill: #547186;"/>
        <path d="M814.71,867.35c-.11-.2-5.16-1.68-2.31-3.86,2.39.73,2.14,3.71,2.31,3.86Z" style="fill: #426279;"/>
      </g>
    </g>
    <path d="M762.29,814.54c-7.27,8.65-21.15,23.46-26.21,32.2-4.63-.8-21.5,13.65-21.59,14.81-.03.37,4.6,5.96,4.63,6.44,1.52,26.86-1.59,53.81-1.54,80.51-1.76.18-12.35-2.75-16.19-1.29l6.94,5.15c-26.1,2.59-48.75,2.42-75.55,2.58-.66-8.49-5.78-16.23-7.71-24.47,9.76,1.46,5.58,4.26,16.96,5.15,11.73.92,62.3,3.05,69.38-1.29,6.14-3.76,6.88-62.82,3.08-68.92-3.68-5.91-41.72-6.02-50.11-4.51-6.26,1.13-9.22,5.49-13.11,9.02-1.86,1.69-6.89,5.95-7.71,7.73-10.09-8.08-10.02-7.99-20.04,0,5.31-10.27,21.49-16.91,27.75-27.05,22.06-8.25,34.82-.74,52.42-9.02,2.69-1.27,23.42-33.12,24.08-33.2,21.28-2.71,34.47,5.77,54.76-14.95l-20.24,21.1Z" style="fill: #bdd2db;"/>
    <path d="M742.25,848.03c-4.43-3.18-8.89,6.57-9.25,8.37-1.08,5.38-1.31,85.8,0,90.17.42,1.41,8.86,5.76,7.71,9.66-6.29-6-20.63-7.58-30.06-6.44-1.27.15.14,2.33-2.31,2.58l-6.94-5.15c3.84-1.47,14.42,1.47,16.19,1.29,3.84-.4,7.11-3.56,12.33-3.22-5.81-7.48-.42-20.36,0-29.63,1.06-23.33-6.09-47.72,6.17-68.92,5.06-8.75,18.94-23.55,26.21-32.2,14.74-17.53,36.19-32.9,46.25-54.1-2.14,3.19-6.1,13.73-10.79,19.97-11.58,15.4-53.83,52.99-55.5,67.63Z" style="fill: #547186;"/>
    <path d="M1136.95,811.96c3.11,2.3,29.2,18.24,30.84,14.81-4.45-.16-4.27-4.23-4.63-4.51,0,0,17.63,16.33,18.5,19.32,1.07,3.65,2.13,6.31,3.08,10.31l-26.21,5.15c-.34-2.58-.37-2.83-1.54-5.15-3.97-7.89-6.93-3.48-7.71-4.51-6.93-9.13-12.43-18.74-20.04-27.7,1.2-3.58,1.68-7.28,7.71-7.73Z" style="fill: #7d9eb1;"/>
    <path d="M1221.74,947.21c-7.43-.07-14.91.05-22.36,0,9.12-1.94,6.99-2.82,6.94-10.31,10.83.57,26.51,1.46,37,1.29,10.34-.17,13.32,1.75,21.59-3.86,5.67,1.2-.17,13.5-2.31,14.17-1.91.6-34.67-1.23-40.86-1.29Z" style="fill: #7d9eb1;"/>
    <path d="M1210.95,862.2c-6.74-.49-18.52-1.71-24.67-1.29,1.12-3.32-.85-6.14-1.54-9.02-.95-3.99-2.02-6.65-3.08-10.31,10.07,8.73,38.05,4.97,29.29,20.61Z" style="fill: #547186;"/>
    <path d="M1221.74,949.79c5.32-.13,39.15-.94,40.86,0,1.01.55,1.17,4.08.77,4.51-1.37,1.48-39.04.81-44.71.64-4.6-.13-30.75,2.04-24.67-4.51,1.23-1.32,23.7-.55,27.75-.64Z" style="fill: #698a9d;"/>
    <path d="M1158.53,857.04c.54,4.08-3.7,77.55-4.63,81.8-.4,1.85.83,4.51-3.08,2.58l6.17-89.53c1.17,2.33,1.2,2.57,1.54,5.15Z" style="fill: #2f5068;"/>
    <path d="M643.57,877.65c-6.77,14.67-2.52,41.8-1.54,57.97-11.38-.89-7.19-3.7-16.96-5.15-3.38-14.48-7.71-40.88-1.54-52.81,10.03-7.99,9.95-8.08,20.04,0Z" style="fill: #a2c2c9;"/>
    <path d="M1266.46,878.94c9.87,14.82.23,31.64,3.08,48.95-1.09,2.43-2.02,4.67-4.63,6.44-8.26,5.62-11.24,3.69-21.59,3.86,7.18-13.31,9.58-45.73,4.63-59.25,11.67-3.81,8.36,15.59,18.5,0Z" style="fill: #698a9d;"/>
    <g>
      <path d="M1072.19,746.26c9.62,6.48,90.72,75.8,90.97,76,.35.28.17,4.35,4.63,4.51-1.63,3.42-27.72-12.51-30.84-14.81-.37-.27.43-2.9,0-3.22-17.52-12.97-35.04-25.78-48.57-41.86-1.28,4.95,6.41,8.63,8.48,12.24,1.56,2.71-1.64,3.07-1.54,3.22l-16.96-22.54c4.28,25.74,63.96,65.82,67.84,86.31.76,4.01-1.6,8.01-1.54,9.66.1,2.56,0,5.17,0,7.73-3.44-3.27.39-4.27-6.17-2.58,3.28-20.36-18.75-11.11-20.81-11.59-1.48-.34-9.9-17.44-14.65-22.54-9.35-10.05-46.82-38.75-60.13-43.15-40.49-13.4-136.71,2.06-184.24-3.86-1.88,1.53-4.35,1.45-6.94,2.58-1.97.85-1.45,1.24-1.54,1.29-22.94,12.88-53.23,30.89-69.38,49.59-2.54,2.94-6.94,14.37-8.48,14.81-.26.08-4.37-2.67-4.63-2.58-13.98,5.05-17.75,19.11-1.54,23.19-10.61-6.41-10.31-20.08,4.63-19.32-1.93,6.47.39,7.14,2.31,12.24.28.76-3.4.54-3.08,1.29.77,1.83,27.81,23.7,32.38,27.7.46.41,1.02.83,1.54,1.29-.64,2.49,1.12,2.79,3.08,3.86.24.21,1.26,3.57,3.08,5.15l-4.63,3.86c-.33-.28-6.49-8.55-7.71-4.51,12.38,10.1,42.89,43.9,56.28,49.59,10.01,4.25,18.18-.07,25.44,5.15h-21.59c-30.89-4.61-68.57,2.14-100.22-1.93v-60.54c-5.24-14.2-17.19-28.93-15.42-44.44,1.67-14.63,43.92-52.23,55.5-67.63,4.69-6.24,8.66-16.78,10.79-19.97,4.71-7.03,8.1-10.27,15.42-16.75,3.72-1.79,7.65-5.64,13.11-6.44,25.83-3.77,188.22-3.46,214.31,0,6.76.9,15.46,5.41,20.81,9.02Z" style="fill: url(#_未命名漸層_422);"/>
      <g>
        <path d="M1138.49,860.91c-.62,3.86-3.76,7.89-8.48,9.02,5.21-4.88,9.43-18.66-1.54-20.61-13.91-2.47-10.86,11.36-16.19,18.68-5.97,8.2-22.25,13.81-30.84,19.97,7.65-9.86,29.89-16.82,32.38-28.98,5.8-28.39-49.44-57.5-70.92-75.36,13.31,4.41,50.78,33.1,60.13,43.15,4.75,5.1,13.17,22.2,14.65,22.54,2.06.48,24.09-8.77,20.81,11.59Z" style="fill: #2f5068;"/>
        <path d="M850.17,783.62c-14.12,7.01-67.44,46.84-72.46,58.61-12.81,29.99,13.75,26.04,24.67,48.31-4.57-3.99-31.61-25.87-32.38-27.7-.32-.75,3.37-.53,3.08-1.29-1.92-5.1-4.24-5.77-2.31-12.24-14.94-.76-15.23,12.91-4.63,19.32-16.21-4.08-12.44-18.14,1.54-23.19.26-.09,4.36,2.65,4.63,2.58,1.54-.44,5.94-11.88,8.48-14.81,16.15-18.7,46.44-36.71,69.38-49.59Z" style="fill: #547186;"/>
        <path d="M807,895.69c-1.96-1.07-3.72-1.38-3.08-3.86,2.52,2.19,2.89,3.7,3.08,3.86Z" style="fill: #547186;"/>
        <path d="M1136.95,811.96c-6.03.45-6.51,4.15-7.71,7.73-10.44-12.27-25.54-24.06-33.92-37.36-.1-.15,3.1-.51,1.54-3.22-2.07-3.61-9.76-7.29-8.48-12.24,13.52,16.08,31.05,28.9,48.57,41.86.43.32-.37,2.95,0,3.22Z" style="fill: #a2c2c9;"/>
        <path d="M857.11,751.42c10.59-1.9,168.76-1.92,178.85,0,13.26,2.52,16.23,18.96,5.4,25.12,3.27-9.06,9.68-16.96-3.85-22.54h-183.47c-9.15,5.26-7.67,11.24-9.25,19.32-6.86-7.43,2.97-20.22,12.33-21.9Z" style="fill: #698a9d;"/>
        <path d="M823.19,764.3c5.28-.92,11,9.15,3.08,10.31-7.3,1.06-8.85-9.3-3.08-10.31Z" style="fill: #297899;"/>
        <path d="M1065.25,765.59c4.71-.87,10.7,6.66,4.63,9.02-7.06,2.73-11.86-7.68-4.63-9.02Z" style="fill: #426279;"/>
      </g>
    </g>
    <path d="M827.04,846.74c5.87-6.38,16.05-12.91,23.13-20.61,13.33,2.59-13.93,30.92-16.19,30.92l-6.94-10.31Z" style="fill: #153f5e;"/>
    <g>
      <path d="M1013.6,790.06c12.29,1.7,13.37,5.71,20.04,12.88,4.93,5.3,8.61,14.63,12.33,18.68,6.2,6.74,17.53,13.71,24.67,19.97-.44,1.68.78,2.54,1.54,3.86-2.58,4.62-3.37,14.17-10.79,15.46,11.21-19.37-.82-11.82-15.42-26.41-6.65-6.65-20.87-30.98-30.06-32.85-11.38-2.32-16.03,4-16.96,3.86-.58-.08-1.53-3.82-3.08-3.86-42.03-1.28-84.37.95-126.43,0-9.94,5.84-12.78,17.42-19.27,24.47-7.08,7.7-17.25,14.23-23.13,20.61-11.05,12,10.78,21.97,21.59,30.92l-1.54,2.58c-12.36-10.26-33.11-20.64-32.38-38,.56-13.38,35.34-48.53,51.65-50.88,13.59-1.96,134.08-3.11,147.24-1.29Z" style="fill: #dae7eb;"/>
      <path d="M906.45,795.21c26.4-2.9,64.63.6,91.74,1.93l-99.45.64c-.26-1,7.3-2.53,7.71-2.58Z" style="fill: #7d9eb1;"/>
      <path d="M861.73,799.08c-7.6,15.92-22.54,32.13-38.54,42.51l38.54-42.51Z" style="fill: #7d9eb1;"/>
    </g>
    <path d="M1238.7,854.47c8.54,6.94,22.01,15.85,27.75,24.47-10.15,15.59-6.84-3.81-18.5,0-.45-1.22-1.45-3.34-3.08-3.86-.12-.4.16-.91,0-1.29-1.48-3.54-10.64-10.76-15.42-11.59,2.75-2.74.49-4.51-1.54-6.44,6.24-3.91,5.86-1.73,10.79-1.29Z" style="fill: #a2c2c9;"/>
    <path d="M736.08,846.74c-12.25,21.19-5.11,45.59-6.17,68.92-.42,9.26-5.81,22.14,0,29.63-5.22-.34-8.49,2.82-12.33,3.22-.05-26.7,3.06-53.65,1.54-80.51-.03-.48-4.65-6.07-4.63-6.44.08-1.16,16.95-15.61,21.59-14.81Z" style="fill: #8baebf;"/>
    <path d="M711.41,934.33l1.54-61.19-61.67-3.22c3.88-3.52,6.85-7.89,13.11-9.02,8.39-1.51,46.43-1.41,50.11,4.51,3.79,6.1,3.06,65.15-3.08,68.92Z" style="fill: #153f5e;"/>
    <path d="M1244.87,873.79c.16.38-.12.89,0,1.29-5.19-1.06,1.5,7.81,1.54,9.66.32,13.98-.48,20.66-20.04,21.25l-5.4-2.58.77,2.58c-.92-.03-17.07-3.33-17.73-3.86-1.76-1.44-.09-3.69-.77-5.15h1.54c3.73,1.97,11.45-.42,15.42-1.29.97-.21,1.73-.02,1.54-1.29,10.35,2.31,6.9-7.52,4.63-9.02-.25-.16-.99.1-1.54,0,3.2-6.8-.47-4.25-1.54-5.15-3.77-3.2-6.6-3.87-4.63,1.29-5.43-1.08-1.31-2.29-4.63-3.86,12.24-4.37,13.93-8.41,30.84-3.86Z" style="fill: #153f5e;"/>
    <path d="M1214.03,877.65c3.31,1.58-.81,2.78,4.63,3.86,2.45.49,2.84-.92,4.63-1.29,1.07.91,4.74-1.64,1.54,5.15-1.94-.36-6.35-.1-5.4,2.58l6.94-2.58c2.27,1.5,5.73,11.32-4.63,9.02-.45-.1-2.97-6.14-1.54,1.29-3.96.87-11.69,3.26-15.42,1.29,8.29-1.73.15-3.55,0-3.86-.54-1.17-1.53-3.95-1.54-5.15,8.48.2,5.64.06,4.63-3.86-.95-3.68-3.72-2.06-3.08-5.8,1.82-1.64,7.27.06,9.25-.64Z" style="fill: #153f5e;"/>
    <path d="M1226.37,905.99c-1.52.05-3.11.05-4.63,0l-.77-2.58,5.4,2.58Z" style="fill: #2e849b;"/>
    <g>
      <path d="M1186.28,860.91c6.14-.42,17.93.79,24.67,1.29,5.56.41,13.63-.85,18.5,0,4.77.84,13.93,8.05,15.42,11.59-16.9-4.54-18.6-.51-30.84,3.86-1.98.71-7.43-1-9.25.64-.64,3.73,2.13,2.11,3.08,5.8-5.1-.41-4.67.09-4.63,3.86.01,1.2,1,3.98,1.54,5.15-8.06-2.46-2.27,2.29-1.54,3.86.68,1.46-.99,3.72.77,5.15.66.53,16.82,3.84,17.73,3.86,1.52.05,3.11.05,4.63,0,19.56-.6,20.36-7.27,20.04-21.25-.04-1.85-6.73-10.72-1.54-9.66,1.63.53,2.64,2.65,3.08,3.86,4.95,13.53,2.56,45.94-4.63,59.25-10.49.17-26.18-.72-37-1.29-10.69-.56-19.17,1.19-29.29-3.22,1.13-12.13-8.42-70.46,6.94-74.07.28-.07.91,1.38,2.31,1.29Z" style="fill: #0c2943;"/>
      <g>
        <path d="M1204.78,893.11c.15.32,8.29,2.14,0,3.86h-1.54c-.73-1.57-6.52-6.33,1.54-3.86Z" style="fill: #2e849b;"/>
        <path d="M1207.87,884.1c1.02,3.92,3.85,4.06-4.63,3.86-.04-3.78-.47-4.27,4.63-3.86Z" style="fill: #34b2c5;"/>
        <path d="M1208.64,866.06c1.3-.37,5.54-.22,6.94.64-3.38,4.29-12.94,1.09-6.94-.64Z" style="fill: #2e849b;"/>
        <path d="M1217.89,911.15c2.34-.71,3.39,1.9,1.54,2.58-2.26.83-3.4-2.01-1.54-2.58Z" style="fill: #4c9bae;"/>
        <polygon points="1202.47 911.15 1204.78 911.79 1204.01 913.72 1203.24 913.08 1202.47 911.15" style="fill: #2e849b;"/>
      </g>
    </g>
    <g>
      <path d="M1061.4,860.91c-11.51,19.9-35.59,28.37-50.11,46.37,6.3-16.13,29.47-27.19,42.4-40.58l-38.54,28.34c-4.91,4.99-10.74,19.91-16.19,21.25l-111.01,1.29c-4.57-18.73-24.8-27.91-39.32-39.93-10.81-8.95-32.63-18.92-21.59-30.92l6.94,10.31c2.25,0,29.52-28.32,16.19-30.92,6.49-7.06,9.34-18.64,19.27-24.47,42.06.95,84.4-1.28,126.43,0,1.56.05,2.51,3.78,3.08,3.86.93.13,5.58-6.18,16.96-3.86,9.2,1.87,23.41,26.2,30.06,32.85,14.59,14.58,26.62,7.04,15.42,26.41Z" style="fill: #153f5e;"/>
      <g>
        <path d="M1015.14,922.74h-136.45c-3.89-1.53.59-14.27-2.31-19.97-2.37-4.65-23.68-17.88-29.29-22.54l1.54-2.58c14.52,12.02,34.75,21.2,39.32,39.93l111.01-1.29c5.44-1.34,11.28-16.27,16.19-21.25l38.54-28.34c-12.92,13.38-36.1,24.44-42.4,40.58,14.52-18.01,38.59-26.47,50.11-46.37,7.43-1.29,8.21-10.84,10.79-15.46,11.12,19.29-22.06,33.84-33.15,47.66-4.22.5,1-3.85-1.54-3.86-2.99-.02-28.38,27.27-22.36,33.49Z" style="fill: #a2c2c9;"/>
        <path d="M986.62,891.82c4.44,6.21,9.14,10.7-3.08,12.88-8.87,1.58-63.66-.88-77.09-1.29-.53-.02-2.6,2.62-3.08,2.58-.88-.09-8.79-8.22-3.08-10.31,9.53-3.48,80.96,3,84.8,1.29,1.74-.77-.15-4.88,1.54-5.15Z" style="fill: #1e5d7f;"/>
        <path d="M978.91,859.62c.78.17,2.8,2.12,2.31,3.22-1.24,1.25-24.23,3.12-27.75,0,0-1.07,24.19-3.49,25.44-3.22Z" style="fill: #3296b7;"/>
        <path d="M941.91,845.45c4.69-.22,8.01,7.06,3.08,9.02-9.88,3.93-10.48-8.67-3.08-9.02Z" style="fill: #bde6eb;"/>
        <path d="M965.04,846.74c5.59-.94,7,5.02,4.63,6.44-5.85,3.5-12.22-5.17-4.63-6.44Z" style="fill: #86d1e1;"/>
        <path d="M917.24,860.91c.66-.28,14.65.26,14.65,1.93l-14.65,1.93c-2.44-1.38-2.8-2.68,0-3.86Z" style="fill: #34b2c5;"/>
        <path d="M952.7,869.93c9.14-2.62,6.88,6.74,0,5.15-2.75-.64-2.97-4.3,0-5.15Z" style="fill: #34b2c5;"/>
        <path d="M940.37,860.91c2.91-.28,5.29.45,5.4,3.22-5.84,3.13-12.98-2.49-5.4-3.22Z" style="fill: #3296b7;"/>
        <path d="M942.68,872.5c-.24,3.02-6.17,4.69-7.71-1.29l7.71,1.29Z" style="fill: #3296b7;"/>
        <path d="M926.49,869.93c3.59-.14,1.79,6.7-1.54,5.15-2.17-1,.06-5.1,1.54-5.15Z" style="fill: #86d1e1;"/>
        <path d="M926.49,848.03c3.55-.09,2.84,4.36,1.54,5.15-3.2,1.97-4.1-5.09-1.54-5.15Z" style="fill: #71e5e8;"/>
        <path d="M942.68,872.5l-7.71-1.29c-.85-3.31,8.01-2.44,7.71,1.29Z" style="fill: #34b2c5;"/>
        <path d="M972.74,869.93c2.66,0,2.65,5.16,0,5.15-2.66,0-2.65-5.16,0-5.15Z" style="fill: #34b2c5;"/>
        <path d="M1002.04,866.06c1.91-1.1,2.03,4.94,0,3.86-1.17-.62-1.33-3.1,0-3.86Z" style="fill: #297899;"/>
        <path d="M870.99,862.2c.75-.04,1.04,1.13.77,1.93-.88,4.79-2.74-1.84-.77-1.93Z" style="fill: #1e5d7f;"/>
      </g>
    </g>
    <path d="M1223.29,880.23c-1.78.37-2.18,1.78-4.63,1.29-1.98-5.16.86-4.49,4.63-1.29Z" style="fill: #4c9bae;"/>
    <path d="M1224.83,885.38c.55.1,1.3-.16,1.54,0l-6.94,2.58c-.96-2.67,3.46-2.94,5.4-2.58Z" style="fill: #4c9bae;"/>
    <path d="M1221.74,894.4c.19,1.27-.58,1.08-1.54,1.29-1.42-7.43,1.1-1.39,1.54-1.29Z" style="fill: #4c9bae;"/>
    <g>
      <path d="M711.41,934.33c-7.08,4.34-57.65,2.21-69.38,1.29-.98-16.17-5.23-43.3,1.54-57.97.82-1.78,5.85-6.04,7.71-7.73l61.67,3.22-1.54,61.19Z" style="fill: #153f5e;"/>
      <path d="M687.51,909.86c5.38-1.34,4.77,4.23,1.54,5.15-4,1.15-3.7-4.61-1.54-5.15Z" style="fill: #3dcdd1;"/>
      <g>
        <path d="M675.95,876.37c-3.4,1.11-3.69,2.1-.77,3.86.96-.55,5.02-2.48,5.4-2.58,5.84-1.47,10.9-6.44,13.88,2.58l-6.17.64,4.63,1.93c.26,2.9,1.05,6.15,0,9.02-3.58.16-4.06,1.33-6.17,2.58-3.36,2-6.33,3.98-9.25,6.44-.72.61-9.92,1.7,0,3.86-.41,1.25-1.4,4.92-1.54,5.15-4.16-2.28-5.08-1.68-4.63,2.58-3.67.6-5.28,1.59-9.25,0l-3.08-3.86c-.36-1.4-.96-10.83-1.54-14.17,10.17,1.32,9.09-6.39,0-2.58-.02-.13-2.94.43-3.08-.64-1.88-14.18,5.81-17.45,21.59-14.81Z" style="fill: #1e5d7f;"/>
        <g>
          <path d="M657.45,894.4c-.14-.82.15-1.76,0-2.58,9.09-3.81,10.17,3.89,0,2.58Z" style="fill: #34b2c5;"/>
          <path d="M680.57,877.65c-.38.09-4.43,2.03-5.4,2.58-2.92-1.76-2.62-2.75.77-3.86,1.67.28,4.47-.89,4.63,1.29Z" style="fill: #34b2c5;"/>
          <path d="M675.95,909.86c-3.87,6.24-1.61,2.08-4.63,2.58-.46-4.26.46-4.86,4.63-2.58Z" style="fill: #71e5e8;"/>
          <path d="M694.45,880.23c.91,2.76-1.55,2.43-1.54,2.58l-4.63-1.93,6.17-.64Z" style="fill: #34b2c5;"/>
          <path d="M677.49,900.84c2.19,2.53.63,1.95,0,3.86-9.92-2.17-.72-3.25,0-3.86Z" style="fill: #3dcdd1;"/>
          <path d="M692.91,891.82c-.99,2.7-2.22,4.52-6.17,2.58,2.1-1.25,2.59-2.42,6.17-2.58Z" style="fill: #4c9bae;"/>
          <path d="M662.07,912.43c-4.28-1.71-1.97.5-3.08-3.86l3.08,3.86Z" style="fill: #71e5e8;"/>
          <path d="M659.76,882.81c5.51-.62,3.66,5.5,0,5.15-2.69-.26-2.79-4.84,0-5.15Z" style="fill: #86d1e1;"/>
          <path d="M675.18,882.81c2.48-.54,3.94.38,5.4,1.93l-6.94.64c-1.53-.65,1.15-2.49,1.54-2.58Z" style="fill: #3dcdd1;"/>
          <path d="M673.64,891.82c1.21-.54,6.8-.19,5.4,1.93-1.5,2.27-7.72-.89-5.4-1.93Z" style="fill: #71e5e8;"/>
        </g>
      </g>
    </g>
  </g>
  <g>
    <path d="M1797.73,265.83c4,4.13,4.42,3.65,6.17,10.02,4.36,137.76-5.86,277.01,1.54,414.74.16,2.97-.86,5.78,3.08,6.94.78,2.08,1.14,1.77,3.08,1.54-94.13,85.11-187.69,170.68-284.46,252.85-3.59-2.74,2.58-71.95.77-83.26-.08-.5.1-1.05,0-1.54,25.63-21.68,51.82-43.33,76.32-66.3,21.15-19.83,112.64-105.47,116.41-127.2-1.92-128.9,3.93-258.52-3.08-386.99-.4-3.8-6.5-6.77-7.71-8.48s-3.53-3.26-4.63-4.63c-48.09-60.28-121.89-111.1-174.22-168.83-3.04-25.77-1.22-51.98-1.54-77.86-.07-5.68-2.08-12.2-.77-16.96,83.1,87.55,175.56,165.75,260.56,251.31,1.15,1.16,8.14,4.28,8.48,4.63Z" style="fill: url(#_未命名漸層_427);"/>
    <g>
      <path d="M1799.27,264.29l-1.54,1.54c-.34-.35-7.33-3.47-8.48-4.63-85-85.56-177.46-163.76-260.56-251.31-1.31,4.76.7,11.28.77,16.96h-3.08c-.28-7.88-1.86-15.43-1.54-23.13,86.66,90.72,187.55,170.64,274.44,260.56Z" style="fill: #7d9eb1;"/>
      <path d="M1806.98,275.08c.04,85.19-.07,170.67,0,255.94.02,28.09-4.87,149.3,1.54,166.51-3.95-1.16-2.92-3.96-3.08-6.94-7.4-137.73,2.82-276.99-1.54-414.74-1.74-6.37-2.17-5.89-6.17-10.02l1.54-1.54c4.26,4.41,6.37,9.38,7.71,10.79Z" style="fill: #426279;"/>
      <path d="M1527.92,867.13c-.27-1.28-1.06-1.76-1.54-3.08,52.39-49.93,114.04-97.74,162.66-151.1,10.7-11.74,21.45-23.28,28.52-37.77-8.12-119.38,10.94-253.88,0-371.57-.81-8.69-3.16-17.84-7.71-25.44,1.21,1.71,7.31,4.68,7.71,8.48,7.02,128.47,1.16,258.09,3.08,386.99-3.76,21.73-95.25,107.37-116.41,127.2-24.49,22.96-50.69,44.61-76.32,66.3Z" style="fill: #dae7eb;"/>
      <path d="M1749.94,453.93c-.09.06-.65.76-1.54,1.54-7.2,1.94-10.79,5.4-9.25,13.11.89,1.72,2.75-1.7,3.08-.77,2.68,7.57.36,5.62,6.17,12.33,18.49,21.38,40.88-4.47,26.21-26.21,40.8,21.94-30.94,64.82-38.54,19.27-1.46-8.76,5.96-27.6,13.88-19.27Z" style="fill: #297899;"/>
      <path d="M1689.81,780.79c41.5-48.61-58.17-35.95-1.54,0-20.41-.11-31.54-20.61-11.56-33.92,1.49-.99,11.58-3.25,11.56-3.85-.05-1.97-9.82,1.49-6.94-3.85,26.27-2.42,36.38,38.33,8.48,41.63Z" style="fill: #426279;"/>
      <path d="M1786.17,708.33c-53.99,51.41-108.65,102.36-165.74,150.32,54.59-50.81,108.95-101.95,165.74-150.32Z" style="fill: #7d9eb1;"/>
      <path d="M1781.54,655.91c-6.35,15.46-23.54,27.33-35.46,38.54-12.68,11.93-25.16,24.5-39.32,34.69,23.04-26.28,51.53-47.13,74.78-73.24Z" style="fill: #426279;"/>
      <path d="M1732.2,258.12l47.8,49.34c-15.51-16.35-36.68-30.11-47.8-49.34Z" style="fill: #547186;"/>
      <path d="M1622.74,165.62l33.15,31.61c-1.5,4.7-33.54-26.59-33.15-31.61Z" style="fill: #4c7b8e;"/>
      <g>
        <path d="M1690.58,188.74c17.98-3.15,26,10.33,22.36,26.98-5.23,23.91-48.75,21.15-41.63-6.17,6.7,8.73,2.57-17.89,19.27-20.81Z" style="fill: #698a9d;"/>
        <path d="M1685.95,202.62c3.55-.81,10.43,15.58,9.25,16.96-5.33,6.23-20.75-10.81-9.25-16.96Z" style="fill: #bdd2db;"/>
        <path d="M1707.54,210.33c.7-.37,3.29-.24,3.85.77-3.21,11.4-17.62,23.71-29.29,16.96,12.65,4.52,23.04-16.45,25.44-17.73Z" style="fill: #a2c2c9;"/>
        <path d="M1689.03,193.37c11.36-3.04,22.65,18.3,9.25,24.67,4.98-8.55.1-22.61-11.56-20.81-.57-1.21,1.52-3.64,2.31-3.85Z" style="fill: #bdd2db;"/>
      </g>
      <path d="M1748.39,455.47c-2.55,2.24-5.47,8.79-6.17,12.33-.33-.93-2.19,2.49-3.08.77-1.54-7.71,2.05-11.17,9.25-13.11Z" style="fill: #8baebf;"/>
      <g>
        <path d="M1689.81,780.79c-.49.06-1.04,0-1.54,0-56.63-35.95,43.04-48.61,1.54,0Z" style="fill: #7d9eb1;"/>
        <path d="M1692.89,770c-2.46,2.9-5.05,11.54-13.11,3.08-14.39-15.11,11.31-32.92,17.73-11.56-18.02-16.97-22.19,15.74-4.63,8.48Z" style="fill: #426279;"/>
        <path d="M1692.89,770c1.35-1.59,3.35-7.68,6.17-5.4-3.07,8.26-5.13,4.97-6.17,5.4Z" style="fill: #426279;"/>
      </g>
      <g>
        <path d="M1774.6,453.93c14.67,21.74-7.72,47.59-26.21,26.21,10,13.22,35.66.02,27.75-17.73-8.83-19.81-41.98-1.08-27.75,17.73-5.81-6.72-3.48-4.76-6.17-12.33.7-3.55,3.62-10.1,6.17-12.33.89-.78,1.45-1.48,1.54-1.54,8.4-5.22,17.1-4.07,24.67,0Z" style="fill: #153f5e;"/>
        <path d="M1748.39,480.14c-14.23-18.81,18.92-37.54,27.75-17.73,7.91,17.75-17.76,30.95-27.75,17.73Z" style="fill: #1e5d7f;"/>
        <path d="M1768.44,475.52l-9.25,1.54c-11.71-12.35,20.66-17.06,9.25-1.54Z" style="fill: #b8f9fe;"/>
        <path d="M1768.44,475.52c-3.81,5.18-4.21,6.85-9.25,1.54l9.25-1.54Z" style="fill: #4c9bae;"/>
      </g>
    </g>
  </g>
  <polygon points="720.23 .03 680.73 2.82 676.2 96.17 732.92 96.23 720.23 .03" style="fill: #dae7eb;"/>
  <rect x="688.25" y="96.3" width="36.5" height="18.42" style="fill: #dae7eb;"/>
  <rect x="1170.86" y="96.24" width="17.93" height="18.5" style="fill: #698a9d;"/>
  <path d="M1524.83,870.22c-10.03,1.05-19.98,1.15-19.98,1.15h0l-110.62-.35v63.26h124.41l3.87,17.66,2.31-81.72Z" style="fill: #547186;"/>
</svg>